%TF.GenerationSoftware,KiCad,Pcbnew,9.0.1*%
%TF.CreationDate,2025-09-20T23:55:37+05:30*%
%TF.ProjectId,how_to_kicad,686f775f-746f-45f6-9b69-6361642e6b69,rev?*%
%TF.SameCoordinates,Original*%
%TF.FileFunction,Legend,Top*%
%TF.FilePolarity,Positive*%
%FSLAX46Y46*%
G04 Gerber Fmt 4.6, Leading zero omitted, Abs format (unit mm)*
G04 Created by KiCad (PCBNEW 9.0.1) date 2025-09-20 23:55:37*
%MOMM*%
%LPD*%
G01*
G04 APERTURE LIST*
%ADD10C,0.300000*%
%ADD11C,0.250000*%
%ADD12C,0.150000*%
%ADD13C,0.120000*%
G04 APERTURE END LIST*
D10*
G36*
X175049171Y-89887310D02*
G01*
X174996637Y-90044911D01*
X174896031Y-90145517D01*
X174789671Y-90198698D01*
X174537850Y-90261653D01*
X174360492Y-90261653D01*
X174108670Y-90198697D01*
X174002311Y-90145518D01*
X173901704Y-90044911D01*
X173849171Y-89887312D01*
X173849171Y-89704510D01*
X175049171Y-89704510D01*
X175049171Y-89887310D01*
G37*
G36*
X175587267Y-101512858D02*
G01*
X173025361Y-101512858D01*
X173025361Y-100678607D01*
X173550349Y-100678607D01*
X173551682Y-100697368D01*
X173550349Y-100716129D01*
X173553738Y-100726296D01*
X173554498Y-100736988D01*
X173562909Y-100753811D01*
X173568857Y-100771653D01*
X173575879Y-100779749D01*
X173580672Y-100789335D01*
X173594880Y-100801658D01*
X173607204Y-100815867D01*
X173616789Y-100820659D01*
X173624886Y-100827682D01*
X173651737Y-100839670D01*
X175151737Y-101339671D01*
X175180411Y-101346191D01*
X175238791Y-101342041D01*
X175291138Y-101315867D01*
X175329485Y-101271653D01*
X175347994Y-101216129D01*
X175343844Y-101157749D01*
X175317671Y-101105401D01*
X175273456Y-101067054D01*
X175246605Y-101055066D01*
X174173511Y-100697368D01*
X175246605Y-100339670D01*
X175273456Y-100327682D01*
X175317671Y-100289335D01*
X175343844Y-100236987D01*
X175347994Y-100178607D01*
X175329485Y-100123083D01*
X175291138Y-100078869D01*
X175238791Y-100052695D01*
X175180411Y-100048545D01*
X175151737Y-100055065D01*
X173651737Y-100555066D01*
X173624886Y-100567054D01*
X173616789Y-100574076D01*
X173607204Y-100578869D01*
X173594880Y-100593077D01*
X173580672Y-100605401D01*
X173575879Y-100614986D01*
X173568857Y-100623083D01*
X173562909Y-100640924D01*
X173554498Y-100657748D01*
X173553738Y-100668439D01*
X173550349Y-100678607D01*
X173025361Y-100678607D01*
X173025361Y-98840225D01*
X173549171Y-98840225D01*
X173549171Y-99768797D01*
X173552053Y-99798061D01*
X173574451Y-99852133D01*
X173615835Y-99893517D01*
X173669907Y-99915915D01*
X173728435Y-99915915D01*
X173782507Y-99893517D01*
X173823891Y-99852133D01*
X173846289Y-99798061D01*
X173849171Y-99768797D01*
X173849171Y-99202357D01*
X174450248Y-99803434D01*
X174472978Y-99822089D01*
X174477959Y-99824152D01*
X174482029Y-99827682D01*
X174508880Y-99839670D01*
X174723165Y-99911099D01*
X174737674Y-99914398D01*
X174741336Y-99915915D01*
X174746644Y-99916437D01*
X174751839Y-99917619D01*
X174755788Y-99917338D01*
X174770600Y-99918797D01*
X174913457Y-99918797D01*
X174942721Y-99915915D01*
X174947701Y-99913851D01*
X174953076Y-99913470D01*
X174980539Y-99902961D01*
X175123396Y-99831532D01*
X175135989Y-99823604D01*
X175139649Y-99822089D01*
X175143768Y-99818707D01*
X175148282Y-99815867D01*
X175150878Y-99812873D01*
X175162380Y-99803434D01*
X175233808Y-99732006D01*
X175243248Y-99720503D01*
X175246241Y-99717908D01*
X175249079Y-99713398D01*
X175252463Y-99709276D01*
X175253979Y-99705613D01*
X175261906Y-99693022D01*
X175333335Y-99550164D01*
X175343845Y-99522701D01*
X175344227Y-99517323D01*
X175346289Y-99512346D01*
X175349171Y-99483082D01*
X175349171Y-99125940D01*
X175346289Y-99096676D01*
X175344227Y-99091698D01*
X175343845Y-99086321D01*
X175333335Y-99058858D01*
X175261906Y-98916000D01*
X175253979Y-98903408D01*
X175252463Y-98899746D01*
X175249079Y-98895623D01*
X175246241Y-98891114D01*
X175243248Y-98888518D01*
X175233808Y-98877016D01*
X175162380Y-98805588D01*
X175139649Y-98786933D01*
X175085577Y-98764536D01*
X175027051Y-98764536D01*
X174972979Y-98786933D01*
X174931593Y-98828319D01*
X174909196Y-98882391D01*
X174909196Y-98940917D01*
X174931593Y-98994989D01*
X174950248Y-99017720D01*
X175004464Y-99071936D01*
X175049171Y-99161350D01*
X175049171Y-99447672D01*
X175004464Y-99537086D01*
X174967460Y-99574089D01*
X174878047Y-99618797D01*
X174794943Y-99618797D01*
X174637341Y-99566263D01*
X173805237Y-98734159D01*
X173782506Y-98715504D01*
X173750832Y-98702384D01*
X173728435Y-98693107D01*
X173669907Y-98693107D01*
X173647510Y-98702384D01*
X173615836Y-98715504D01*
X173574450Y-98756890D01*
X173571283Y-98764536D01*
X173552053Y-98810961D01*
X173549171Y-98840225D01*
X173025361Y-98840225D01*
X173025361Y-97483083D01*
X173549171Y-97483083D01*
X173549171Y-98340226D01*
X173552053Y-98369490D01*
X173574451Y-98423562D01*
X173615835Y-98464946D01*
X173669907Y-98487344D01*
X173728435Y-98487344D01*
X173782507Y-98464946D01*
X173823891Y-98423562D01*
X173846289Y-98369490D01*
X173849171Y-98340226D01*
X173849171Y-98061654D01*
X175199171Y-98061654D01*
X175199276Y-98061643D01*
X175199329Y-98061654D01*
X175199482Y-98061623D01*
X175228435Y-98058772D01*
X175242155Y-98053088D01*
X175256718Y-98050176D01*
X175268930Y-98041997D01*
X175282507Y-98036374D01*
X175293005Y-98025875D01*
X175305348Y-98017610D01*
X175313502Y-98005379D01*
X175323891Y-97994990D01*
X175329573Y-97981271D01*
X175337814Y-97968911D01*
X175340666Y-97954492D01*
X175346289Y-97940918D01*
X175346289Y-97926066D01*
X175349171Y-97911497D01*
X175346289Y-97897087D01*
X175346289Y-97882390D01*
X175340605Y-97868668D01*
X175337693Y-97854107D01*
X175329514Y-97841894D01*
X175323891Y-97828318D01*
X175313392Y-97817819D01*
X175305127Y-97805477D01*
X175282618Y-97787045D01*
X175282507Y-97786934D01*
X175282456Y-97786913D01*
X175282376Y-97786847D01*
X175080447Y-97652227D01*
X174965305Y-97537085D01*
X174904764Y-97416001D01*
X174889099Y-97391116D01*
X174844884Y-97352769D01*
X174789362Y-97334261D01*
X174730982Y-97338409D01*
X174678633Y-97364584D01*
X174640286Y-97408799D01*
X174621778Y-97464321D01*
X174625926Y-97522701D01*
X174636436Y-97550165D01*
X174707864Y-97693022D01*
X174715791Y-97705615D01*
X174717307Y-97709275D01*
X174720688Y-97713394D01*
X174723529Y-97717908D01*
X174726522Y-97720504D01*
X174735962Y-97732006D01*
X174765610Y-97761654D01*
X173849171Y-97761654D01*
X173849171Y-97483083D01*
X173846289Y-97453819D01*
X173823891Y-97399747D01*
X173782507Y-97358363D01*
X173728435Y-97335965D01*
X173669907Y-97335965D01*
X173615835Y-97358363D01*
X173574451Y-97399747D01*
X173552053Y-97453819D01*
X173549171Y-97483083D01*
X173025361Y-97483083D01*
X173025361Y-95686891D01*
X173549537Y-95686891D01*
X173552053Y-95706682D01*
X173552053Y-95726632D01*
X173555712Y-95735465D01*
X173556918Y-95744951D01*
X173566816Y-95762273D01*
X173574451Y-95780704D01*
X173581211Y-95787464D01*
X173585956Y-95795767D01*
X173601727Y-95807980D01*
X173615835Y-95822088D01*
X173624670Y-95825747D01*
X173632230Y-95831602D01*
X173651474Y-95836850D01*
X173669907Y-95844486D01*
X173684873Y-95845959D01*
X173688694Y-95847002D01*
X173691645Y-95846626D01*
X173699171Y-95847368D01*
X175199171Y-95847368D01*
X175228435Y-95844486D01*
X175282507Y-95822088D01*
X175323891Y-95780704D01*
X175346289Y-95726632D01*
X175346289Y-95668104D01*
X175323891Y-95614032D01*
X175282507Y-95572648D01*
X175228435Y-95550250D01*
X175199171Y-95547368D01*
X174264005Y-95547368D01*
X175273592Y-94970461D01*
X175279759Y-94966083D01*
X175282507Y-94964945D01*
X175285306Y-94962145D01*
X175297570Y-94953440D01*
X175309785Y-94937666D01*
X175323891Y-94923561D01*
X175327549Y-94914727D01*
X175333406Y-94907166D01*
X175338655Y-94887917D01*
X175346289Y-94869489D01*
X175346289Y-94859927D01*
X175348805Y-94850702D01*
X175346289Y-94830910D01*
X175346289Y-94810961D01*
X175342629Y-94802127D01*
X175341424Y-94792642D01*
X175331525Y-94775319D01*
X175323891Y-94756889D01*
X175317130Y-94750128D01*
X175312386Y-94741826D01*
X175296614Y-94729612D01*
X175282507Y-94715505D01*
X175273671Y-94711845D01*
X175266112Y-94705991D01*
X175246867Y-94700742D01*
X175228435Y-94693107D01*
X175213470Y-94691633D01*
X175209649Y-94690591D01*
X175206697Y-94690966D01*
X175199171Y-94690225D01*
X173699171Y-94690225D01*
X173669907Y-94693107D01*
X173615835Y-94715505D01*
X173574451Y-94756889D01*
X173552053Y-94810961D01*
X173552053Y-94869489D01*
X173574451Y-94923561D01*
X173615835Y-94964945D01*
X173669907Y-94987343D01*
X173699171Y-94990225D01*
X174634336Y-94990225D01*
X173624750Y-95567132D01*
X173618582Y-95571509D01*
X173615835Y-95572648D01*
X173613035Y-95575447D01*
X173600772Y-95584153D01*
X173588558Y-95599924D01*
X173574451Y-95614032D01*
X173570791Y-95622867D01*
X173564937Y-95630427D01*
X173559688Y-95649671D01*
X173552053Y-95668104D01*
X173552053Y-95677666D01*
X173549537Y-95686891D01*
X173025361Y-95686891D01*
X173025361Y-94096675D01*
X173552053Y-94096675D01*
X173552053Y-94155203D01*
X173574451Y-94209275D01*
X173615835Y-94250659D01*
X173669907Y-94273057D01*
X173699171Y-94275939D01*
X175199171Y-94275939D01*
X175228435Y-94273057D01*
X175282507Y-94250659D01*
X175323891Y-94209275D01*
X175346289Y-94155203D01*
X175346289Y-94096675D01*
X175323891Y-94042603D01*
X175282507Y-94001219D01*
X175228435Y-93978821D01*
X175199171Y-93975939D01*
X173699171Y-93975939D01*
X173669907Y-93978821D01*
X173615835Y-94001219D01*
X173574451Y-94042603D01*
X173552053Y-94096675D01*
X173025361Y-94096675D01*
X173025361Y-92340383D01*
X173192028Y-92340383D01*
X173203506Y-92397772D01*
X173236073Y-92446402D01*
X173258823Y-92465033D01*
X175187395Y-93750747D01*
X175213343Y-93764581D01*
X175270758Y-93775939D01*
X175328147Y-93764461D01*
X175376777Y-93731895D01*
X175409243Y-93683196D01*
X175420600Y-93625782D01*
X175409122Y-93568392D01*
X175376556Y-93519762D01*
X175353805Y-93501132D01*
X173425233Y-92215417D01*
X173399285Y-92201583D01*
X173341870Y-92190225D01*
X173284481Y-92201703D01*
X173235851Y-92234270D01*
X173203386Y-92282968D01*
X173192028Y-92340383D01*
X173025361Y-92340383D01*
X173025361Y-91483082D01*
X173549171Y-91483082D01*
X173549171Y-91625939D01*
X173550629Y-91640750D01*
X173550349Y-91644700D01*
X173551530Y-91649894D01*
X173552053Y-91655203D01*
X173553570Y-91658865D01*
X173556869Y-91673373D01*
X173628297Y-91887659D01*
X173640286Y-91914510D01*
X173643816Y-91918580D01*
X173645879Y-91923560D01*
X173664534Y-91946291D01*
X173735962Y-92017719D01*
X173758692Y-92036374D01*
X173812765Y-92058770D01*
X173871291Y-92058770D01*
X173925363Y-92036374D01*
X173966749Y-91994988D01*
X173989145Y-91940916D01*
X173989145Y-91882390D01*
X173966749Y-91828317D01*
X173948094Y-91805587D01*
X173901704Y-91759197D01*
X173849171Y-91601598D01*
X173849171Y-91507422D01*
X173901704Y-91349823D01*
X174002311Y-91249216D01*
X174108670Y-91196037D01*
X174360492Y-91133082D01*
X174537850Y-91133082D01*
X174789671Y-91196036D01*
X174896031Y-91249217D01*
X174996637Y-91349823D01*
X175049171Y-91507424D01*
X175049171Y-91601596D01*
X174996637Y-91759197D01*
X174950248Y-91805587D01*
X174931593Y-91828318D01*
X174909196Y-91882390D01*
X174909196Y-91940916D01*
X174931593Y-91994988D01*
X174972979Y-92036374D01*
X175027051Y-92058771D01*
X175085577Y-92058771D01*
X175139649Y-92036374D01*
X175162380Y-92017719D01*
X175233808Y-91946291D01*
X175252463Y-91923561D01*
X175254526Y-91918580D01*
X175258056Y-91914510D01*
X175270044Y-91887659D01*
X175341473Y-91673374D01*
X175344772Y-91658864D01*
X175346289Y-91655203D01*
X175346811Y-91649894D01*
X175347993Y-91644700D01*
X175347712Y-91640750D01*
X175349171Y-91625939D01*
X175349171Y-91483082D01*
X175347712Y-91468270D01*
X175347993Y-91464321D01*
X175346811Y-91459126D01*
X175346289Y-91453818D01*
X175344772Y-91450156D01*
X175341473Y-91435647D01*
X175270044Y-91221362D01*
X175258056Y-91194511D01*
X175254526Y-91190441D01*
X175252463Y-91185460D01*
X175233808Y-91162730D01*
X175090951Y-91019873D01*
X175079449Y-91010433D01*
X175076853Y-91007440D01*
X175072339Y-91004599D01*
X175068220Y-91001218D01*
X175064560Y-90999702D01*
X175051967Y-90991775D01*
X174909110Y-90920346D01*
X174906969Y-90919526D01*
X174906099Y-90918882D01*
X174893821Y-90914495D01*
X174881647Y-90909837D01*
X174880566Y-90909760D01*
X174878408Y-90908989D01*
X174592694Y-90837561D01*
X174587622Y-90836811D01*
X174585578Y-90835964D01*
X174574555Y-90834878D01*
X174563605Y-90833259D01*
X174561417Y-90833584D01*
X174556314Y-90833082D01*
X174342028Y-90833082D01*
X174336924Y-90833584D01*
X174334737Y-90833259D01*
X174323786Y-90834878D01*
X174312764Y-90835964D01*
X174310719Y-90836811D01*
X174305648Y-90837561D01*
X174019934Y-90908989D01*
X174017775Y-90909760D01*
X174016695Y-90909837D01*
X174004514Y-90914497D01*
X173992243Y-90918882D01*
X173991373Y-90919526D01*
X173989231Y-90920346D01*
X173846375Y-90991775D01*
X173833783Y-90999701D01*
X173830121Y-91001218D01*
X173825998Y-91004601D01*
X173821489Y-91007440D01*
X173818893Y-91010432D01*
X173807391Y-91019873D01*
X173664534Y-91162730D01*
X173645879Y-91185461D01*
X173643816Y-91190440D01*
X173640286Y-91194511D01*
X173628297Y-91221362D01*
X173556869Y-91435648D01*
X173553570Y-91450155D01*
X173552053Y-91453818D01*
X173551530Y-91459126D01*
X173550349Y-91464321D01*
X173550629Y-91468270D01*
X173549171Y-91483082D01*
X173025361Y-91483082D01*
X173025361Y-89554510D01*
X173549171Y-89554510D01*
X173549171Y-89911653D01*
X173550629Y-89926464D01*
X173550349Y-89930414D01*
X173551530Y-89935608D01*
X173552053Y-89940917D01*
X173553570Y-89944579D01*
X173556869Y-89959087D01*
X173628297Y-90173373D01*
X173640286Y-90200224D01*
X173643816Y-90204294D01*
X173645879Y-90209274D01*
X173664534Y-90232005D01*
X173807391Y-90374862D01*
X173818893Y-90384302D01*
X173821489Y-90387295D01*
X173825998Y-90390133D01*
X173830121Y-90393517D01*
X173833783Y-90395033D01*
X173846375Y-90402960D01*
X173989231Y-90474389D01*
X173991373Y-90475208D01*
X173992243Y-90475853D01*
X174004514Y-90480237D01*
X174016695Y-90484898D01*
X174017775Y-90484974D01*
X174019934Y-90485746D01*
X174305648Y-90557174D01*
X174310719Y-90557923D01*
X174312764Y-90558771D01*
X174323786Y-90559856D01*
X174334737Y-90561476D01*
X174336924Y-90561150D01*
X174342028Y-90561653D01*
X174556314Y-90561653D01*
X174561417Y-90561150D01*
X174563605Y-90561476D01*
X174574555Y-90559856D01*
X174585578Y-90558771D01*
X174587622Y-90557923D01*
X174592694Y-90557174D01*
X174878408Y-90485746D01*
X174880566Y-90484974D01*
X174881647Y-90484898D01*
X174893821Y-90480239D01*
X174906099Y-90475853D01*
X174906969Y-90475208D01*
X174909110Y-90474389D01*
X175051967Y-90402960D01*
X175064560Y-90395032D01*
X175068220Y-90393517D01*
X175072339Y-90390135D01*
X175076853Y-90387295D01*
X175079449Y-90384301D01*
X175090951Y-90374862D01*
X175233808Y-90232005D01*
X175252463Y-90209275D01*
X175254526Y-90204293D01*
X175258056Y-90200224D01*
X175270044Y-90173373D01*
X175341473Y-89959088D01*
X175344772Y-89944578D01*
X175346289Y-89940917D01*
X175346811Y-89935608D01*
X175347993Y-89930414D01*
X175347712Y-89926464D01*
X175349171Y-89911653D01*
X175349171Y-89554510D01*
X175346289Y-89525246D01*
X175323891Y-89471174D01*
X175282507Y-89429790D01*
X175228435Y-89407392D01*
X175199171Y-89404510D01*
X173699171Y-89404510D01*
X173669907Y-89407392D01*
X173615835Y-89429790D01*
X173574451Y-89471174D01*
X173552053Y-89525246D01*
X173549171Y-89554510D01*
X173025361Y-89554510D01*
X173025361Y-89237843D01*
X175587267Y-89237843D01*
X175587267Y-101512858D01*
G37*
G36*
X192187769Y-107003361D02*
G01*
X192288376Y-107103968D01*
X192341555Y-107210327D01*
X192404511Y-107462148D01*
X192404511Y-107639507D01*
X192341555Y-107891328D01*
X192288376Y-107997688D01*
X192187770Y-108098294D01*
X192030168Y-108150828D01*
X191847368Y-108150828D01*
X191847368Y-106950828D01*
X192030171Y-106950828D01*
X192187769Y-107003361D01*
G37*
G36*
X193822800Y-106995535D02*
G01*
X193919066Y-107091801D01*
X193975940Y-107319292D01*
X193975940Y-107782363D01*
X193919066Y-108009854D01*
X193822799Y-108106122D01*
X193733387Y-108150828D01*
X193518493Y-108150828D01*
X193429079Y-108106121D01*
X193332812Y-108009854D01*
X193275940Y-107782364D01*
X193275940Y-107319291D01*
X193332812Y-107091802D01*
X193429079Y-106995534D01*
X193518493Y-106950828D01*
X193733387Y-106950828D01*
X193822800Y-106995535D01*
G37*
G36*
X200584287Y-108617495D02*
G01*
X184237843Y-108617495D01*
X184237843Y-106800828D01*
X184404510Y-106800828D01*
X184404510Y-108300828D01*
X184407392Y-108330092D01*
X184429790Y-108384164D01*
X184471174Y-108425548D01*
X184525246Y-108447946D01*
X184583774Y-108447946D01*
X184637846Y-108425548D01*
X184679230Y-108384164D01*
X184701628Y-108330092D01*
X184704510Y-108300828D01*
X184704510Y-107476961D01*
X184918583Y-107935690D01*
X184924929Y-107946403D01*
X184926250Y-107950035D01*
X184928601Y-107952603D01*
X184933570Y-107960990D01*
X184950375Y-107976380D01*
X184965777Y-107993198D01*
X184971820Y-107996018D01*
X184976733Y-108000517D01*
X184998153Y-108008306D01*
X185018815Y-108017948D01*
X185025472Y-108018240D01*
X185031735Y-108020518D01*
X185054514Y-108019517D01*
X185077285Y-108020518D01*
X185083544Y-108018241D01*
X185090206Y-108017949D01*
X185110873Y-108008304D01*
X185132288Y-108000517D01*
X185137201Y-107996017D01*
X185143243Y-107993198D01*
X185158638Y-107976385D01*
X185175451Y-107960990D01*
X185180419Y-107952601D01*
X185182770Y-107950035D01*
X185184089Y-107946405D01*
X185190437Y-107935690D01*
X185404510Y-107476962D01*
X185404510Y-108300828D01*
X185407392Y-108330092D01*
X185429790Y-108384164D01*
X185471174Y-108425548D01*
X185525246Y-108447946D01*
X185583774Y-108447946D01*
X185637846Y-108425548D01*
X185679230Y-108384164D01*
X185701628Y-108330092D01*
X185704510Y-108300828D01*
X185704510Y-107443685D01*
X186047368Y-107443685D01*
X186047368Y-107657971D01*
X186047870Y-107663074D01*
X186047545Y-107665262D01*
X186049164Y-107676212D01*
X186050250Y-107687235D01*
X186051097Y-107689279D01*
X186051847Y-107694351D01*
X186123275Y-107980065D01*
X186124046Y-107982223D01*
X186124123Y-107983304D01*
X186128781Y-107995478D01*
X186133168Y-108007756D01*
X186133812Y-108008626D01*
X186134632Y-108010767D01*
X186206061Y-108153624D01*
X186213988Y-108166217D01*
X186215504Y-108169877D01*
X186218885Y-108173996D01*
X186221726Y-108178510D01*
X186224719Y-108181106D01*
X186234159Y-108192608D01*
X186377016Y-108335466D01*
X186399746Y-108354121D01*
X186404725Y-108356183D01*
X186408797Y-108359715D01*
X186435648Y-108371703D01*
X186649934Y-108443131D01*
X186664446Y-108446430D01*
X186668104Y-108447946D01*
X186673406Y-108448468D01*
X186678608Y-108449651D01*
X186682562Y-108449369D01*
X186697368Y-108450828D01*
X186840225Y-108450828D01*
X186855030Y-108449369D01*
X186858985Y-108449651D01*
X186864186Y-108448468D01*
X186869489Y-108447946D01*
X186873146Y-108446430D01*
X186887659Y-108443131D01*
X187101945Y-108371703D01*
X187128796Y-108359715D01*
X187132869Y-108356181D01*
X187137847Y-108354120D01*
X187160578Y-108335465D01*
X187232006Y-108264036D01*
X187250660Y-108241306D01*
X187273057Y-108187233D01*
X187273056Y-108128707D01*
X187250659Y-108074635D01*
X187209273Y-108033250D01*
X187155201Y-108010853D01*
X187096675Y-108010854D01*
X187042603Y-108033251D01*
X187019872Y-108051906D01*
X186973484Y-108098294D01*
X186815882Y-108150828D01*
X186721711Y-108150828D01*
X186564108Y-108098294D01*
X186463503Y-107997688D01*
X186410322Y-107891328D01*
X186347368Y-107639507D01*
X186347368Y-107462148D01*
X186410322Y-107210327D01*
X186463503Y-107103967D01*
X186564109Y-107003361D01*
X186721711Y-106950828D01*
X186815885Y-106950828D01*
X186973483Y-107003361D01*
X187019873Y-107049751D01*
X187042603Y-107068406D01*
X187096676Y-107090802D01*
X187155202Y-107090802D01*
X187209274Y-107068406D01*
X187250660Y-107027020D01*
X187273056Y-106972948D01*
X187273056Y-106914422D01*
X187250660Y-106860349D01*
X187232005Y-106837619D01*
X187195214Y-106800828D01*
X187618796Y-106800828D01*
X187618796Y-108015114D01*
X187621678Y-108044378D01*
X187623741Y-108049358D01*
X187624123Y-108054733D01*
X187634632Y-108082196D01*
X187706061Y-108225053D01*
X187713988Y-108237646D01*
X187715504Y-108241306D01*
X187718885Y-108245425D01*
X187721726Y-108249939D01*
X187724719Y-108252535D01*
X187734159Y-108264037D01*
X187805588Y-108335466D01*
X187817092Y-108344907D01*
X187819687Y-108347899D01*
X187824196Y-108350737D01*
X187828319Y-108354121D01*
X187831980Y-108355637D01*
X187844572Y-108363564D01*
X187987430Y-108434992D01*
X188014893Y-108445502D01*
X188020268Y-108445883D01*
X188025247Y-108447946D01*
X188054511Y-108450828D01*
X188340225Y-108450828D01*
X188369489Y-108447946D01*
X188374467Y-108445883D01*
X188379843Y-108445502D01*
X188407307Y-108434992D01*
X188550164Y-108363564D01*
X188562757Y-108355636D01*
X188566417Y-108354121D01*
X188570536Y-108350739D01*
X188575050Y-108347899D01*
X188577646Y-108344905D01*
X188589148Y-108335466D01*
X188660577Y-108264037D01*
X188670018Y-108252532D01*
X188673010Y-108249938D01*
X188675848Y-108245428D01*
X188679232Y-108241306D01*
X188680748Y-108237644D01*
X188688675Y-108225053D01*
X188760103Y-108082195D01*
X188770613Y-108054732D01*
X188770994Y-108049356D01*
X188773057Y-108044378D01*
X188775939Y-108015114D01*
X188775939Y-106800828D01*
X190333082Y-106800828D01*
X190333082Y-108300828D01*
X190335964Y-108330090D01*
X190335964Y-108330092D01*
X190358362Y-108384164D01*
X190399746Y-108425548D01*
X190453818Y-108447946D01*
X190483082Y-108450828D01*
X191197368Y-108450828D01*
X191226632Y-108447946D01*
X191280704Y-108425548D01*
X191322088Y-108384164D01*
X191344486Y-108330092D01*
X191344486Y-108271564D01*
X191322088Y-108217492D01*
X191280704Y-108176108D01*
X191226632Y-108153710D01*
X191197368Y-108150828D01*
X190633082Y-108150828D01*
X190633082Y-106800828D01*
X191547368Y-106800828D01*
X191547368Y-108300828D01*
X191550250Y-108330090D01*
X191550250Y-108330092D01*
X191572648Y-108384164D01*
X191614032Y-108425548D01*
X191668104Y-108447946D01*
X191697368Y-108450828D01*
X192054511Y-108450828D01*
X192069316Y-108449369D01*
X192073271Y-108449651D01*
X192078472Y-108448468D01*
X192083775Y-108447946D01*
X192087432Y-108446430D01*
X192101945Y-108443131D01*
X192316231Y-108371703D01*
X192343082Y-108359715D01*
X192347153Y-108356183D01*
X192352133Y-108354121D01*
X192374863Y-108335466D01*
X192517720Y-108192608D01*
X192527158Y-108181106D01*
X192530153Y-108178510D01*
X192532993Y-108173996D01*
X192536375Y-108169877D01*
X192537890Y-108166217D01*
X192545818Y-108153624D01*
X192617247Y-108010768D01*
X192618066Y-108008625D01*
X192618711Y-108007756D01*
X192623095Y-107995484D01*
X192627756Y-107983304D01*
X192627832Y-107982223D01*
X192628604Y-107980065D01*
X192700032Y-107694351D01*
X192700781Y-107689279D01*
X192701629Y-107687235D01*
X192702714Y-107676212D01*
X192704334Y-107665262D01*
X192704008Y-107663074D01*
X192704511Y-107657971D01*
X192704511Y-107443685D01*
X192704008Y-107438581D01*
X192704334Y-107436394D01*
X192702714Y-107425443D01*
X192701629Y-107414421D01*
X192700781Y-107412376D01*
X192700032Y-107407305D01*
X192673413Y-107300828D01*
X192975940Y-107300828D01*
X192975940Y-107800828D01*
X192976442Y-107805931D01*
X192976117Y-107808119D01*
X192977736Y-107819069D01*
X192978822Y-107830092D01*
X192979669Y-107832136D01*
X192980419Y-107837208D01*
X193051847Y-108122922D01*
X193061740Y-108150613D01*
X193068379Y-108159573D01*
X193072647Y-108169877D01*
X193091302Y-108192608D01*
X193234160Y-108335466D01*
X193245664Y-108344907D01*
X193248259Y-108347899D01*
X193252768Y-108350737D01*
X193256891Y-108354121D01*
X193260552Y-108355637D01*
X193273144Y-108363564D01*
X193416002Y-108434992D01*
X193443465Y-108445502D01*
X193448840Y-108445883D01*
X193453819Y-108447946D01*
X193483083Y-108450828D01*
X193768797Y-108450828D01*
X193798061Y-108447946D01*
X193803039Y-108445883D01*
X193808415Y-108445502D01*
X193835879Y-108434992D01*
X193978736Y-108363564D01*
X193991327Y-108355637D01*
X193994990Y-108354121D01*
X193999112Y-108350737D01*
X194003622Y-108347899D01*
X194006217Y-108344906D01*
X194017720Y-108335466D01*
X194160577Y-108192608D01*
X194179232Y-108169877D01*
X194183498Y-108159575D01*
X194190139Y-108150614D01*
X194200032Y-108122923D01*
X194271461Y-107837209D01*
X194272211Y-107832136D01*
X194273058Y-107830092D01*
X194274143Y-107819072D01*
X194275763Y-107808120D01*
X194275437Y-107805931D01*
X194275940Y-107800828D01*
X194275940Y-107300828D01*
X194275437Y-107295724D01*
X194275763Y-107293536D01*
X194274143Y-107282583D01*
X194273058Y-107271564D01*
X194272211Y-107269519D01*
X194271461Y-107264447D01*
X194200032Y-106978733D01*
X194190139Y-106951042D01*
X194183499Y-106942081D01*
X194179232Y-106931778D01*
X194160577Y-106909048D01*
X194023093Y-106771564D01*
X195621679Y-106771564D01*
X195621679Y-106830092D01*
X195644077Y-106884164D01*
X195685461Y-106925548D01*
X195739533Y-106947946D01*
X195768797Y-106950828D01*
X196366804Y-106950828D01*
X196084482Y-107273481D01*
X196075438Y-107286131D01*
X196072649Y-107288921D01*
X196071552Y-107291566D01*
X196067381Y-107297403D01*
X196059574Y-107320484D01*
X196050251Y-107342993D01*
X196050251Y-107348052D01*
X196048630Y-107352845D01*
X196050251Y-107377154D01*
X196050251Y-107401521D01*
X196052187Y-107406196D01*
X196052524Y-107411241D01*
X196063322Y-107433076D01*
X196072649Y-107455593D01*
X196076225Y-107459169D01*
X196078468Y-107463704D01*
X196096803Y-107479747D01*
X196114033Y-107496977D01*
X196118707Y-107498913D01*
X196122515Y-107502245D01*
X196145596Y-107510051D01*
X196168105Y-107519375D01*
X196175242Y-107520077D01*
X196177957Y-107520996D01*
X196181896Y-107520733D01*
X196197369Y-107522257D01*
X196376245Y-107522257D01*
X196465658Y-107566963D01*
X196502661Y-107603967D01*
X196547369Y-107693381D01*
X196547369Y-107979703D01*
X196502661Y-108069117D01*
X196465658Y-108106121D01*
X196376245Y-108150828D01*
X196018493Y-108150828D01*
X195929079Y-108106121D01*
X195874863Y-108051905D01*
X195852132Y-108033250D01*
X195798060Y-108010853D01*
X195739534Y-108010853D01*
X195685462Y-108033250D01*
X195644076Y-108074636D01*
X195621679Y-108128708D01*
X195621679Y-108187234D01*
X195644076Y-108241306D01*
X195662731Y-108264037D01*
X195734160Y-108335466D01*
X195745664Y-108344907D01*
X195748259Y-108347899D01*
X195752768Y-108350737D01*
X195756891Y-108354121D01*
X195760552Y-108355637D01*
X195773144Y-108363564D01*
X195916002Y-108434992D01*
X195943465Y-108445502D01*
X195948840Y-108445883D01*
X195953819Y-108447946D01*
X195983083Y-108450828D01*
X196411654Y-108450828D01*
X196440918Y-108447946D01*
X196445896Y-108445883D01*
X196451272Y-108445502D01*
X196478735Y-108434992D01*
X196621594Y-108363564D01*
X196634188Y-108355635D01*
X196637848Y-108354120D01*
X196641968Y-108350738D01*
X196646479Y-108347899D01*
X196649073Y-108344907D01*
X196660579Y-108335465D01*
X196732007Y-108264036D01*
X196741445Y-108252535D01*
X196744439Y-108249939D01*
X196747279Y-108245426D01*
X196750661Y-108241306D01*
X196752176Y-108237646D01*
X196760104Y-108225053D01*
X196772562Y-108200138D01*
X197121679Y-108200138D01*
X197121679Y-108258664D01*
X197123905Y-108264037D01*
X197144076Y-108312735D01*
X197162731Y-108335466D01*
X197234159Y-108406894D01*
X197256889Y-108425549D01*
X197279286Y-108434825D01*
X197310961Y-108447946D01*
X197369489Y-108447946D01*
X197410056Y-108431142D01*
X197423560Y-108425549D01*
X197423564Y-108425544D01*
X197446290Y-108406895D01*
X197517719Y-108335467D01*
X197536374Y-108312736D01*
X197536375Y-108312735D01*
X197558772Y-108258663D01*
X197558772Y-108200137D01*
X197536375Y-108146065D01*
X197517720Y-108123334D01*
X197446291Y-108051905D01*
X197423560Y-108033250D01*
X197391886Y-108020130D01*
X197369489Y-108010853D01*
X197310961Y-108010853D01*
X197288564Y-108020130D01*
X197256890Y-108033250D01*
X197256889Y-108033251D01*
X197234158Y-108051906D01*
X197162730Y-108123335D01*
X197144080Y-108146060D01*
X197144076Y-108146065D01*
X197123906Y-108194762D01*
X197121679Y-108200138D01*
X196772562Y-108200138D01*
X196831533Y-108082197D01*
X196842042Y-108054733D01*
X196842423Y-108049358D01*
X196844487Y-108044378D01*
X196847369Y-108015114D01*
X196847369Y-107657971D01*
X196844487Y-107628707D01*
X196842423Y-107623726D01*
X196842042Y-107618352D01*
X196831533Y-107590888D01*
X196760104Y-107448032D01*
X196752176Y-107435438D01*
X196750661Y-107431779D01*
X196747279Y-107427658D01*
X196744439Y-107423146D01*
X196741445Y-107420549D01*
X196732007Y-107409049D01*
X196660579Y-107337620D01*
X196649073Y-107328177D01*
X196646479Y-107325186D01*
X196641968Y-107322346D01*
X196637848Y-107318965D01*
X196634188Y-107317449D01*
X196621594Y-107309521D01*
X196503321Y-107250386D01*
X196810255Y-106899604D01*
X196819298Y-106886954D01*
X196822089Y-106884164D01*
X196823184Y-106881519D01*
X196827357Y-106875683D01*
X196835162Y-106852603D01*
X196844487Y-106830092D01*
X196844487Y-106825030D01*
X196846107Y-106820240D01*
X196844487Y-106795939D01*
X196844487Y-106771564D01*
X197764536Y-106771564D01*
X197764536Y-106830092D01*
X197786934Y-106884164D01*
X197828318Y-106925548D01*
X197882390Y-106947946D01*
X197911654Y-106950828D01*
X198509661Y-106950828D01*
X198227339Y-107273481D01*
X198218295Y-107286131D01*
X198215506Y-107288921D01*
X198214409Y-107291566D01*
X198210238Y-107297403D01*
X198202431Y-107320484D01*
X198193108Y-107342993D01*
X198193108Y-107348052D01*
X198191487Y-107352845D01*
X198193108Y-107377154D01*
X198193108Y-107401521D01*
X198195044Y-107406196D01*
X198195381Y-107411241D01*
X198206179Y-107433076D01*
X198215506Y-107455593D01*
X198219082Y-107459169D01*
X198221325Y-107463704D01*
X198239660Y-107479747D01*
X198256890Y-107496977D01*
X198261564Y-107498913D01*
X198265372Y-107502245D01*
X198288453Y-107510051D01*
X198310962Y-107519375D01*
X198318099Y-107520077D01*
X198320814Y-107520996D01*
X198324753Y-107520733D01*
X198340226Y-107522257D01*
X198519102Y-107522257D01*
X198608515Y-107566963D01*
X198645518Y-107603967D01*
X198690226Y-107693381D01*
X198690226Y-107979703D01*
X198645518Y-108069117D01*
X198608515Y-108106121D01*
X198519102Y-108150828D01*
X198161350Y-108150828D01*
X198071936Y-108106121D01*
X198017720Y-108051905D01*
X197994989Y-108033250D01*
X197940917Y-108010853D01*
X197882391Y-108010853D01*
X197828319Y-108033250D01*
X197786933Y-108074636D01*
X197764536Y-108128708D01*
X197764536Y-108187234D01*
X197786933Y-108241306D01*
X197805588Y-108264037D01*
X197877017Y-108335466D01*
X197888521Y-108344907D01*
X197891116Y-108347899D01*
X197895625Y-108350737D01*
X197899748Y-108354121D01*
X197903409Y-108355637D01*
X197916001Y-108363564D01*
X198058859Y-108434992D01*
X198086322Y-108445502D01*
X198091697Y-108445883D01*
X198096676Y-108447946D01*
X198125940Y-108450828D01*
X198554511Y-108450828D01*
X198583775Y-108447946D01*
X198588753Y-108445883D01*
X198594129Y-108445502D01*
X198621592Y-108434992D01*
X198764451Y-108363564D01*
X198777045Y-108355635D01*
X198780705Y-108354120D01*
X198784825Y-108350738D01*
X198789336Y-108347899D01*
X198791930Y-108344907D01*
X198803436Y-108335465D01*
X198874864Y-108264036D01*
X198884302Y-108252535D01*
X198887296Y-108249939D01*
X198890136Y-108245426D01*
X198893518Y-108241306D01*
X198895033Y-108237646D01*
X198902961Y-108225053D01*
X198974390Y-108082197D01*
X198984899Y-108054733D01*
X198985280Y-108049358D01*
X198987344Y-108044378D01*
X198990226Y-108015114D01*
X198990226Y-107657971D01*
X198987344Y-107628707D01*
X198985280Y-107623726D01*
X198984899Y-107618352D01*
X198974390Y-107590888D01*
X198902961Y-107448032D01*
X198895033Y-107435438D01*
X198893518Y-107431779D01*
X198890136Y-107427658D01*
X198887296Y-107423146D01*
X198884302Y-107420549D01*
X198874864Y-107409049D01*
X198803436Y-107337620D01*
X198791930Y-107328177D01*
X198789336Y-107325186D01*
X198784825Y-107322346D01*
X198780705Y-107318965D01*
X198777045Y-107317449D01*
X198764451Y-107309521D01*
X198646178Y-107250386D01*
X198953112Y-106899604D01*
X198962155Y-106886954D01*
X198964946Y-106884164D01*
X198966041Y-106881519D01*
X198970214Y-106875683D01*
X198978019Y-106852603D01*
X198987344Y-106830092D01*
X198987344Y-106825030D01*
X198988964Y-106820240D01*
X198988921Y-106819589D01*
X199119975Y-106819589D01*
X199126495Y-106848262D01*
X199626495Y-108348262D01*
X199638483Y-108375113D01*
X199645505Y-108383210D01*
X199650298Y-108392795D01*
X199664504Y-108405116D01*
X199676830Y-108419328D01*
X199686417Y-108424121D01*
X199694512Y-108431142D01*
X199712354Y-108437089D01*
X199729178Y-108445501D01*
X199739868Y-108446260D01*
X199750036Y-108449650D01*
X199768792Y-108448317D01*
X199787558Y-108449651D01*
X199797728Y-108446260D01*
X199808417Y-108445501D01*
X199825238Y-108437090D01*
X199843082Y-108431142D01*
X199851178Y-108424119D01*
X199860764Y-108419327D01*
X199873087Y-108405118D01*
X199887296Y-108392795D01*
X199892088Y-108383209D01*
X199899111Y-108375113D01*
X199911099Y-108348262D01*
X200411100Y-106848262D01*
X200417620Y-106819588D01*
X200413470Y-106761208D01*
X200387296Y-106708861D01*
X200343082Y-106670514D01*
X200287558Y-106652005D01*
X200229178Y-106656155D01*
X200176830Y-106682328D01*
X200138483Y-106726543D01*
X200126495Y-106753394D01*
X199768797Y-107826486D01*
X199411099Y-106753394D01*
X199399111Y-106726543D01*
X199360764Y-106682329D01*
X199308417Y-106656155D01*
X199250036Y-106652006D01*
X199194512Y-106670514D01*
X199150298Y-106708861D01*
X199124124Y-106761208D01*
X199119975Y-106819589D01*
X198988921Y-106819589D01*
X198987344Y-106795939D01*
X198987344Y-106771564D01*
X198985407Y-106766888D01*
X198985071Y-106761844D01*
X198974272Y-106740008D01*
X198964946Y-106717492D01*
X198961369Y-106713915D01*
X198959127Y-106709381D01*
X198940791Y-106693337D01*
X198923562Y-106676108D01*
X198918887Y-106674171D01*
X198915080Y-106670840D01*
X198892004Y-106663036D01*
X198869490Y-106653710D01*
X198862348Y-106653006D01*
X198859638Y-106652090D01*
X198855703Y-106652352D01*
X198840226Y-106650828D01*
X197911654Y-106650828D01*
X197882390Y-106653710D01*
X197828318Y-106676108D01*
X197786934Y-106717492D01*
X197764536Y-106771564D01*
X196844487Y-106771564D01*
X196842550Y-106766888D01*
X196842214Y-106761844D01*
X196831415Y-106740008D01*
X196822089Y-106717492D01*
X196818512Y-106713915D01*
X196816270Y-106709381D01*
X196797934Y-106693337D01*
X196780705Y-106676108D01*
X196776030Y-106674171D01*
X196772223Y-106670840D01*
X196749147Y-106663036D01*
X196726633Y-106653710D01*
X196719491Y-106653006D01*
X196716781Y-106652090D01*
X196712846Y-106652352D01*
X196697369Y-106650828D01*
X195768797Y-106650828D01*
X195739533Y-106653710D01*
X195685461Y-106676108D01*
X195644077Y-106717492D01*
X195621679Y-106771564D01*
X194023093Y-106771564D01*
X194017720Y-106766191D01*
X194006218Y-106756751D01*
X194003622Y-106753758D01*
X193999108Y-106750917D01*
X193994989Y-106747536D01*
X193991329Y-106746020D01*
X193978736Y-106738093D01*
X193835879Y-106666664D01*
X193808416Y-106656155D01*
X193803041Y-106655773D01*
X193798061Y-106653710D01*
X193768797Y-106650828D01*
X193483083Y-106650828D01*
X193453819Y-106653710D01*
X193448838Y-106655773D01*
X193443464Y-106656155D01*
X193416000Y-106666664D01*
X193273144Y-106738093D01*
X193260550Y-106746020D01*
X193256891Y-106747536D01*
X193252771Y-106750917D01*
X193248258Y-106753758D01*
X193245661Y-106756752D01*
X193234160Y-106766191D01*
X193091302Y-106909048D01*
X193072647Y-106931778D01*
X193068378Y-106942083D01*
X193061740Y-106951043D01*
X193051847Y-106978734D01*
X192980419Y-107264448D01*
X192979669Y-107269519D01*
X192978822Y-107271564D01*
X192977736Y-107282586D01*
X192976117Y-107293537D01*
X192976442Y-107295724D01*
X192975940Y-107300828D01*
X192673413Y-107300828D01*
X192628604Y-107121591D01*
X192627832Y-107119432D01*
X192627756Y-107118352D01*
X192623095Y-107106171D01*
X192618711Y-107093900D01*
X192618066Y-107093030D01*
X192617247Y-107090888D01*
X192545818Y-106948032D01*
X192537891Y-106935440D01*
X192536375Y-106931778D01*
X192532991Y-106927655D01*
X192530153Y-106923146D01*
X192527160Y-106920550D01*
X192517720Y-106909048D01*
X192374863Y-106766191D01*
X192352132Y-106747536D01*
X192347152Y-106745473D01*
X192343082Y-106741943D01*
X192316231Y-106729954D01*
X192101945Y-106658526D01*
X192087437Y-106655227D01*
X192083775Y-106653710D01*
X192078466Y-106653187D01*
X192073272Y-106652006D01*
X192069322Y-106652286D01*
X192054511Y-106650828D01*
X191697368Y-106650828D01*
X191668104Y-106653710D01*
X191614032Y-106676108D01*
X191572648Y-106717492D01*
X191550250Y-106771564D01*
X191547368Y-106800828D01*
X190633082Y-106800828D01*
X190630200Y-106771564D01*
X190607802Y-106717492D01*
X190566418Y-106676108D01*
X190512346Y-106653710D01*
X190453818Y-106653710D01*
X190399746Y-106676108D01*
X190358362Y-106717492D01*
X190335964Y-106771564D01*
X190333082Y-106800828D01*
X188775939Y-106800828D01*
X188773057Y-106771564D01*
X188750659Y-106717492D01*
X188709275Y-106676108D01*
X188655203Y-106653710D01*
X188596675Y-106653710D01*
X188542603Y-106676108D01*
X188501219Y-106717492D01*
X188478821Y-106771564D01*
X188475939Y-106800828D01*
X188475939Y-107979704D01*
X188431232Y-108069117D01*
X188394227Y-108106122D01*
X188304815Y-108150828D01*
X188089921Y-108150828D01*
X188000507Y-108106121D01*
X187963503Y-108069117D01*
X187918796Y-107979703D01*
X187918796Y-106800828D01*
X187915914Y-106771564D01*
X187893516Y-106717492D01*
X187852132Y-106676108D01*
X187798060Y-106653710D01*
X187739532Y-106653710D01*
X187685460Y-106676108D01*
X187644076Y-106717492D01*
X187621678Y-106771564D01*
X187618796Y-106800828D01*
X187195214Y-106800828D01*
X187160577Y-106766191D01*
X187137846Y-106747536D01*
X187132866Y-106745473D01*
X187128796Y-106741943D01*
X187101945Y-106729954D01*
X186887659Y-106658526D01*
X186873151Y-106655227D01*
X186869489Y-106653710D01*
X186864180Y-106653187D01*
X186858986Y-106652006D01*
X186855036Y-106652286D01*
X186840225Y-106650828D01*
X186697368Y-106650828D01*
X186682556Y-106652286D01*
X186678607Y-106652006D01*
X186673412Y-106653187D01*
X186668104Y-106653710D01*
X186664442Y-106655226D01*
X186649933Y-106658526D01*
X186435648Y-106729955D01*
X186408797Y-106741943D01*
X186404727Y-106745472D01*
X186399746Y-106747536D01*
X186377016Y-106766191D01*
X186234159Y-106909048D01*
X186224719Y-106920549D01*
X186221726Y-106923146D01*
X186218885Y-106927659D01*
X186215504Y-106931779D01*
X186213988Y-106935438D01*
X186206061Y-106948032D01*
X186134632Y-107090889D01*
X186133812Y-107093029D01*
X186133168Y-107093900D01*
X186128781Y-107106177D01*
X186124123Y-107118352D01*
X186124046Y-107119432D01*
X186123275Y-107121591D01*
X186051847Y-107407305D01*
X186051097Y-107412376D01*
X186050250Y-107414421D01*
X186049164Y-107425443D01*
X186047545Y-107436394D01*
X186047870Y-107438581D01*
X186047368Y-107443685D01*
X185704510Y-107443685D01*
X185704510Y-106800828D01*
X185702615Y-106781590D01*
X185702771Y-106778052D01*
X185702079Y-106776151D01*
X185701628Y-106771564D01*
X185691667Y-106747518D01*
X185682770Y-106723050D01*
X185680510Y-106720582D01*
X185679230Y-106717492D01*
X185660832Y-106699094D01*
X185643243Y-106679887D01*
X185640209Y-106678471D01*
X185637846Y-106676108D01*
X185613815Y-106666154D01*
X185590206Y-106655136D01*
X185586861Y-106654989D01*
X185583774Y-106653710D01*
X185557750Y-106653710D01*
X185531735Y-106652567D01*
X185528592Y-106653710D01*
X185525246Y-106653710D01*
X185501193Y-106663673D01*
X185476733Y-106672568D01*
X185474265Y-106674827D01*
X185471174Y-106676108D01*
X185452765Y-106694516D01*
X185433570Y-106712095D01*
X185431220Y-106716061D01*
X185429790Y-106717492D01*
X185428434Y-106720764D01*
X185418583Y-106737395D01*
X185054510Y-107517551D01*
X184690437Y-106737395D01*
X184680583Y-106720760D01*
X184679230Y-106717492D01*
X184677801Y-106716063D01*
X184675451Y-106712095D01*
X184656243Y-106694505D01*
X184637846Y-106676108D01*
X184634755Y-106674827D01*
X184632288Y-106672568D01*
X184607822Y-106663671D01*
X184583774Y-106653710D01*
X184580428Y-106653710D01*
X184577285Y-106652567D01*
X184551281Y-106653710D01*
X184525246Y-106653710D01*
X184522155Y-106654990D01*
X184518815Y-106655137D01*
X184495219Y-106666147D01*
X184471174Y-106676108D01*
X184468810Y-106678471D01*
X184465777Y-106679887D01*
X184448187Y-106699094D01*
X184429790Y-106717492D01*
X184428509Y-106720582D01*
X184426250Y-106723050D01*
X184417353Y-106747515D01*
X184407392Y-106771564D01*
X184406940Y-106776152D01*
X184406249Y-106778053D01*
X184406404Y-106781591D01*
X184404510Y-106800828D01*
X184237843Y-106800828D01*
X184237843Y-106484161D01*
X200584287Y-106484161D01*
X200584287Y-108617495D01*
G37*
G36*
X209891328Y-101301300D02*
G01*
X209997688Y-101354481D01*
X210098294Y-101455086D01*
X210150828Y-101612688D01*
X210150828Y-101795489D01*
X208950828Y-101795489D01*
X208950828Y-101612686D01*
X209003361Y-101455087D01*
X209103968Y-101354480D01*
X209210327Y-101301301D01*
X209462149Y-101238346D01*
X209639507Y-101238346D01*
X209891328Y-101301300D01*
G37*
G36*
X210009854Y-96652361D02*
G01*
X210106121Y-96748628D01*
X210150828Y-96838040D01*
X210150828Y-97052935D01*
X210106122Y-97142348D01*
X210009854Y-97238615D01*
X209782364Y-97295488D01*
X209319292Y-97295488D01*
X209091801Y-97238615D01*
X208995535Y-97142349D01*
X208950828Y-97052935D01*
X208950828Y-96838041D01*
X208995535Y-96748627D01*
X209091801Y-96652361D01*
X209319292Y-96595488D01*
X209782363Y-96595488D01*
X210009854Y-96652361D01*
G37*
G36*
X210974638Y-102262156D02*
G01*
X208412733Y-102262156D01*
X208412733Y-101588346D01*
X208650828Y-101588346D01*
X208650828Y-101945489D01*
X208653710Y-101974753D01*
X208676108Y-102028825D01*
X208717492Y-102070209D01*
X208771564Y-102092607D01*
X208800828Y-102095489D01*
X210300828Y-102095489D01*
X210330092Y-102092607D01*
X210384164Y-102070209D01*
X210425548Y-102028825D01*
X210447946Y-101974753D01*
X210450828Y-101945489D01*
X210450828Y-101588346D01*
X210449369Y-101573540D01*
X210449651Y-101569586D01*
X210448468Y-101564384D01*
X210447946Y-101559082D01*
X210446430Y-101555424D01*
X210443131Y-101540912D01*
X210371703Y-101326626D01*
X210359715Y-101299775D01*
X210356183Y-101295703D01*
X210354121Y-101290724D01*
X210335466Y-101267994D01*
X210192608Y-101125137D01*
X210181106Y-101115697D01*
X210178510Y-101112704D01*
X210173996Y-101109863D01*
X210169877Y-101106482D01*
X210166217Y-101104966D01*
X210153624Y-101097039D01*
X210010767Y-101025610D01*
X210008626Y-101024790D01*
X210007756Y-101024146D01*
X209995478Y-101019759D01*
X209983304Y-101015101D01*
X209982223Y-101015024D01*
X209980065Y-101014253D01*
X209694351Y-100942825D01*
X209689279Y-100942075D01*
X209687235Y-100941228D01*
X209676212Y-100940142D01*
X209665262Y-100938523D01*
X209663074Y-100938848D01*
X209657971Y-100938346D01*
X209443685Y-100938346D01*
X209438581Y-100938848D01*
X209436394Y-100938523D01*
X209425443Y-100940142D01*
X209414421Y-100941228D01*
X209412376Y-100942075D01*
X209407305Y-100942825D01*
X209121591Y-101014253D01*
X209119432Y-101015024D01*
X209118352Y-101015101D01*
X209106171Y-101019761D01*
X209093900Y-101024146D01*
X209093030Y-101024790D01*
X209090888Y-101025610D01*
X208948032Y-101097039D01*
X208935440Y-101104965D01*
X208931778Y-101106482D01*
X208927655Y-101109865D01*
X208923146Y-101112704D01*
X208920550Y-101115696D01*
X208909048Y-101125137D01*
X208766191Y-101267994D01*
X208747536Y-101290725D01*
X208745473Y-101295704D01*
X208741943Y-101299775D01*
X208729954Y-101326626D01*
X208658526Y-101540912D01*
X208655227Y-101555419D01*
X208653710Y-101559082D01*
X208653187Y-101564390D01*
X208652006Y-101569585D01*
X208652286Y-101573534D01*
X208650828Y-101588346D01*
X208412733Y-101588346D01*
X208412733Y-99874060D01*
X208650828Y-99874060D01*
X208650828Y-100016917D01*
X208652286Y-100031728D01*
X208652006Y-100035678D01*
X208653187Y-100040872D01*
X208653710Y-100046181D01*
X208655227Y-100049843D01*
X208658526Y-100064351D01*
X208729954Y-100278637D01*
X208741943Y-100305488D01*
X208745473Y-100309558D01*
X208747536Y-100314538D01*
X208766191Y-100337269D01*
X208909048Y-100480126D01*
X208920550Y-100489566D01*
X208923146Y-100492559D01*
X208927655Y-100495397D01*
X208931778Y-100498781D01*
X208935440Y-100500297D01*
X208948032Y-100508224D01*
X209090888Y-100579653D01*
X209093030Y-100580472D01*
X209093900Y-100581117D01*
X209106171Y-100585501D01*
X209118352Y-100590162D01*
X209119432Y-100590238D01*
X209121591Y-100591010D01*
X209407305Y-100662438D01*
X209412376Y-100663187D01*
X209414421Y-100664035D01*
X209425443Y-100665120D01*
X209436394Y-100666740D01*
X209438581Y-100666414D01*
X209443685Y-100666917D01*
X209657971Y-100666917D01*
X209663074Y-100666414D01*
X209665262Y-100666740D01*
X209676212Y-100665120D01*
X209687235Y-100664035D01*
X209689279Y-100663187D01*
X209694351Y-100662438D01*
X209980065Y-100591010D01*
X209982223Y-100590238D01*
X209983304Y-100590162D01*
X209995478Y-100585503D01*
X210007756Y-100581117D01*
X210008626Y-100580472D01*
X210010767Y-100579653D01*
X210153624Y-100508224D01*
X210166217Y-100500296D01*
X210169877Y-100498781D01*
X210173996Y-100495399D01*
X210178510Y-100492559D01*
X210181106Y-100489565D01*
X210192608Y-100480126D01*
X210335466Y-100337269D01*
X210354121Y-100314539D01*
X210356183Y-100309559D01*
X210359715Y-100305488D01*
X210371703Y-100278637D01*
X210443131Y-100064351D01*
X210446430Y-100049838D01*
X210447946Y-100046181D01*
X210448468Y-100040878D01*
X210449651Y-100035677D01*
X210449369Y-100031722D01*
X210450828Y-100016917D01*
X210450828Y-99874060D01*
X210449369Y-99859254D01*
X210449651Y-99855300D01*
X210448468Y-99850098D01*
X210447946Y-99844796D01*
X210446430Y-99841138D01*
X210443131Y-99826626D01*
X210371703Y-99612340D01*
X210359715Y-99585489D01*
X210356181Y-99581414D01*
X210354120Y-99576438D01*
X210335465Y-99553707D01*
X210264036Y-99482279D01*
X210241305Y-99463625D01*
X210187233Y-99441228D01*
X210128707Y-99441228D01*
X210074635Y-99463626D01*
X210033250Y-99505012D01*
X210010853Y-99559084D01*
X210010853Y-99617610D01*
X210033251Y-99671682D01*
X210051906Y-99694413D01*
X210098294Y-99740800D01*
X210150828Y-99898402D01*
X210150828Y-99992574D01*
X210098294Y-100150176D01*
X209997688Y-100250781D01*
X209891328Y-100303962D01*
X209639507Y-100366917D01*
X209462149Y-100366917D01*
X209210327Y-100303961D01*
X209103968Y-100250782D01*
X209003361Y-100150175D01*
X208950828Y-99992576D01*
X208950828Y-99898400D01*
X209003361Y-99740801D01*
X209049751Y-99694412D01*
X209068406Y-99671682D01*
X209090802Y-99617609D01*
X209090802Y-99559083D01*
X209068406Y-99505011D01*
X209027020Y-99463625D01*
X208972948Y-99441229D01*
X208914422Y-99441229D01*
X208860349Y-99463625D01*
X208837619Y-99482280D01*
X208766191Y-99553708D01*
X208747536Y-99576439D01*
X208745473Y-99581418D01*
X208741943Y-99585489D01*
X208729954Y-99612340D01*
X208658526Y-99826626D01*
X208655227Y-99841133D01*
X208653710Y-99844796D01*
X208653187Y-99850104D01*
X208652006Y-99855299D01*
X208652286Y-99859248D01*
X208650828Y-99874060D01*
X208412733Y-99874060D01*
X208412733Y-97874218D01*
X208579400Y-97874218D01*
X208590878Y-97931607D01*
X208623444Y-97980237D01*
X208646195Y-97998868D01*
X210574766Y-99284582D01*
X210600714Y-99298416D01*
X210658129Y-99309774D01*
X210715518Y-99298296D01*
X210764148Y-99265730D01*
X210796613Y-99217031D01*
X210807971Y-99159617D01*
X210796493Y-99102227D01*
X210763927Y-99053597D01*
X210741176Y-99034967D01*
X208812605Y-97749252D01*
X208786657Y-97735418D01*
X208729242Y-97724060D01*
X208671853Y-97735538D01*
X208623223Y-97768104D01*
X208590758Y-97816803D01*
X208579400Y-97874218D01*
X208412733Y-97874218D01*
X208412733Y-96802631D01*
X208650828Y-96802631D01*
X208650828Y-97088345D01*
X208653710Y-97117609D01*
X208655771Y-97122586D01*
X208656154Y-97127964D01*
X208666664Y-97155427D01*
X208738093Y-97298285D01*
X208746020Y-97310878D01*
X208747536Y-97314538D01*
X208750917Y-97318657D01*
X208753758Y-97323171D01*
X208756751Y-97325767D01*
X208766191Y-97337269D01*
X208909048Y-97480126D01*
X208931778Y-97498781D01*
X208942083Y-97503049D01*
X208951043Y-97509688D01*
X208978734Y-97519581D01*
X209264448Y-97591009D01*
X209269519Y-97591758D01*
X209271564Y-97592606D01*
X209282586Y-97593691D01*
X209293537Y-97595311D01*
X209295724Y-97594985D01*
X209300828Y-97595488D01*
X209800828Y-97595488D01*
X209805931Y-97594985D01*
X209808119Y-97595311D01*
X209819069Y-97593691D01*
X209830092Y-97592606D01*
X209832136Y-97591758D01*
X209837208Y-97591009D01*
X210122922Y-97519581D01*
X210150613Y-97509688D01*
X210159573Y-97503048D01*
X210169877Y-97498781D01*
X210192608Y-97480126D01*
X210335466Y-97337269D01*
X210344906Y-97325765D01*
X210347900Y-97323170D01*
X210350738Y-97318660D01*
X210354121Y-97314539D01*
X210355638Y-97310876D01*
X210363564Y-97298284D01*
X210434993Y-97155426D01*
X210445502Y-97127963D01*
X210445883Y-97122587D01*
X210447946Y-97117609D01*
X210450828Y-97088345D01*
X210450828Y-96802631D01*
X210447946Y-96773367D01*
X210445883Y-96768388D01*
X210445502Y-96763013D01*
X210434992Y-96735550D01*
X210363564Y-96592692D01*
X210355638Y-96580101D01*
X210354121Y-96576438D01*
X210350735Y-96572312D01*
X210347899Y-96567807D01*
X210344909Y-96565214D01*
X210335466Y-96553708D01*
X210192608Y-96410851D01*
X210169877Y-96392196D01*
X210159573Y-96387928D01*
X210150613Y-96381289D01*
X210122922Y-96371396D01*
X209837209Y-96299967D01*
X209832136Y-96299216D01*
X209830092Y-96298370D01*
X209819070Y-96297284D01*
X209808119Y-96295665D01*
X209805931Y-96295990D01*
X209800828Y-96295488D01*
X209300828Y-96295488D01*
X209295724Y-96295990D01*
X209293536Y-96295665D01*
X209282583Y-96297284D01*
X209271564Y-96298370D01*
X209269519Y-96299216D01*
X209264447Y-96299967D01*
X208978733Y-96371396D01*
X208951042Y-96381289D01*
X208942081Y-96387928D01*
X208931778Y-96392196D01*
X208909048Y-96410851D01*
X208766191Y-96553708D01*
X208756751Y-96565209D01*
X208753758Y-96567806D01*
X208750917Y-96572319D01*
X208747536Y-96576439D01*
X208746020Y-96580098D01*
X208738093Y-96592692D01*
X208666664Y-96735549D01*
X208656155Y-96763012D01*
X208655773Y-96768386D01*
X208653710Y-96773367D01*
X208650828Y-96802631D01*
X208412733Y-96802631D01*
X208412733Y-94916224D01*
X208653710Y-94916224D01*
X208653710Y-94974752D01*
X208676108Y-95028824D01*
X208717492Y-95070208D01*
X208771564Y-95092606D01*
X208800828Y-95095488D01*
X209979704Y-95095488D01*
X210069116Y-95140193D01*
X210106121Y-95177198D01*
X210150828Y-95266611D01*
X210150828Y-95481506D01*
X210106122Y-95570918D01*
X210069118Y-95607923D01*
X209979704Y-95652631D01*
X208800828Y-95652631D01*
X208771564Y-95655513D01*
X208717492Y-95677911D01*
X208676108Y-95719295D01*
X208653710Y-95773367D01*
X208653710Y-95831895D01*
X208676108Y-95885967D01*
X208717492Y-95927351D01*
X208771564Y-95949749D01*
X208800828Y-95952631D01*
X210015114Y-95952631D01*
X210044378Y-95949749D01*
X210049358Y-95947685D01*
X210054733Y-95947304D01*
X210082196Y-95936795D01*
X210225053Y-95865366D01*
X210237648Y-95857437D01*
X210241305Y-95855923D01*
X210245422Y-95852543D01*
X210249939Y-95849701D01*
X210252536Y-95846706D01*
X210264036Y-95837269D01*
X210335465Y-95765841D01*
X210344904Y-95754338D01*
X210347900Y-95751741D01*
X210350741Y-95747226D01*
X210354120Y-95743110D01*
X210355635Y-95739451D01*
X210363564Y-95726855D01*
X210434993Y-95583997D01*
X210445502Y-95556534D01*
X210445883Y-95551158D01*
X210447946Y-95546180D01*
X210450828Y-95516916D01*
X210450828Y-95231202D01*
X210447946Y-95201938D01*
X210445883Y-95196959D01*
X210445502Y-95191584D01*
X210434992Y-95164121D01*
X210363564Y-95021263D01*
X210355637Y-95008671D01*
X210354121Y-95005010D01*
X210350737Y-95000887D01*
X210347899Y-94996378D01*
X210344907Y-94993783D01*
X210335466Y-94982279D01*
X210264037Y-94910850D01*
X210252535Y-94901410D01*
X210249939Y-94898417D01*
X210245425Y-94895576D01*
X210241306Y-94892195D01*
X210237646Y-94890679D01*
X210225053Y-94882752D01*
X210082196Y-94811324D01*
X210054732Y-94800814D01*
X210049356Y-94800432D01*
X210044378Y-94798370D01*
X210015114Y-94795488D01*
X208800828Y-94795488D01*
X208771564Y-94798370D01*
X208717492Y-94820768D01*
X208676108Y-94862152D01*
X208653710Y-94916224D01*
X208412733Y-94916224D01*
X208412733Y-93588345D01*
X208650828Y-93588345D01*
X208650828Y-94445487D01*
X208653710Y-94474751D01*
X208676108Y-94528823D01*
X208717492Y-94570207D01*
X208771564Y-94592605D01*
X208830092Y-94592605D01*
X208884164Y-94570207D01*
X208925548Y-94528823D01*
X208947946Y-94474751D01*
X208950828Y-94445487D01*
X208950828Y-94166916D01*
X210300828Y-94166916D01*
X210330092Y-94164034D01*
X210384164Y-94141636D01*
X210425548Y-94100252D01*
X210447946Y-94046180D01*
X210447946Y-93987652D01*
X210425548Y-93933580D01*
X210384164Y-93892196D01*
X210330092Y-93869798D01*
X210300828Y-93866916D01*
X208950828Y-93866916D01*
X208950828Y-93588345D01*
X208947946Y-93559081D01*
X208925548Y-93505009D01*
X208884164Y-93463625D01*
X208830092Y-93441227D01*
X208771564Y-93441227D01*
X208717492Y-93463625D01*
X208676108Y-93505009D01*
X208653710Y-93559081D01*
X208650828Y-93588345D01*
X208412733Y-93588345D01*
X208412733Y-91159773D01*
X208650828Y-91159773D01*
X208650828Y-92088345D01*
X208653710Y-92117609D01*
X208676108Y-92171681D01*
X208717492Y-92213065D01*
X208771564Y-92235463D01*
X208830092Y-92235463D01*
X208884164Y-92213065D01*
X208925548Y-92171681D01*
X208947946Y-92117609D01*
X208950828Y-92088345D01*
X208950828Y-91490338D01*
X209273481Y-91772659D01*
X209286130Y-91781702D01*
X209288921Y-91784493D01*
X209291565Y-91785588D01*
X209297402Y-91789761D01*
X209320481Y-91797566D01*
X209342993Y-91806891D01*
X209348055Y-91806891D01*
X209352845Y-91808511D01*
X209377145Y-91806891D01*
X209401521Y-91806891D01*
X209406196Y-91804954D01*
X209411241Y-91804618D01*
X209433076Y-91793819D01*
X209455593Y-91784493D01*
X209459169Y-91780916D01*
X209463704Y-91778674D01*
X209479747Y-91760338D01*
X209496977Y-91743109D01*
X209498913Y-91738434D01*
X209502245Y-91734627D01*
X209510048Y-91711551D01*
X209519375Y-91689037D01*
X209520078Y-91681895D01*
X209520995Y-91679185D01*
X209520732Y-91675250D01*
X209522257Y-91659773D01*
X209522257Y-91480897D01*
X209566962Y-91391485D01*
X209603968Y-91354479D01*
X209693381Y-91309773D01*
X209979704Y-91309773D01*
X210069117Y-91354480D01*
X210106121Y-91391484D01*
X210150828Y-91480897D01*
X210150828Y-91838649D01*
X210106121Y-91928062D01*
X210051905Y-91982279D01*
X210033250Y-92005010D01*
X210010853Y-92059082D01*
X210010853Y-92117608D01*
X210033250Y-92171680D01*
X210074636Y-92213066D01*
X210128708Y-92235463D01*
X210187234Y-92235463D01*
X210241306Y-92213066D01*
X210264037Y-92194411D01*
X210335466Y-92122982D01*
X210344907Y-92111477D01*
X210347899Y-92108883D01*
X210350737Y-92104373D01*
X210354121Y-92100251D01*
X210355637Y-92096589D01*
X210363564Y-92083998D01*
X210434992Y-91941140D01*
X210445502Y-91913677D01*
X210445883Y-91908301D01*
X210447946Y-91903323D01*
X210450828Y-91874059D01*
X210450828Y-91445488D01*
X210447946Y-91416224D01*
X210445883Y-91411245D01*
X210445502Y-91405870D01*
X210434992Y-91378407D01*
X210363564Y-91235549D01*
X210355637Y-91222957D01*
X210354121Y-91219296D01*
X210350737Y-91215173D01*
X210347899Y-91210664D01*
X210344907Y-91208069D01*
X210335466Y-91196565D01*
X210264037Y-91125136D01*
X210252535Y-91115696D01*
X210249939Y-91112703D01*
X210245425Y-91109862D01*
X210241306Y-91106481D01*
X210237646Y-91104965D01*
X210225053Y-91097038D01*
X210082196Y-91025609D01*
X210054733Y-91015100D01*
X210049358Y-91014718D01*
X210044378Y-91012655D01*
X210015114Y-91009773D01*
X209657971Y-91009773D01*
X209628707Y-91012655D01*
X209623726Y-91014718D01*
X209618352Y-91015100D01*
X209590888Y-91025609D01*
X209448032Y-91097038D01*
X209435438Y-91104965D01*
X209431779Y-91106481D01*
X209427659Y-91109862D01*
X209423146Y-91112703D01*
X209420549Y-91115697D01*
X209409048Y-91125136D01*
X209337619Y-91196565D01*
X209328179Y-91208066D01*
X209325186Y-91210663D01*
X209322345Y-91215176D01*
X209318964Y-91219296D01*
X209317448Y-91222955D01*
X209309521Y-91235549D01*
X209250385Y-91353820D01*
X208899604Y-91046886D01*
X208886953Y-91037842D01*
X208884164Y-91035053D01*
X208881518Y-91033956D01*
X208875682Y-91029785D01*
X208852600Y-91021978D01*
X208830092Y-91012655D01*
X208825033Y-91012655D01*
X208820240Y-91011034D01*
X208795931Y-91012655D01*
X208771564Y-91012655D01*
X208766888Y-91014591D01*
X208761844Y-91014928D01*
X208740008Y-91025726D01*
X208717492Y-91035053D01*
X208713915Y-91038629D01*
X208709381Y-91040872D01*
X208693337Y-91059207D01*
X208676108Y-91076437D01*
X208674171Y-91081111D01*
X208670840Y-91084919D01*
X208663033Y-91108000D01*
X208653710Y-91130509D01*
X208653007Y-91137646D01*
X208652089Y-91140361D01*
X208652351Y-91144300D01*
X208650828Y-91159773D01*
X208412733Y-91159773D01*
X208412733Y-89712441D01*
X208652006Y-89712441D01*
X208656155Y-89770822D01*
X208682329Y-89823169D01*
X208726543Y-89861516D01*
X208753394Y-89873504D01*
X209826485Y-90231202D01*
X208753394Y-90588900D01*
X208726543Y-90600888D01*
X208682329Y-90639235D01*
X208656155Y-90691582D01*
X208652006Y-90749963D01*
X208670514Y-90805487D01*
X208708861Y-90849701D01*
X208761208Y-90875875D01*
X208819589Y-90880024D01*
X208848262Y-90873504D01*
X210348262Y-90373504D01*
X210375113Y-90361516D01*
X210383210Y-90354493D01*
X210392795Y-90349701D01*
X210405116Y-90335494D01*
X210419328Y-90323169D01*
X210424121Y-90313581D01*
X210431142Y-90305487D01*
X210437090Y-90287642D01*
X210445501Y-90270821D01*
X210446260Y-90260133D01*
X210449651Y-90249963D01*
X210448317Y-90231202D01*
X210449651Y-90212441D01*
X210446260Y-90202270D01*
X210445501Y-90191583D01*
X210437090Y-90174761D01*
X210431142Y-90156917D01*
X210424121Y-90148822D01*
X210419328Y-90139235D01*
X210405116Y-90126909D01*
X210392795Y-90112703D01*
X210383210Y-90107910D01*
X210375113Y-90100888D01*
X210348262Y-90088900D01*
X208848262Y-89588900D01*
X208819589Y-89582380D01*
X208761208Y-89586529D01*
X208708861Y-89612703D01*
X208670514Y-89656917D01*
X208652006Y-89712441D01*
X208412733Y-89712441D01*
X208412733Y-88445488D01*
X208650828Y-88445488D01*
X208650828Y-89374060D01*
X208653710Y-89403324D01*
X208676108Y-89457396D01*
X208717492Y-89498780D01*
X208771564Y-89521178D01*
X208830092Y-89521178D01*
X208884164Y-89498780D01*
X208925548Y-89457396D01*
X208947946Y-89403324D01*
X208950828Y-89374060D01*
X208950828Y-88776053D01*
X209273481Y-89058374D01*
X209286130Y-89067417D01*
X209288921Y-89070208D01*
X209291565Y-89071303D01*
X209297402Y-89075476D01*
X209320481Y-89083281D01*
X209342993Y-89092606D01*
X209348055Y-89092606D01*
X209352845Y-89094226D01*
X209377145Y-89092606D01*
X209401521Y-89092606D01*
X209406196Y-89090669D01*
X209411241Y-89090333D01*
X209433076Y-89079534D01*
X209455593Y-89070208D01*
X209459169Y-89066631D01*
X209463704Y-89064389D01*
X209479747Y-89046053D01*
X209496977Y-89028824D01*
X209498913Y-89024149D01*
X209502245Y-89020342D01*
X209510048Y-88997266D01*
X209519375Y-88974752D01*
X209520078Y-88967610D01*
X209520995Y-88964900D01*
X209520732Y-88960965D01*
X209522257Y-88945488D01*
X209522257Y-88766612D01*
X209566962Y-88677200D01*
X209603968Y-88640194D01*
X209693381Y-88595488D01*
X209979704Y-88595488D01*
X210069117Y-88640195D01*
X210106121Y-88677199D01*
X210150828Y-88766612D01*
X210150828Y-89124364D01*
X210106121Y-89213777D01*
X210051905Y-89267994D01*
X210033250Y-89290725D01*
X210010853Y-89344797D01*
X210010853Y-89403323D01*
X210033250Y-89457395D01*
X210074636Y-89498781D01*
X210128708Y-89521178D01*
X210187234Y-89521178D01*
X210241306Y-89498781D01*
X210264037Y-89480126D01*
X210335466Y-89408697D01*
X210344907Y-89397192D01*
X210347899Y-89394598D01*
X210350737Y-89390088D01*
X210354121Y-89385966D01*
X210355637Y-89382304D01*
X210363564Y-89369713D01*
X210434992Y-89226855D01*
X210445502Y-89199392D01*
X210445883Y-89194016D01*
X210447946Y-89189038D01*
X210450828Y-89159774D01*
X210450828Y-88731203D01*
X210447946Y-88701939D01*
X210445883Y-88696960D01*
X210445502Y-88691585D01*
X210434992Y-88664122D01*
X210363564Y-88521264D01*
X210355637Y-88508672D01*
X210354121Y-88505011D01*
X210350737Y-88500888D01*
X210347899Y-88496379D01*
X210344907Y-88493784D01*
X210335466Y-88482280D01*
X210264037Y-88410851D01*
X210252535Y-88401411D01*
X210249939Y-88398418D01*
X210245425Y-88395577D01*
X210241306Y-88392196D01*
X210237646Y-88390680D01*
X210225053Y-88382753D01*
X210082196Y-88311324D01*
X210054733Y-88300815D01*
X210049358Y-88300433D01*
X210044378Y-88298370D01*
X210015114Y-88295488D01*
X209657971Y-88295488D01*
X209628707Y-88298370D01*
X209623726Y-88300433D01*
X209618352Y-88300815D01*
X209590888Y-88311324D01*
X209448032Y-88382753D01*
X209435438Y-88390680D01*
X209431779Y-88392196D01*
X209427659Y-88395577D01*
X209423146Y-88398418D01*
X209420549Y-88401412D01*
X209409048Y-88410851D01*
X209337619Y-88482280D01*
X209328179Y-88493781D01*
X209325186Y-88496378D01*
X209322345Y-88500891D01*
X209318964Y-88505011D01*
X209317448Y-88508670D01*
X209309521Y-88521264D01*
X209250385Y-88639535D01*
X208899604Y-88332601D01*
X208886953Y-88323557D01*
X208884164Y-88320768D01*
X208881518Y-88319671D01*
X208875682Y-88315500D01*
X208852600Y-88307693D01*
X208830092Y-88298370D01*
X208825033Y-88298370D01*
X208820240Y-88296749D01*
X208795931Y-88298370D01*
X208771564Y-88298370D01*
X208766888Y-88300306D01*
X208761844Y-88300643D01*
X208740008Y-88311441D01*
X208717492Y-88320768D01*
X208713915Y-88324344D01*
X208709381Y-88326587D01*
X208693337Y-88344922D01*
X208676108Y-88362152D01*
X208674171Y-88366826D01*
X208670840Y-88370634D01*
X208663033Y-88393715D01*
X208653710Y-88416224D01*
X208653007Y-88423361D01*
X208652089Y-88426076D01*
X208652351Y-88430015D01*
X208650828Y-88445488D01*
X208412733Y-88445488D01*
X208412733Y-88128821D01*
X210974638Y-88128821D01*
X210974638Y-102262156D01*
G37*
D11*
G36*
X174348996Y-82239619D02*
G01*
X174170172Y-82239619D01*
X174138595Y-82223830D01*
X174122806Y-82192252D01*
X174122806Y-82156031D01*
X174138594Y-82124454D01*
X174170172Y-82108666D01*
X174348996Y-82108666D01*
X174348996Y-82239619D01*
G37*
G36*
X175253758Y-82239619D02*
G01*
X175122553Y-82239619D01*
X175071851Y-82214268D01*
X175052919Y-82195336D01*
X175027568Y-82144634D01*
X175027568Y-81917936D01*
X175052918Y-81867234D01*
X175071851Y-81848302D01*
X175122553Y-81822952D01*
X175253758Y-81822952D01*
X175253758Y-82239619D01*
G37*
G36*
X176139857Y-81837303D02*
G01*
X175932330Y-81878809D01*
X175932330Y-81870317D01*
X175948118Y-81838740D01*
X175979696Y-81822952D01*
X176111155Y-81822952D01*
X176139857Y-81837303D01*
G37*
G36*
X181301377Y-82239619D02*
G01*
X181170172Y-82239619D01*
X181119470Y-82214268D01*
X181100538Y-82195336D01*
X181075187Y-82144634D01*
X181075187Y-81917936D01*
X181100537Y-81867234D01*
X181119470Y-81848302D01*
X181170172Y-81822952D01*
X181301377Y-81822952D01*
X181301377Y-82239619D01*
G37*
G36*
X182682329Y-82239619D02*
G01*
X182503505Y-82239619D01*
X182471928Y-82223830D01*
X182456139Y-82192252D01*
X182456139Y-82156031D01*
X182471927Y-82124454D01*
X182503505Y-82108666D01*
X182682329Y-82108666D01*
X182682329Y-82239619D01*
G37*
G36*
X183057329Y-82614619D02*
G01*
X172652568Y-82614619D01*
X172652568Y-81364619D01*
X172777568Y-81364619D01*
X172777568Y-82364619D01*
X172779970Y-82389005D01*
X172798634Y-82434065D01*
X172833122Y-82468553D01*
X172878182Y-82487217D01*
X172926954Y-82487217D01*
X172972014Y-82468553D01*
X173006502Y-82434065D01*
X173025166Y-82389005D01*
X173027568Y-82364619D01*
X173027568Y-81928065D01*
X173122628Y-82131765D01*
X173127917Y-82140694D01*
X173129018Y-82143720D01*
X173130977Y-82145860D01*
X173135117Y-82152847D01*
X173149125Y-82165675D01*
X173161958Y-82179688D01*
X173166990Y-82182036D01*
X173171086Y-82185787D01*
X173188936Y-82192278D01*
X173206154Y-82200313D01*
X173211703Y-82200556D01*
X173216923Y-82202455D01*
X173235901Y-82201620D01*
X173254880Y-82202455D01*
X173260099Y-82200556D01*
X173265648Y-82200313D01*
X173282861Y-82192279D01*
X173300717Y-82185787D01*
X173304813Y-82182035D01*
X173309844Y-82179688D01*
X173322674Y-82165677D01*
X173336685Y-82152847D01*
X173340824Y-82145860D01*
X173342784Y-82143720D01*
X173343884Y-82140694D01*
X173349174Y-82131765D01*
X173444234Y-81928064D01*
X173444234Y-82364619D01*
X173446636Y-82389005D01*
X173465300Y-82434065D01*
X173499788Y-82468553D01*
X173544848Y-82487217D01*
X173593620Y-82487217D01*
X173638680Y-82468553D01*
X173673168Y-82434065D01*
X173691832Y-82389005D01*
X173694234Y-82364619D01*
X173694234Y-82126523D01*
X173872806Y-82126523D01*
X173872806Y-82221761D01*
X173875208Y-82246147D01*
X173876926Y-82250296D01*
X173877245Y-82254776D01*
X173886002Y-82277662D01*
X173933621Y-82372901D01*
X173936188Y-82376979D01*
X173936830Y-82378904D01*
X173938908Y-82381300D01*
X173946675Y-82393638D01*
X173958517Y-82403909D01*
X173968786Y-82415749D01*
X173981119Y-82423513D01*
X173983520Y-82425595D01*
X173985447Y-82426237D01*
X173989523Y-82428803D01*
X174084761Y-82476422D01*
X174107647Y-82485180D01*
X174112127Y-82485498D01*
X174116277Y-82487217D01*
X174140663Y-82489619D01*
X174378758Y-82489619D01*
X174403144Y-82487217D01*
X174407292Y-82485498D01*
X174411774Y-82485180D01*
X174428884Y-82478632D01*
X174449610Y-82487217D01*
X174498382Y-82487217D01*
X174543442Y-82468553D01*
X174577930Y-82434065D01*
X174596594Y-82389005D01*
X174598996Y-82364619D01*
X174598996Y-81888428D01*
X174777568Y-81888428D01*
X174777568Y-82174142D01*
X174779970Y-82198528D01*
X174781688Y-82202676D01*
X174782007Y-82207158D01*
X174790765Y-82230044D01*
X174838383Y-82325281D01*
X174844990Y-82335777D01*
X174846253Y-82338825D01*
X174849070Y-82342258D01*
X174851438Y-82346019D01*
X174853932Y-82348182D01*
X174861798Y-82357767D01*
X174909417Y-82405387D01*
X174919005Y-82413256D01*
X174921167Y-82415749D01*
X174924921Y-82418112D01*
X174928358Y-82420933D01*
X174931411Y-82422197D01*
X174941904Y-82428803D01*
X175037142Y-82476422D01*
X175060028Y-82485180D01*
X175064508Y-82485498D01*
X175068658Y-82487217D01*
X175093044Y-82489619D01*
X175283520Y-82489619D01*
X175307906Y-82487217D01*
X175312054Y-82485498D01*
X175316536Y-82485180D01*
X175333646Y-82478632D01*
X175354372Y-82487217D01*
X175403144Y-82487217D01*
X175448204Y-82468553D01*
X175482692Y-82434065D01*
X175501356Y-82389005D01*
X175503758Y-82364619D01*
X175503758Y-81840809D01*
X175682330Y-81840809D01*
X175682330Y-82221761D01*
X175684732Y-82246147D01*
X175686450Y-82250296D01*
X175686769Y-82254776D01*
X175695526Y-82277662D01*
X175743145Y-82372901D01*
X175745712Y-82376979D01*
X175746354Y-82378904D01*
X175748432Y-82381300D01*
X175756199Y-82393638D01*
X175768041Y-82403909D01*
X175778310Y-82415749D01*
X175790643Y-82423513D01*
X175793044Y-82425595D01*
X175794971Y-82426237D01*
X175799047Y-82428803D01*
X175894285Y-82476422D01*
X175917171Y-82485180D01*
X175921651Y-82485498D01*
X175925801Y-82487217D01*
X175950187Y-82489619D01*
X176140663Y-82489619D01*
X176165049Y-82487217D01*
X176169197Y-82485498D01*
X176173679Y-82485180D01*
X176196565Y-82476422D01*
X176291802Y-82428804D01*
X176312540Y-82415749D01*
X176344496Y-82378904D01*
X176359919Y-82332634D01*
X176356461Y-82283984D01*
X176334650Y-82240361D01*
X176297805Y-82208405D01*
X176251534Y-82192982D01*
X176202885Y-82196439D01*
X176179999Y-82205197D01*
X176111155Y-82239619D01*
X175979696Y-82239619D01*
X175948119Y-82223830D01*
X175932330Y-82192252D01*
X175932330Y-82133760D01*
X176308034Y-82058620D01*
X176331475Y-82051482D01*
X176341649Y-82044668D01*
X176352966Y-82039981D01*
X176361718Y-82031228D01*
X176372000Y-82024343D01*
X176378792Y-82014154D01*
X176387454Y-82005493D01*
X176392190Y-81994057D01*
X176399055Y-81983761D01*
X176401431Y-81971748D01*
X176406118Y-81960433D01*
X176408520Y-81936047D01*
X176408520Y-81840809D01*
X176406118Y-81816423D01*
X176404399Y-81812273D01*
X176404081Y-81807793D01*
X176395323Y-81784907D01*
X176347704Y-81689669D01*
X176345137Y-81685592D01*
X176344496Y-81683667D01*
X176342416Y-81681268D01*
X176334650Y-81668932D01*
X176322809Y-81658662D01*
X176312540Y-81646822D01*
X176300202Y-81639055D01*
X176297805Y-81636976D01*
X176295880Y-81636334D01*
X176291802Y-81633767D01*
X176196565Y-81586149D01*
X176173679Y-81577391D01*
X176169197Y-81577072D01*
X176165049Y-81575354D01*
X176140663Y-81572952D01*
X175950187Y-81572952D01*
X175925801Y-81575354D01*
X175921651Y-81577072D01*
X175917171Y-81577391D01*
X175894285Y-81586149D01*
X175799047Y-81633768D01*
X175794970Y-81636334D01*
X175793045Y-81636976D01*
X175790646Y-81639055D01*
X175778310Y-81646822D01*
X175768040Y-81658662D01*
X175756200Y-81668932D01*
X175748433Y-81681269D01*
X175746354Y-81683667D01*
X175745712Y-81685591D01*
X175743145Y-81689670D01*
X175695527Y-81784907D01*
X175686769Y-81807793D01*
X175686450Y-81812274D01*
X175684732Y-81816423D01*
X175682330Y-81840809D01*
X175503758Y-81840809D01*
X175503758Y-81387851D01*
X177303780Y-81387851D01*
X177303780Y-81436625D01*
X177322445Y-81481684D01*
X177337990Y-81500626D01*
X177385608Y-81548245D01*
X177404550Y-81563790D01*
X177404551Y-81563791D01*
X177426668Y-81572952D01*
X177441038Y-81578904D01*
X177404551Y-81594018D01*
X177370063Y-81628506D01*
X177351399Y-81673566D01*
X177348997Y-81697952D01*
X177348997Y-82364619D01*
X177351399Y-82389005D01*
X177370063Y-82434065D01*
X177404551Y-82468553D01*
X177449611Y-82487217D01*
X177498383Y-82487217D01*
X177543443Y-82468553D01*
X177577931Y-82434065D01*
X177596595Y-82389005D01*
X177598997Y-82364619D01*
X177598997Y-81697952D01*
X177825187Y-81697952D01*
X177825187Y-82364619D01*
X177827589Y-82389005D01*
X177846253Y-82434065D01*
X177880741Y-82468553D01*
X177925801Y-82487217D01*
X177974573Y-82487217D01*
X178019633Y-82468553D01*
X178054121Y-82434065D01*
X178072785Y-82389005D01*
X178075187Y-82364619D01*
X178075187Y-81846634D01*
X178122553Y-81822952D01*
X178206393Y-81822952D01*
X178237969Y-81838740D01*
X178253758Y-81870317D01*
X178253758Y-82364619D01*
X178256160Y-82389005D01*
X178274824Y-82434065D01*
X178309312Y-82468553D01*
X178354372Y-82487217D01*
X178403144Y-82487217D01*
X178448204Y-82468553D01*
X178482692Y-82434065D01*
X178501356Y-82389005D01*
X178503758Y-82364619D01*
X178503758Y-81840809D01*
X178501356Y-81816423D01*
X178499637Y-81812273D01*
X178499319Y-81807793D01*
X178490561Y-81784907D01*
X178442942Y-81689669D01*
X178440375Y-81685592D01*
X178439734Y-81683667D01*
X178437654Y-81681268D01*
X178429888Y-81668932D01*
X178418047Y-81658662D01*
X178407778Y-81646822D01*
X178395440Y-81639055D01*
X178393043Y-81636976D01*
X178391118Y-81636334D01*
X178387040Y-81633767D01*
X178291803Y-81586149D01*
X178268917Y-81577391D01*
X178264435Y-81577072D01*
X178260287Y-81575354D01*
X178235901Y-81572952D01*
X178093044Y-81572952D01*
X178068658Y-81575354D01*
X178064508Y-81577072D01*
X178060028Y-81577391D01*
X178037142Y-81586149D01*
X178020223Y-81594608D01*
X178019633Y-81594018D01*
X177974573Y-81575354D01*
X177925801Y-81575354D01*
X177880741Y-81594018D01*
X177846253Y-81628506D01*
X177827589Y-81673566D01*
X177825187Y-81697952D01*
X177598997Y-81697952D01*
X177596595Y-81673566D01*
X177577931Y-81628506D01*
X177543443Y-81594018D01*
X177506955Y-81578904D01*
X177511581Y-81576988D01*
X177543443Y-81563791D01*
X177543448Y-81563785D01*
X177562385Y-81548245D01*
X177610004Y-81500627D01*
X177625549Y-81481685D01*
X177644214Y-81436625D01*
X177644214Y-81387852D01*
X177637428Y-81371468D01*
X177634591Y-81364619D01*
X179491854Y-81364619D01*
X179491854Y-82364619D01*
X179494256Y-82389005D01*
X179512920Y-82434065D01*
X179547408Y-82468553D01*
X179592468Y-82487217D01*
X179641240Y-82487217D01*
X179686300Y-82468553D01*
X179720788Y-82434065D01*
X179739452Y-82389005D01*
X179741854Y-82364619D01*
X179741854Y-81697952D01*
X179968044Y-81697952D01*
X179968044Y-82364619D01*
X179970446Y-82389005D01*
X179989110Y-82434065D01*
X180023598Y-82468553D01*
X180068658Y-82487217D01*
X180117430Y-82487217D01*
X180162490Y-82468553D01*
X180196978Y-82434065D01*
X180215642Y-82389005D01*
X180218044Y-82364619D01*
X180218044Y-81846634D01*
X180265410Y-81822952D01*
X180349250Y-81822952D01*
X180380826Y-81838740D01*
X180396615Y-81870317D01*
X180396615Y-82364619D01*
X180399017Y-82389005D01*
X180417681Y-82434065D01*
X180452169Y-82468553D01*
X180497229Y-82487217D01*
X180546001Y-82487217D01*
X180591061Y-82468553D01*
X180625549Y-82434065D01*
X180644213Y-82389005D01*
X180646615Y-82364619D01*
X180646615Y-81888428D01*
X180825187Y-81888428D01*
X180825187Y-82174142D01*
X180827589Y-82198528D01*
X180829307Y-82202676D01*
X180829626Y-82207158D01*
X180838384Y-82230044D01*
X180886002Y-82325281D01*
X180892609Y-82335777D01*
X180893872Y-82338825D01*
X180896689Y-82342258D01*
X180899057Y-82346019D01*
X180901551Y-82348182D01*
X180909417Y-82357767D01*
X180957036Y-82405387D01*
X180966624Y-82413256D01*
X180968786Y-82415749D01*
X180972540Y-82418112D01*
X180975977Y-82420933D01*
X180979030Y-82422197D01*
X180989523Y-82428803D01*
X181084761Y-82476422D01*
X181107647Y-82485180D01*
X181112127Y-82485498D01*
X181116277Y-82487217D01*
X181140663Y-82489619D01*
X181331139Y-82489619D01*
X181355525Y-82487217D01*
X181359673Y-82485498D01*
X181364155Y-82485180D01*
X181381265Y-82478632D01*
X181401991Y-82487217D01*
X181450763Y-82487217D01*
X181495823Y-82468553D01*
X181530311Y-82434065D01*
X181548975Y-82389005D01*
X181551377Y-82364619D01*
X181551377Y-81387851D01*
X181732351Y-81387851D01*
X181732351Y-81436625D01*
X181751016Y-81481684D01*
X181766561Y-81500626D01*
X181814179Y-81548245D01*
X181833121Y-81563790D01*
X181833122Y-81563791D01*
X181855239Y-81572952D01*
X181869609Y-81578904D01*
X181833122Y-81594018D01*
X181798634Y-81628506D01*
X181779970Y-81673566D01*
X181777568Y-81697952D01*
X181777568Y-82364619D01*
X181779970Y-82389005D01*
X181798634Y-82434065D01*
X181833122Y-82468553D01*
X181878182Y-82487217D01*
X181926954Y-82487217D01*
X181972014Y-82468553D01*
X182006502Y-82434065D01*
X182025166Y-82389005D01*
X182027568Y-82364619D01*
X182027568Y-82126523D01*
X182206139Y-82126523D01*
X182206139Y-82221761D01*
X182208541Y-82246147D01*
X182210259Y-82250296D01*
X182210578Y-82254776D01*
X182219335Y-82277662D01*
X182266954Y-82372901D01*
X182269521Y-82376979D01*
X182270163Y-82378904D01*
X182272241Y-82381300D01*
X182280008Y-82393638D01*
X182291850Y-82403909D01*
X182302119Y-82415749D01*
X182314452Y-82423513D01*
X182316853Y-82425595D01*
X182318780Y-82426237D01*
X182322856Y-82428803D01*
X182418094Y-82476422D01*
X182440980Y-82485180D01*
X182445460Y-82485498D01*
X182449610Y-82487217D01*
X182473996Y-82489619D01*
X182712091Y-82489619D01*
X182736477Y-82487217D01*
X182740625Y-82485498D01*
X182745107Y-82485180D01*
X182762217Y-82478632D01*
X182782943Y-82487217D01*
X182831715Y-82487217D01*
X182876775Y-82468553D01*
X182911263Y-82434065D01*
X182929927Y-82389005D01*
X182932329Y-82364619D01*
X182932329Y-81840809D01*
X182929927Y-81816423D01*
X182928208Y-81812273D01*
X182927890Y-81807793D01*
X182919132Y-81784907D01*
X182871513Y-81689669D01*
X182868946Y-81685592D01*
X182868305Y-81683667D01*
X182866225Y-81681268D01*
X182858459Y-81668932D01*
X182846618Y-81658662D01*
X182836349Y-81646822D01*
X182824011Y-81639055D01*
X182821614Y-81636976D01*
X182819689Y-81636334D01*
X182815611Y-81633767D01*
X182720374Y-81586149D01*
X182697488Y-81577391D01*
X182693006Y-81577072D01*
X182688858Y-81575354D01*
X182664472Y-81572952D01*
X182473996Y-81572952D01*
X182449610Y-81575354D01*
X182445460Y-81577072D01*
X182440980Y-81577391D01*
X182418094Y-81586149D01*
X182322856Y-81633768D01*
X182302119Y-81646822D01*
X182270163Y-81683667D01*
X182254739Y-81729937D01*
X182258197Y-81778587D01*
X182280009Y-81822210D01*
X182316854Y-81854166D01*
X182363124Y-81869590D01*
X182411774Y-81866132D01*
X182434660Y-81857374D01*
X182503505Y-81822952D01*
X182634964Y-81822952D01*
X182666540Y-81838740D01*
X182676503Y-81858666D01*
X182473996Y-81858666D01*
X182449610Y-81861068D01*
X182445460Y-81862786D01*
X182440980Y-81863105D01*
X182418094Y-81871863D01*
X182322856Y-81919482D01*
X182318779Y-81922048D01*
X182316854Y-81922690D01*
X182314455Y-81924769D01*
X182302119Y-81932536D01*
X182291849Y-81944376D01*
X182280009Y-81954646D01*
X182272242Y-81966983D01*
X182270163Y-81969381D01*
X182269521Y-81971305D01*
X182266954Y-81975384D01*
X182219336Y-82070621D01*
X182210578Y-82093507D01*
X182210259Y-82097988D01*
X182208541Y-82102137D01*
X182206139Y-82126523D01*
X182027568Y-82126523D01*
X182027568Y-81697952D01*
X182025166Y-81673566D01*
X182006502Y-81628506D01*
X181972014Y-81594018D01*
X181935526Y-81578904D01*
X181940152Y-81576988D01*
X181972014Y-81563791D01*
X181972019Y-81563785D01*
X181990956Y-81548245D01*
X182038575Y-81500627D01*
X182054120Y-81481685D01*
X182072785Y-81436625D01*
X182072785Y-81387852D01*
X182065999Y-81371468D01*
X182054120Y-81342791D01*
X182038575Y-81323849D01*
X181990956Y-81276231D01*
X181972019Y-81260690D01*
X181972014Y-81260685D01*
X181929825Y-81243210D01*
X181926955Y-81242021D01*
X181926954Y-81242021D01*
X181878181Y-81242021D01*
X181875311Y-81243210D01*
X181833122Y-81260685D01*
X181833121Y-81260686D01*
X181814179Y-81276231D01*
X181766561Y-81323850D01*
X181751017Y-81342791D01*
X181751016Y-81342792D01*
X181732351Y-81387851D01*
X181551377Y-81387851D01*
X181551377Y-81364619D01*
X181548975Y-81340233D01*
X181530311Y-81295173D01*
X181495823Y-81260685D01*
X181450763Y-81242021D01*
X181401991Y-81242021D01*
X181356931Y-81260685D01*
X181322443Y-81295173D01*
X181303779Y-81340233D01*
X181301377Y-81364619D01*
X181301377Y-81572952D01*
X181140663Y-81572952D01*
X181116277Y-81575354D01*
X181112127Y-81577072D01*
X181107647Y-81577391D01*
X181084761Y-81586149D01*
X180989523Y-81633768D01*
X180979028Y-81640374D01*
X180975978Y-81641638D01*
X180972543Y-81644456D01*
X180968786Y-81646822D01*
X180966624Y-81649313D01*
X180957036Y-81657183D01*
X180909418Y-81704802D01*
X180901551Y-81714387D01*
X180899057Y-81716551D01*
X180896688Y-81720312D01*
X180893873Y-81723744D01*
X180892611Y-81726790D01*
X180886002Y-81737289D01*
X180838384Y-81832526D01*
X180829626Y-81855412D01*
X180829307Y-81859893D01*
X180827589Y-81864042D01*
X180825187Y-81888428D01*
X180646615Y-81888428D01*
X180646615Y-81840809D01*
X180644213Y-81816423D01*
X180642494Y-81812273D01*
X180642176Y-81807793D01*
X180633418Y-81784907D01*
X180585799Y-81689669D01*
X180583232Y-81685592D01*
X180582591Y-81683667D01*
X180580511Y-81681268D01*
X180572745Y-81668932D01*
X180560904Y-81658662D01*
X180550635Y-81646822D01*
X180538297Y-81639055D01*
X180535900Y-81636976D01*
X180533975Y-81636334D01*
X180529897Y-81633767D01*
X180434660Y-81586149D01*
X180411774Y-81577391D01*
X180407292Y-81577072D01*
X180403144Y-81575354D01*
X180378758Y-81572952D01*
X180235901Y-81572952D01*
X180211515Y-81575354D01*
X180207365Y-81577072D01*
X180202885Y-81577391D01*
X180179999Y-81586149D01*
X180163080Y-81594608D01*
X180162490Y-81594018D01*
X180117430Y-81575354D01*
X180068658Y-81575354D01*
X180023598Y-81594018D01*
X179989110Y-81628506D01*
X179970446Y-81673566D01*
X179968044Y-81697952D01*
X179741854Y-81697952D01*
X179741854Y-81364619D01*
X179739452Y-81340233D01*
X179720788Y-81295173D01*
X179686300Y-81260685D01*
X179641240Y-81242021D01*
X179592468Y-81242021D01*
X179547408Y-81260685D01*
X179512920Y-81295173D01*
X179494256Y-81340233D01*
X179491854Y-81364619D01*
X177634591Y-81364619D01*
X177625549Y-81342791D01*
X177610004Y-81323849D01*
X177562385Y-81276231D01*
X177543448Y-81260690D01*
X177543443Y-81260685D01*
X177501254Y-81243210D01*
X177498384Y-81242021D01*
X177498383Y-81242021D01*
X177449610Y-81242021D01*
X177446740Y-81243210D01*
X177404551Y-81260685D01*
X177404550Y-81260686D01*
X177385608Y-81276231D01*
X177337990Y-81323850D01*
X177322446Y-81342791D01*
X177322445Y-81342792D01*
X177303780Y-81387851D01*
X175503758Y-81387851D01*
X175503758Y-81364619D01*
X175501356Y-81340233D01*
X175482692Y-81295173D01*
X175448204Y-81260685D01*
X175403144Y-81242021D01*
X175354372Y-81242021D01*
X175309312Y-81260685D01*
X175274824Y-81295173D01*
X175256160Y-81340233D01*
X175253758Y-81364619D01*
X175253758Y-81572952D01*
X175093044Y-81572952D01*
X175068658Y-81575354D01*
X175064508Y-81577072D01*
X175060028Y-81577391D01*
X175037142Y-81586149D01*
X174941904Y-81633768D01*
X174931409Y-81640374D01*
X174928359Y-81641638D01*
X174924924Y-81644456D01*
X174921167Y-81646822D01*
X174919005Y-81649313D01*
X174909417Y-81657183D01*
X174861799Y-81704802D01*
X174853932Y-81714387D01*
X174851438Y-81716551D01*
X174849069Y-81720312D01*
X174846254Y-81723744D01*
X174844992Y-81726790D01*
X174838383Y-81737289D01*
X174790765Y-81832526D01*
X174782007Y-81855412D01*
X174781688Y-81859893D01*
X174779970Y-81864042D01*
X174777568Y-81888428D01*
X174598996Y-81888428D01*
X174598996Y-81840809D01*
X174596594Y-81816423D01*
X174594875Y-81812273D01*
X174594557Y-81807793D01*
X174585799Y-81784907D01*
X174538180Y-81689669D01*
X174535613Y-81685592D01*
X174534972Y-81683667D01*
X174532892Y-81681268D01*
X174525126Y-81668932D01*
X174513285Y-81658662D01*
X174503016Y-81646822D01*
X174490678Y-81639055D01*
X174488281Y-81636976D01*
X174486356Y-81636334D01*
X174482278Y-81633767D01*
X174387041Y-81586149D01*
X174364155Y-81577391D01*
X174359673Y-81577072D01*
X174355525Y-81575354D01*
X174331139Y-81572952D01*
X174140663Y-81572952D01*
X174116277Y-81575354D01*
X174112127Y-81577072D01*
X174107647Y-81577391D01*
X174084761Y-81586149D01*
X173989523Y-81633768D01*
X173968786Y-81646822D01*
X173936830Y-81683667D01*
X173921406Y-81729937D01*
X173924864Y-81778587D01*
X173946676Y-81822210D01*
X173983521Y-81854166D01*
X174029791Y-81869590D01*
X174078441Y-81866132D01*
X174101327Y-81857374D01*
X174170172Y-81822952D01*
X174301631Y-81822952D01*
X174333207Y-81838740D01*
X174343170Y-81858666D01*
X174140663Y-81858666D01*
X174116277Y-81861068D01*
X174112127Y-81862786D01*
X174107647Y-81863105D01*
X174084761Y-81871863D01*
X173989523Y-81919482D01*
X173985446Y-81922048D01*
X173983521Y-81922690D01*
X173981122Y-81924769D01*
X173968786Y-81932536D01*
X173958516Y-81944376D01*
X173946676Y-81954646D01*
X173938909Y-81966983D01*
X173936830Y-81969381D01*
X173936188Y-81971305D01*
X173933621Y-81975384D01*
X173886003Y-82070621D01*
X173877245Y-82093507D01*
X173876926Y-82097988D01*
X173875208Y-82102137D01*
X173872806Y-82126523D01*
X173694234Y-82126523D01*
X173694234Y-81364619D01*
X173692655Y-81348591D01*
X173692785Y-81345640D01*
X173692208Y-81344054D01*
X173691832Y-81340233D01*
X173683532Y-81320196D01*
X173676117Y-81299803D01*
X173674234Y-81297747D01*
X173673168Y-81295173D01*
X173657830Y-81279835D01*
X173643177Y-81263835D01*
X173640651Y-81262656D01*
X173638680Y-81260685D01*
X173618641Y-81252384D01*
X173598981Y-81243210D01*
X173596194Y-81243087D01*
X173593620Y-81242021D01*
X173571934Y-81242021D01*
X173550256Y-81241068D01*
X173547635Y-81242021D01*
X173544848Y-81242021D01*
X173524804Y-81250323D01*
X173504419Y-81257736D01*
X173502363Y-81259618D01*
X173499788Y-81260685D01*
X173484445Y-81276027D01*
X173468450Y-81290676D01*
X173466492Y-81293980D01*
X173465300Y-81295173D01*
X173464170Y-81297900D01*
X173455961Y-81311758D01*
X173235900Y-81783315D01*
X173015841Y-81311758D01*
X173007631Y-81297900D01*
X173006502Y-81295173D01*
X173005309Y-81293980D01*
X173003352Y-81290676D01*
X172987351Y-81276022D01*
X172972014Y-81260685D01*
X172969439Y-81259618D01*
X172967384Y-81257736D01*
X172946990Y-81250320D01*
X172926954Y-81242021D01*
X172924168Y-81242021D01*
X172921547Y-81241068D01*
X172899868Y-81242021D01*
X172878182Y-81242021D01*
X172875607Y-81243087D01*
X172872821Y-81243210D01*
X172853160Y-81252384D01*
X172833122Y-81260685D01*
X172831150Y-81262656D01*
X172828625Y-81263835D01*
X172813971Y-81279835D01*
X172798634Y-81295173D01*
X172797567Y-81297747D01*
X172795685Y-81299803D01*
X172788269Y-81320196D01*
X172779970Y-81340233D01*
X172779593Y-81344054D01*
X172779017Y-81345640D01*
X172779146Y-81348591D01*
X172777568Y-81364619D01*
X172652568Y-81364619D01*
X172652568Y-81116068D01*
X183057329Y-81116068D01*
X183057329Y-82614619D01*
G37*
D12*
X167666666Y-100454819D02*
X167666666Y-101169104D01*
X167666666Y-101169104D02*
X167619047Y-101311961D01*
X167619047Y-101311961D02*
X167523809Y-101407200D01*
X167523809Y-101407200D02*
X167380952Y-101454819D01*
X167380952Y-101454819D02*
X167285714Y-101454819D01*
X168666666Y-101454819D02*
X168095238Y-101454819D01*
X168380952Y-101454819D02*
X168380952Y-100454819D01*
X168380952Y-100454819D02*
X168285714Y-100597676D01*
X168285714Y-100597676D02*
X168190476Y-100692914D01*
X168190476Y-100692914D02*
X168095238Y-100740533D01*
X165738095Y-85954819D02*
X165738095Y-84954819D01*
X165738095Y-85431009D02*
X166309523Y-85431009D01*
X166309523Y-85954819D02*
X166309523Y-84954819D01*
X167309523Y-85954819D02*
X166738095Y-85954819D01*
X167023809Y-85954819D02*
X167023809Y-84954819D01*
X167023809Y-84954819D02*
X166928571Y-85097676D01*
X166928571Y-85097676D02*
X166833333Y-85192914D01*
X166833333Y-85192914D02*
X166738095Y-85240533D01*
X196833333Y-100259580D02*
X196785714Y-100307200D01*
X196785714Y-100307200D02*
X196642857Y-100354819D01*
X196642857Y-100354819D02*
X196547619Y-100354819D01*
X196547619Y-100354819D02*
X196404762Y-100307200D01*
X196404762Y-100307200D02*
X196309524Y-100211961D01*
X196309524Y-100211961D02*
X196261905Y-100116723D01*
X196261905Y-100116723D02*
X196214286Y-99926247D01*
X196214286Y-99926247D02*
X196214286Y-99783390D01*
X196214286Y-99783390D02*
X196261905Y-99592914D01*
X196261905Y-99592914D02*
X196309524Y-99497676D01*
X196309524Y-99497676D02*
X196404762Y-99402438D01*
X196404762Y-99402438D02*
X196547619Y-99354819D01*
X196547619Y-99354819D02*
X196642857Y-99354819D01*
X196642857Y-99354819D02*
X196785714Y-99402438D01*
X196785714Y-99402438D02*
X196833333Y-99450057D01*
X197214286Y-99450057D02*
X197261905Y-99402438D01*
X197261905Y-99402438D02*
X197357143Y-99354819D01*
X197357143Y-99354819D02*
X197595238Y-99354819D01*
X197595238Y-99354819D02*
X197690476Y-99402438D01*
X197690476Y-99402438D02*
X197738095Y-99450057D01*
X197738095Y-99450057D02*
X197785714Y-99545295D01*
X197785714Y-99545295D02*
X197785714Y-99640533D01*
X197785714Y-99640533D02*
X197738095Y-99783390D01*
X197738095Y-99783390D02*
X197166667Y-100354819D01*
X197166667Y-100354819D02*
X197785714Y-100354819D01*
X195438095Y-84454819D02*
X195438095Y-85264342D01*
X195438095Y-85264342D02*
X195485714Y-85359580D01*
X195485714Y-85359580D02*
X195533333Y-85407200D01*
X195533333Y-85407200D02*
X195628571Y-85454819D01*
X195628571Y-85454819D02*
X195819047Y-85454819D01*
X195819047Y-85454819D02*
X195914285Y-85407200D01*
X195914285Y-85407200D02*
X195961904Y-85359580D01*
X195961904Y-85359580D02*
X196009523Y-85264342D01*
X196009523Y-85264342D02*
X196009523Y-84454819D01*
X197009523Y-85454819D02*
X196438095Y-85454819D01*
X196723809Y-85454819D02*
X196723809Y-84454819D01*
X196723809Y-84454819D02*
X196628571Y-84597676D01*
X196628571Y-84597676D02*
X196533333Y-84692914D01*
X196533333Y-84692914D02*
X196438095Y-84740533D01*
X189858333Y-103859580D02*
X189810714Y-103907200D01*
X189810714Y-103907200D02*
X189667857Y-103954819D01*
X189667857Y-103954819D02*
X189572619Y-103954819D01*
X189572619Y-103954819D02*
X189429762Y-103907200D01*
X189429762Y-103907200D02*
X189334524Y-103811961D01*
X189334524Y-103811961D02*
X189286905Y-103716723D01*
X189286905Y-103716723D02*
X189239286Y-103526247D01*
X189239286Y-103526247D02*
X189239286Y-103383390D01*
X189239286Y-103383390D02*
X189286905Y-103192914D01*
X189286905Y-103192914D02*
X189334524Y-103097676D01*
X189334524Y-103097676D02*
X189429762Y-103002438D01*
X189429762Y-103002438D02*
X189572619Y-102954819D01*
X189572619Y-102954819D02*
X189667857Y-102954819D01*
X189667857Y-102954819D02*
X189810714Y-103002438D01*
X189810714Y-103002438D02*
X189858333Y-103050057D01*
X190715476Y-103288152D02*
X190715476Y-103954819D01*
X190477381Y-102907200D02*
X190239286Y-103621485D01*
X190239286Y-103621485D02*
X190858333Y-103621485D01*
X215666666Y-100954819D02*
X215666666Y-101669104D01*
X215666666Y-101669104D02*
X215619047Y-101811961D01*
X215619047Y-101811961D02*
X215523809Y-101907200D01*
X215523809Y-101907200D02*
X215380952Y-101954819D01*
X215380952Y-101954819D02*
X215285714Y-101954819D01*
X216095238Y-101050057D02*
X216142857Y-101002438D01*
X216142857Y-101002438D02*
X216238095Y-100954819D01*
X216238095Y-100954819D02*
X216476190Y-100954819D01*
X216476190Y-100954819D02*
X216571428Y-101002438D01*
X216571428Y-101002438D02*
X216619047Y-101050057D01*
X216619047Y-101050057D02*
X216666666Y-101145295D01*
X216666666Y-101145295D02*
X216666666Y-101240533D01*
X216666666Y-101240533D02*
X216619047Y-101383390D01*
X216619047Y-101383390D02*
X216047619Y-101954819D01*
X216047619Y-101954819D02*
X216666666Y-101954819D01*
X210238095Y-85954819D02*
X210238095Y-84954819D01*
X210238095Y-85431009D02*
X210809523Y-85431009D01*
X210809523Y-85954819D02*
X210809523Y-84954819D01*
X211238095Y-85050057D02*
X211285714Y-85002438D01*
X211285714Y-85002438D02*
X211380952Y-84954819D01*
X211380952Y-84954819D02*
X211619047Y-84954819D01*
X211619047Y-84954819D02*
X211714285Y-85002438D01*
X211714285Y-85002438D02*
X211761904Y-85050057D01*
X211761904Y-85050057D02*
X211809523Y-85145295D01*
X211809523Y-85145295D02*
X211809523Y-85240533D01*
X211809523Y-85240533D02*
X211761904Y-85383390D01*
X211761904Y-85383390D02*
X211190476Y-85954819D01*
X211190476Y-85954819D02*
X211809523Y-85954819D01*
X181261905Y-104154819D02*
X181261905Y-103154819D01*
X181261905Y-103154819D02*
X181500000Y-103154819D01*
X181500000Y-103154819D02*
X181642857Y-103202438D01*
X181642857Y-103202438D02*
X181738095Y-103297676D01*
X181738095Y-103297676D02*
X181785714Y-103392914D01*
X181785714Y-103392914D02*
X181833333Y-103583390D01*
X181833333Y-103583390D02*
X181833333Y-103726247D01*
X181833333Y-103726247D02*
X181785714Y-103916723D01*
X181785714Y-103916723D02*
X181738095Y-104011961D01*
X181738095Y-104011961D02*
X181642857Y-104107200D01*
X181642857Y-104107200D02*
X181500000Y-104154819D01*
X181500000Y-104154819D02*
X181261905Y-104154819D01*
X182785714Y-104154819D02*
X182214286Y-104154819D01*
X182500000Y-104154819D02*
X182500000Y-103154819D01*
X182500000Y-103154819D02*
X182404762Y-103297676D01*
X182404762Y-103297676D02*
X182309524Y-103392914D01*
X182309524Y-103392914D02*
X182214286Y-103440533D01*
X165738095Y-105954819D02*
X165738095Y-104954819D01*
X165738095Y-105431009D02*
X166309523Y-105431009D01*
X166309523Y-105954819D02*
X166309523Y-104954819D01*
X166690476Y-104954819D02*
X167309523Y-104954819D01*
X167309523Y-104954819D02*
X166976190Y-105335771D01*
X166976190Y-105335771D02*
X167119047Y-105335771D01*
X167119047Y-105335771D02*
X167214285Y-105383390D01*
X167214285Y-105383390D02*
X167261904Y-105431009D01*
X167261904Y-105431009D02*
X167309523Y-105526247D01*
X167309523Y-105526247D02*
X167309523Y-105764342D01*
X167309523Y-105764342D02*
X167261904Y-105859580D01*
X167261904Y-105859580D02*
X167214285Y-105907200D01*
X167214285Y-105907200D02*
X167119047Y-105954819D01*
X167119047Y-105954819D02*
X166833333Y-105954819D01*
X166833333Y-105954819D02*
X166738095Y-105907200D01*
X166738095Y-105907200D02*
X166690476Y-105859580D01*
X191333333Y-99759580D02*
X191285714Y-99807200D01*
X191285714Y-99807200D02*
X191142857Y-99854819D01*
X191142857Y-99854819D02*
X191047619Y-99854819D01*
X191047619Y-99854819D02*
X190904762Y-99807200D01*
X190904762Y-99807200D02*
X190809524Y-99711961D01*
X190809524Y-99711961D02*
X190761905Y-99616723D01*
X190761905Y-99616723D02*
X190714286Y-99426247D01*
X190714286Y-99426247D02*
X190714286Y-99283390D01*
X190714286Y-99283390D02*
X190761905Y-99092914D01*
X190761905Y-99092914D02*
X190809524Y-98997676D01*
X190809524Y-98997676D02*
X190904762Y-98902438D01*
X190904762Y-98902438D02*
X191047619Y-98854819D01*
X191047619Y-98854819D02*
X191142857Y-98854819D01*
X191142857Y-98854819D02*
X191285714Y-98902438D01*
X191285714Y-98902438D02*
X191333333Y-98950057D01*
X191666667Y-98854819D02*
X192285714Y-98854819D01*
X192285714Y-98854819D02*
X191952381Y-99235771D01*
X191952381Y-99235771D02*
X192095238Y-99235771D01*
X192095238Y-99235771D02*
X192190476Y-99283390D01*
X192190476Y-99283390D02*
X192238095Y-99331009D01*
X192238095Y-99331009D02*
X192285714Y-99426247D01*
X192285714Y-99426247D02*
X192285714Y-99664342D01*
X192285714Y-99664342D02*
X192238095Y-99759580D01*
X192238095Y-99759580D02*
X192190476Y-99807200D01*
X192190476Y-99807200D02*
X192095238Y-99854819D01*
X192095238Y-99854819D02*
X191809524Y-99854819D01*
X191809524Y-99854819D02*
X191714286Y-99807200D01*
X191714286Y-99807200D02*
X191666667Y-99759580D01*
X209738095Y-105954819D02*
X209738095Y-104954819D01*
X209738095Y-105431009D02*
X210309523Y-105431009D01*
X210309523Y-105954819D02*
X210309523Y-104954819D01*
X211214285Y-105288152D02*
X211214285Y-105954819D01*
X210976190Y-104907200D02*
X210738095Y-105621485D01*
X210738095Y-105621485D02*
X211357142Y-105621485D01*
X181633333Y-89029819D02*
X181300000Y-88553628D01*
X181061905Y-89029819D02*
X181061905Y-88029819D01*
X181061905Y-88029819D02*
X181442857Y-88029819D01*
X181442857Y-88029819D02*
X181538095Y-88077438D01*
X181538095Y-88077438D02*
X181585714Y-88125057D01*
X181585714Y-88125057D02*
X181633333Y-88220295D01*
X181633333Y-88220295D02*
X181633333Y-88363152D01*
X181633333Y-88363152D02*
X181585714Y-88458390D01*
X181585714Y-88458390D02*
X181538095Y-88506009D01*
X181538095Y-88506009D02*
X181442857Y-88553628D01*
X181442857Y-88553628D02*
X181061905Y-88553628D01*
X182585714Y-89029819D02*
X182014286Y-89029819D01*
X182300000Y-89029819D02*
X182300000Y-88029819D01*
X182300000Y-88029819D02*
X182204762Y-88172676D01*
X182204762Y-88172676D02*
X182109524Y-88267914D01*
X182109524Y-88267914D02*
X182014286Y-88315533D01*
X197633333Y-104159580D02*
X197585714Y-104207200D01*
X197585714Y-104207200D02*
X197442857Y-104254819D01*
X197442857Y-104254819D02*
X197347619Y-104254819D01*
X197347619Y-104254819D02*
X197204762Y-104207200D01*
X197204762Y-104207200D02*
X197109524Y-104111961D01*
X197109524Y-104111961D02*
X197061905Y-104016723D01*
X197061905Y-104016723D02*
X197014286Y-103826247D01*
X197014286Y-103826247D02*
X197014286Y-103683390D01*
X197014286Y-103683390D02*
X197061905Y-103492914D01*
X197061905Y-103492914D02*
X197109524Y-103397676D01*
X197109524Y-103397676D02*
X197204762Y-103302438D01*
X197204762Y-103302438D02*
X197347619Y-103254819D01*
X197347619Y-103254819D02*
X197442857Y-103254819D01*
X197442857Y-103254819D02*
X197585714Y-103302438D01*
X197585714Y-103302438D02*
X197633333Y-103350057D01*
X198585714Y-104254819D02*
X198014286Y-104254819D01*
X198300000Y-104254819D02*
X198300000Y-103254819D01*
X198300000Y-103254819D02*
X198204762Y-103397676D01*
X198204762Y-103397676D02*
X198109524Y-103492914D01*
X198109524Y-103492914D02*
X198014286Y-103540533D01*
D13*
%TO.C,J1*%
X164190000Y-89960000D02*
X164190000Y-100120000D01*
X164190000Y-100120000D02*
X171810000Y-100120000D01*
X170540000Y-89960000D02*
X170540000Y-100120000D01*
X171810000Y-89960000D02*
X164190000Y-89960000D01*
X171810000Y-100120000D02*
X171810000Y-89960000D01*
%TO.C,C2*%
X200836252Y-98790000D02*
X199413748Y-98790000D01*
X200836252Y-100610000D02*
X199413748Y-100610000D01*
%TO.C,U1*%
X192890000Y-88540000D02*
X194150000Y-88540000D01*
X192890000Y-92300000D02*
X192890000Y-88540000D01*
X199710000Y-88540000D02*
X198450000Y-88540000D01*
X199710000Y-92300000D02*
X199710000Y-88540000D01*
X192990000Y-93580000D02*
X192660000Y-93820000D01*
X192660000Y-93340000D01*
X192990000Y-93580000D01*
G36*
X192990000Y-93580000D02*
G01*
X192660000Y-93820000D01*
X192660000Y-93340000D01*
X192990000Y-93580000D01*
G37*
%TO.C,C4*%
X194511252Y-102590000D02*
X193088748Y-102590000D01*
X194511252Y-104410000D02*
X193088748Y-104410000D01*
%TO.C,J2*%
X212190000Y-90160000D02*
X212190000Y-100320000D01*
X212190000Y-100320000D02*
X219810000Y-100320000D01*
X213460000Y-100320000D02*
X213460000Y-90160000D01*
X219810000Y-90160000D02*
X212190000Y-90160000D01*
X219810000Y-100320000D02*
X219810000Y-90160000D01*
%TO.C,D1*%
X180765000Y-98600000D02*
X180765000Y-102485000D01*
X180765000Y-102485000D02*
X183035000Y-102485000D01*
X183035000Y-102485000D02*
X183035000Y-98600000D01*
%TO.C,C3*%
X194365580Y-98990000D02*
X194084420Y-98990000D01*
X194365580Y-100010000D02*
X194084420Y-100010000D01*
%TO.C,R1*%
X180890000Y-91110436D02*
X180890000Y-92564564D01*
X182710000Y-91110436D02*
X182710000Y-92564564D01*
%TO.C,C1*%
X200465580Y-103190000D02*
X200184420Y-103190000D01*
X200465580Y-104210000D02*
X200184420Y-104210000D01*
%TD*%
M02*
