%TF.GenerationSoftware,KiCad,Pcbnew,9.0.1*%
%TF.CreationDate,2025-09-20T23:55:37+05:30*%
%TF.ProjectId,how_to_kicad,686f775f-746f-45f6-9b69-6361642e6b69,rev?*%
%TF.SameCoordinates,Original*%
%TF.FileFunction,Copper,L1,Top*%
%TF.FilePolarity,Positive*%
%FSLAX46Y46*%
G04 Gerber Fmt 4.6, Leading zero omitted, Abs format (unit mm)*
G04 Created by KiCad (PCBNEW 9.0.1) date 2025-09-20 23:55:37*
%MOMM*%
%LPD*%
G01*
G04 APERTURE LIST*
G04 Aperture macros list*
%AMRoundRect*
0 Rectangle with rounded corners*
0 $1 Rounding radius*
0 $2 $3 $4 $5 $6 $7 $8 $9 X,Y pos of 4 corners*
0 Add a 4 corners polygon primitive as box body*
4,1,4,$2,$3,$4,$5,$6,$7,$8,$9,$2,$3,0*
0 Add four circle primitives for the rounded corners*
1,1,$1+$1,$2,$3*
1,1,$1+$1,$4,$5*
1,1,$1+$1,$6,$7*
1,1,$1+$1,$8,$9*
0 Add four rect primitives between the rounded corners*
20,1,$1+$1,$2,$3,$4,$5,0*
20,1,$1+$1,$4,$5,$6,$7,0*
20,1,$1+$1,$6,$7,$8,$9,0*
20,1,$1+$1,$8,$9,$2,$3,0*%
G04 Aperture macros list end*
%TA.AperFunction,ComponentPad*%
%ADD10R,3.000000X3.000000*%
%TD*%
%TA.AperFunction,ComponentPad*%
%ADD11C,3.000000*%
%TD*%
%TA.AperFunction,ComponentPad*%
%ADD12C,0.700000*%
%TD*%
%TA.AperFunction,ComponentPad*%
%ADD13C,4.400000*%
%TD*%
%TA.AperFunction,SMDPad,CuDef*%
%ADD14RoundRect,0.250000X0.325000X0.650000X-0.325000X0.650000X-0.325000X-0.650000X0.325000X-0.650000X0*%
%TD*%
%TA.AperFunction,SMDPad,CuDef*%
%ADD15RoundRect,0.375000X0.375000X-0.625000X0.375000X0.625000X-0.375000X0.625000X-0.375000X-0.625000X0*%
%TD*%
%TA.AperFunction,SMDPad,CuDef*%
%ADD16RoundRect,0.500000X1.400000X-0.500000X1.400000X0.500000X-1.400000X0.500000X-1.400000X-0.500000X0*%
%TD*%
%TA.AperFunction,SMDPad,CuDef*%
%ADD17RoundRect,0.250000X0.625000X-0.375000X0.625000X0.375000X-0.625000X0.375000X-0.625000X-0.375000X0*%
%TD*%
%TA.AperFunction,SMDPad,CuDef*%
%ADD18RoundRect,0.225000X0.225000X0.250000X-0.225000X0.250000X-0.225000X-0.250000X0.225000X-0.250000X0*%
%TD*%
%TA.AperFunction,SMDPad,CuDef*%
%ADD19RoundRect,0.250000X-0.625000X0.312500X-0.625000X-0.312500X0.625000X-0.312500X0.625000X0.312500X0*%
%TD*%
%TA.AperFunction,Conductor*%
%ADD20C,0.500000*%
%TD*%
G04 APERTURE END LIST*
D10*
%TO.P,J1,1,Pin_1*%
%TO.N,GND*%
X168000000Y-97580000D03*
D11*
%TO.P,J1,2,Pin_2*%
%TO.N,INPUT*%
X168000000Y-92500000D03*
%TD*%
D12*
%TO.P,H1,1,1*%
%TO.N,unconnected-(H1-Pad1)_8*%
X168350000Y-85500000D03*
%TO.N,unconnected-(H1-Pad1)_6*%
X168833274Y-84333274D03*
%TO.N,unconnected-(H1-Pad1)_4*%
X168833274Y-86666726D03*
%TO.N,unconnected-(H1-Pad1)_5*%
X170000000Y-83850000D03*
D13*
%TO.N,unconnected-(H1-Pad1)_7*%
X170000000Y-85500000D03*
D12*
%TO.N,unconnected-(H1-Pad1)_1*%
X170000000Y-87150000D03*
%TO.N,unconnected-(H1-Pad1)_2*%
X171166726Y-84333274D03*
%TO.N,unconnected-(H1-Pad1)*%
X171166726Y-86666726D03*
%TO.N,unconnected-(H1-Pad1)_3*%
X171650000Y-85500000D03*
%TD*%
D14*
%TO.P,C2,1*%
%TO.N,INPUT*%
X201600000Y-99700000D03*
%TO.P,C2,2*%
%TO.N,GND*%
X198650000Y-99700000D03*
%TD*%
D15*
%TO.P,U1,1,GND*%
%TO.N,GND*%
X194000000Y-93600000D03*
%TO.P,U1,2,VO*%
%TO.N,OUTPUT*%
X196300000Y-93600000D03*
D16*
X196300000Y-87300000D03*
D15*
%TO.P,U1,3,VI*%
%TO.N,INPUT*%
X198600000Y-93600000D03*
%TD*%
D14*
%TO.P,C4,1*%
%TO.N,OUTPUT*%
X195275000Y-103500000D03*
%TO.P,C4,2*%
%TO.N,GND*%
X192325000Y-103500000D03*
%TD*%
D10*
%TO.P,J2,1,Pin_1*%
%TO.N,OUTPUT*%
X216000000Y-92700000D03*
D11*
%TO.P,J2,2,Pin_2*%
%TO.N,GND*%
X216000000Y-97780000D03*
%TD*%
D12*
%TO.P,H2,1,1*%
%TO.N,unconnected-(H2-Pad1)_6*%
X212850000Y-85500000D03*
%TO.N,unconnected-(H2-Pad1)_8*%
X213333274Y-84333274D03*
%TO.N,unconnected-(H2-Pad1)_5*%
X213333274Y-86666726D03*
%TO.N,unconnected-(H2-Pad1)*%
X214500000Y-83850000D03*
D13*
%TO.N,unconnected-(H2-Pad1)_1*%
X214500000Y-85500000D03*
D12*
%TO.N,unconnected-(H2-Pad1)_3*%
X214500000Y-87150000D03*
%TO.N,unconnected-(H2-Pad1)_2*%
X215666726Y-84333274D03*
%TO.N,unconnected-(H2-Pad1)_7*%
X215666726Y-86666726D03*
%TO.N,unconnected-(H2-Pad1)_4*%
X216150000Y-85500000D03*
%TD*%
D17*
%TO.P,D1,1,K*%
%TO.N,GND*%
X181900000Y-101600000D03*
%TO.P,D1,2,A*%
%TO.N,Net-(D1-A)*%
X181900000Y-98800000D03*
%TD*%
D12*
%TO.P,H3,1,1*%
%TO.N,unconnected-(H3-Pad1)*%
X168683274Y-105500000D03*
%TO.N,unconnected-(H3-Pad1)_1*%
X169166548Y-104333274D03*
%TO.N,unconnected-(H3-Pad1)_7*%
X169166548Y-106666726D03*
%TO.N,unconnected-(H3-Pad1)_5*%
X170333274Y-103850000D03*
D13*
%TO.N,unconnected-(H3-Pad1)_8*%
X170333274Y-105500000D03*
D12*
%TO.N,unconnected-(H3-Pad1)_4*%
X170333274Y-107150000D03*
%TO.N,unconnected-(H3-Pad1)_3*%
X171500000Y-104333274D03*
%TO.N,unconnected-(H3-Pad1)_6*%
X171500000Y-106666726D03*
%TO.N,unconnected-(H3-Pad1)_2*%
X171983274Y-105500000D03*
%TD*%
D18*
%TO.P,C3,1*%
%TO.N,OUTPUT*%
X195000000Y-99500000D03*
%TO.P,C3,2*%
%TO.N,GND*%
X193450000Y-99500000D03*
%TD*%
D12*
%TO.P,H4,1,1*%
%TO.N,unconnected-(H4-Pad1)_7*%
X212350000Y-105500000D03*
%TO.N,unconnected-(H4-Pad1)_1*%
X212833274Y-104333274D03*
%TO.N,unconnected-(H4-Pad1)_3*%
X212833274Y-106666726D03*
%TO.N,unconnected-(H4-Pad1)*%
X214000000Y-103850000D03*
D13*
%TO.N,unconnected-(H4-Pad1)_8*%
X214000000Y-105500000D03*
D12*
%TO.N,unconnected-(H4-Pad1)_2*%
X214000000Y-107150000D03*
%TO.N,unconnected-(H4-Pad1)_6*%
X215166726Y-104333274D03*
%TO.N,unconnected-(H4-Pad1)_4*%
X215166726Y-106666726D03*
%TO.N,unconnected-(H4-Pad1)_5*%
X215650000Y-105500000D03*
%TD*%
D19*
%TO.P,R1,1*%
%TO.N,INPUT*%
X181800000Y-90375000D03*
%TO.P,R1,2*%
%TO.N,Net-(D1-A)*%
X181800000Y-93300000D03*
%TD*%
D18*
%TO.P,C1,1*%
%TO.N,INPUT*%
X201100000Y-103700000D03*
%TO.P,C1,2*%
%TO.N,GND*%
X199550000Y-103700000D03*
%TD*%
D20*
%TO.N,GND*%
X199550000Y-103700000D02*
X197750000Y-105500000D01*
X194325000Y-105500000D02*
X192325000Y-103500000D01*
X197750000Y-105500000D02*
X194325000Y-105500000D01*
X177600000Y-101600000D02*
X181900000Y-101600000D01*
X211720000Y-97780000D02*
X216000000Y-97780000D01*
X200000000Y-105500000D02*
X204000000Y-105500000D01*
X189000000Y-99500000D02*
X186900000Y-101600000D01*
X193450000Y-102375000D02*
X192325000Y-103500000D01*
X193450000Y-99500000D02*
X193450000Y-102375000D01*
X168000000Y-97580000D02*
X173580000Y-97580000D01*
X194000000Y-98950000D02*
X193450000Y-99500000D01*
X173580000Y-97580000D02*
X177600000Y-101600000D01*
X193450000Y-99500000D02*
X189000000Y-99500000D01*
X198650000Y-99700000D02*
X198650000Y-102800000D01*
X199550000Y-105050000D02*
X200000000Y-105500000D01*
X186900000Y-101600000D02*
X181900000Y-101600000D01*
X199550000Y-103700000D02*
X199550000Y-105050000D01*
X194000000Y-93600000D02*
X194000000Y-98950000D01*
X198650000Y-102800000D02*
X199550000Y-103700000D01*
X204000000Y-105500000D02*
X211720000Y-97780000D01*
%TO.N,INPUT*%
X181800000Y-90375000D02*
X185500000Y-86675000D01*
X218000000Y-89000000D02*
X219000000Y-90000000D01*
X209000000Y-94000000D02*
X207000000Y-92000000D01*
X198600000Y-96700000D02*
X201600000Y-99700000D01*
X168000000Y-92500000D02*
X175500000Y-92500000D01*
X210500000Y-94000000D02*
X209000000Y-94000000D01*
X201500000Y-89000000D02*
X218000000Y-89000000D01*
X198600000Y-93600000D02*
X198600000Y-96700000D01*
X201600000Y-103200000D02*
X201100000Y-103700000D01*
X219000000Y-90000000D02*
X219000000Y-95000000D01*
X201600000Y-99700000D02*
X201600000Y-103200000D01*
X185500000Y-84000000D02*
X201500000Y-84000000D01*
X175500000Y-92500000D02*
X177625000Y-90375000D01*
X200200000Y-92000000D02*
X198600000Y-93600000D01*
X201500000Y-84000000D02*
X201500000Y-89000000D01*
X177625000Y-90375000D02*
X181800000Y-90375000D01*
X185500000Y-86675000D02*
X185500000Y-84000000D01*
X207000000Y-92000000D02*
X200200000Y-92000000D01*
X219000000Y-95000000D02*
X211500000Y-95000000D01*
X211500000Y-95000000D02*
X210500000Y-94000000D01*
%TO.N,OUTPUT*%
X209700000Y-92700000D02*
X208000000Y-91000000D01*
X208000000Y-91000000D02*
X196300000Y-91000000D01*
X195275000Y-100275000D02*
X195275000Y-103500000D01*
X195000000Y-99500000D02*
X195000000Y-100000000D01*
X196300000Y-91000000D02*
X196300000Y-93600000D01*
X195000000Y-99500000D02*
X195000000Y-99000000D01*
X196300000Y-87300000D02*
X196300000Y-90500000D01*
X196300000Y-90500000D02*
X196300000Y-91000000D01*
X195000000Y-100000000D02*
X195275000Y-100275000D01*
X216000000Y-92700000D02*
X209700000Y-92700000D01*
X195000000Y-99000000D02*
X196300000Y-97700000D01*
X196300000Y-97700000D02*
X196300000Y-93600000D01*
%TO.N,Net-(D1-A)*%
X181800000Y-93300000D02*
X181800000Y-98700000D01*
X181800000Y-98700000D02*
X181900000Y-98800000D01*
%TD*%
%TA.AperFunction,Conductor*%
%TO.N,GND*%
G36*
X211827922Y-80500571D02*
G01*
X212345256Y-80518244D01*
X212353677Y-80518821D01*
X212866516Y-80571543D01*
X212874854Y-80572689D01*
X213382892Y-80660284D01*
X213391181Y-80662006D01*
X213892040Y-80784062D01*
X213900154Y-80786335D01*
X214285522Y-80908646D01*
X214391524Y-80942290D01*
X214399502Y-80945125D01*
X214573153Y-81013604D01*
X214879090Y-81134249D01*
X214886836Y-81137615D01*
X215352383Y-81359020D01*
X215359875Y-81362901D01*
X215541412Y-81464974D01*
X215809238Y-81615565D01*
X215816472Y-81619964D01*
X215825374Y-81625803D01*
X216247542Y-81902703D01*
X216254430Y-81907564D01*
X216665218Y-82219075D01*
X216671766Y-82224403D01*
X217060330Y-82563213D01*
X217066501Y-82568977D01*
X217431022Y-82933498D01*
X217436787Y-82939670D01*
X217775594Y-83328230D01*
X217780927Y-83334785D01*
X218092431Y-83745564D01*
X218097302Y-83752465D01*
X218380035Y-84183527D01*
X218384434Y-84190761D01*
X218637091Y-84640111D01*
X218640986Y-84647629D01*
X218862380Y-85113153D01*
X218865754Y-85120919D01*
X219054874Y-85600497D01*
X219057709Y-85608475D01*
X219213658Y-86099826D01*
X219215942Y-86107979D01*
X219337992Y-86608817D01*
X219339715Y-86617107D01*
X219427306Y-87125120D01*
X219428459Y-87133508D01*
X219481177Y-87646309D01*
X219481755Y-87654757D01*
X219499427Y-88172088D01*
X219499499Y-88176321D01*
X219499499Y-89138769D01*
X219479814Y-89205808D01*
X219427010Y-89251563D01*
X219357852Y-89261507D01*
X219294296Y-89232482D01*
X219287818Y-89226450D01*
X218478413Y-88417045D01*
X218433817Y-88387249D01*
X218404085Y-88367383D01*
X218355495Y-88334916D01*
X218355494Y-88334915D01*
X218355492Y-88334914D01*
X218355490Y-88334913D01*
X218218917Y-88278343D01*
X218218907Y-88278340D01*
X218073920Y-88249500D01*
X218073918Y-88249500D01*
X215548610Y-88249500D01*
X215481571Y-88229815D01*
X215435816Y-88177011D01*
X215425872Y-88107853D01*
X215454897Y-88044297D01*
X215507655Y-88008459D01*
X215535065Y-87998868D01*
X215808341Y-87867265D01*
X216065164Y-87705892D01*
X216302304Y-87516779D01*
X216516779Y-87302304D01*
X216705892Y-87065164D01*
X216867265Y-86808341D01*
X216998868Y-86535065D01*
X217099046Y-86248772D01*
X217166540Y-85953063D01*
X217200500Y-85651657D01*
X217200500Y-85348343D01*
X217166540Y-85046937D01*
X217099046Y-84751228D01*
X216998868Y-84464935D01*
X216867265Y-84191659D01*
X216705892Y-83934836D01*
X216516779Y-83697696D01*
X216302304Y-83483221D01*
X216065164Y-83294108D01*
X215808341Y-83132735D01*
X215808338Y-83132733D01*
X215535068Y-83001133D01*
X215248783Y-82900957D01*
X215248771Y-82900953D01*
X215020556Y-82848864D01*
X214953063Y-82833460D01*
X214953060Y-82833459D01*
X214953048Y-82833457D01*
X214651663Y-82799500D01*
X214651657Y-82799500D01*
X214348343Y-82799500D01*
X214348336Y-82799500D01*
X214046951Y-82833457D01*
X214046937Y-82833460D01*
X213751228Y-82900953D01*
X213751216Y-82900957D01*
X213464931Y-83001133D01*
X213191661Y-83132733D01*
X212934837Y-83294107D01*
X212697696Y-83483220D01*
X212483220Y-83697696D01*
X212294107Y-83934837D01*
X212132733Y-84191661D01*
X212001133Y-84464931D01*
X211900957Y-84751216D01*
X211900953Y-84751228D01*
X211833460Y-85046937D01*
X211833457Y-85046951D01*
X211799500Y-85348336D01*
X211799500Y-85651663D01*
X211833457Y-85953048D01*
X211833460Y-85953062D01*
X211900953Y-86248771D01*
X211900957Y-86248783D01*
X212001133Y-86535068D01*
X212132733Y-86808338D01*
X212132735Y-86808341D01*
X212294108Y-87065164D01*
X212483221Y-87302304D01*
X212697696Y-87516779D01*
X212934836Y-87705892D01*
X213191659Y-87867265D01*
X213464935Y-87998868D01*
X213492345Y-88008459D01*
X213549121Y-88049180D01*
X213574868Y-88114133D01*
X213561412Y-88182695D01*
X213513024Y-88233097D01*
X213451390Y-88249500D01*
X202374500Y-88249500D01*
X202307461Y-88229815D01*
X202261706Y-88177011D01*
X202250500Y-88125500D01*
X202250500Y-83926079D01*
X202221659Y-83781092D01*
X202221658Y-83781091D01*
X202221658Y-83781087D01*
X202210753Y-83754760D01*
X202165087Y-83644511D01*
X202165080Y-83644498D01*
X202082951Y-83521584D01*
X202082948Y-83521580D01*
X201978419Y-83417051D01*
X201978415Y-83417048D01*
X201855501Y-83334919D01*
X201855488Y-83334912D01*
X201718917Y-83278343D01*
X201718907Y-83278340D01*
X201573920Y-83249500D01*
X201573918Y-83249500D01*
X185573918Y-83249500D01*
X185426082Y-83249500D01*
X185426080Y-83249500D01*
X185281092Y-83278340D01*
X185281082Y-83278343D01*
X185144511Y-83334912D01*
X185144498Y-83334919D01*
X185021584Y-83417048D01*
X185021580Y-83417051D01*
X184917051Y-83521580D01*
X184917048Y-83521584D01*
X184834919Y-83644498D01*
X184834912Y-83644511D01*
X184778343Y-83781082D01*
X184778340Y-83781092D01*
X184749500Y-83926079D01*
X184749500Y-86312769D01*
X184729815Y-86379808D01*
X184713181Y-86400450D01*
X181837949Y-89275681D01*
X181776626Y-89309166D01*
X181750268Y-89312000D01*
X181124998Y-89312000D01*
X181124980Y-89312001D01*
X181022203Y-89322500D01*
X181022200Y-89322501D01*
X180855668Y-89377685D01*
X180855663Y-89377687D01*
X180706342Y-89469789D01*
X180587951Y-89588181D01*
X180526628Y-89621666D01*
X180500270Y-89624500D01*
X177551080Y-89624500D01*
X177406092Y-89653340D01*
X177406082Y-89653343D01*
X177269509Y-89709913D01*
X177269504Y-89709916D01*
X177251931Y-89721658D01*
X177146585Y-89792046D01*
X177146578Y-89792052D01*
X175225451Y-91713181D01*
X175164128Y-91746666D01*
X175137770Y-91749500D01*
X169937312Y-91749500D01*
X169870273Y-91729815D01*
X169824518Y-91677011D01*
X169822751Y-91672953D01*
X169798045Y-91613309D01*
X169798041Y-91613299D01*
X169666924Y-91386196D01*
X169507281Y-91178148D01*
X169507274Y-91178140D01*
X169321860Y-90992726D01*
X169321851Y-90992718D01*
X169113803Y-90833075D01*
X168886700Y-90701958D01*
X168886690Y-90701953D01*
X168644428Y-90601605D01*
X168644421Y-90601603D01*
X168644419Y-90601602D01*
X168391116Y-90533730D01*
X168333339Y-90526123D01*
X168131127Y-90499500D01*
X168131120Y-90499500D01*
X167868880Y-90499500D01*
X167868872Y-90499500D01*
X167637772Y-90529926D01*
X167608884Y-90533730D01*
X167355581Y-90601602D01*
X167355571Y-90601605D01*
X167113309Y-90701953D01*
X167113299Y-90701958D01*
X166886196Y-90833075D01*
X166678148Y-90992718D01*
X166492718Y-91178148D01*
X166333075Y-91386196D01*
X166201958Y-91613299D01*
X166201953Y-91613309D01*
X166101605Y-91855571D01*
X166101602Y-91855581D01*
X166035468Y-92102400D01*
X166033730Y-92108885D01*
X165999500Y-92368872D01*
X165999500Y-92631127D01*
X166026123Y-92833339D01*
X166033730Y-92891116D01*
X166098325Y-93132189D01*
X166101602Y-93144418D01*
X166101605Y-93144428D01*
X166201953Y-93386690D01*
X166201958Y-93386700D01*
X166333075Y-93613803D01*
X166492718Y-93821851D01*
X166492726Y-93821860D01*
X166678140Y-94007274D01*
X166678148Y-94007281D01*
X166886196Y-94166924D01*
X167113299Y-94298041D01*
X167113309Y-94298046D01*
X167320932Y-94384046D01*
X167355581Y-94398398D01*
X167608884Y-94466270D01*
X167868880Y-94500500D01*
X167868887Y-94500500D01*
X168131113Y-94500500D01*
X168131120Y-94500500D01*
X168391116Y-94466270D01*
X168644419Y-94398398D01*
X168879264Y-94301122D01*
X168886690Y-94298046D01*
X168886691Y-94298045D01*
X168886697Y-94298043D01*
X169113803Y-94166924D01*
X169321851Y-94007282D01*
X169321855Y-94007277D01*
X169321860Y-94007274D01*
X169507274Y-93821860D01*
X169507277Y-93821855D01*
X169507282Y-93821851D01*
X169666924Y-93613803D01*
X169798043Y-93386697D01*
X169822751Y-93327047D01*
X169866592Y-93272644D01*
X169932886Y-93250579D01*
X169937312Y-93250500D01*
X175573920Y-93250500D01*
X175671462Y-93231096D01*
X175718913Y-93221658D01*
X175855495Y-93165084D01*
X175904729Y-93132186D01*
X175978416Y-93082952D01*
X176123885Y-92937483D01*
X180424500Y-92937483D01*
X180424500Y-93662501D01*
X180424501Y-93662519D01*
X180435000Y-93765296D01*
X180435001Y-93765299D01*
X180453741Y-93821851D01*
X180490186Y-93931834D01*
X180582288Y-94081156D01*
X180706344Y-94205212D01*
X180855666Y-94297314D01*
X180964505Y-94333379D01*
X181021949Y-94373152D01*
X181048772Y-94437667D01*
X181049500Y-94451085D01*
X181049500Y-97619551D01*
X181029815Y-97686590D01*
X180977011Y-97732345D01*
X180964507Y-97737256D01*
X180955667Y-97740185D01*
X180806342Y-97832289D01*
X180682289Y-97956342D01*
X180590187Y-98105663D01*
X180590187Y-98105664D01*
X180590186Y-98105666D01*
X180535001Y-98272203D01*
X180535001Y-98272204D01*
X180535000Y-98272204D01*
X180524500Y-98374983D01*
X180524500Y-99225001D01*
X180524501Y-99225019D01*
X180535000Y-99327796D01*
X180535001Y-99327799D01*
X180590185Y-99494331D01*
X180590187Y-99494336D01*
X180625069Y-99550888D01*
X180682288Y-99643656D01*
X180806344Y-99767712D01*
X180955666Y-99859814D01*
X181122203Y-99914999D01*
X181224991Y-99925500D01*
X182575008Y-99925499D01*
X182677797Y-99914999D01*
X182844334Y-99859814D01*
X182944029Y-99798322D01*
X192500001Y-99798322D01*
X192510144Y-99897607D01*
X192563452Y-100058481D01*
X192563457Y-100058492D01*
X192652424Y-100202728D01*
X192652427Y-100202732D01*
X192772267Y-100322572D01*
X192772271Y-100322575D01*
X192916507Y-100411542D01*
X192916518Y-100411547D01*
X193077393Y-100464855D01*
X193176683Y-100474999D01*
X193200000Y-100474998D01*
X193200000Y-99750000D01*
X192500001Y-99750000D01*
X192500001Y-99798322D01*
X182944029Y-99798322D01*
X182993656Y-99767712D01*
X183117712Y-99643656D01*
X183209814Y-99494334D01*
X183264999Y-99327797D01*
X183275500Y-99225009D01*
X183275500Y-99201677D01*
X192500000Y-99201677D01*
X192500000Y-99250000D01*
X193200000Y-99250000D01*
X193200000Y-98524999D01*
X193176693Y-98525000D01*
X193176674Y-98525001D01*
X193077392Y-98535144D01*
X192916518Y-98588452D01*
X192916507Y-98588457D01*
X192772271Y-98677424D01*
X192772267Y-98677427D01*
X192652427Y-98797267D01*
X192652424Y-98797271D01*
X192563457Y-98941507D01*
X192563452Y-98941518D01*
X192510144Y-99102393D01*
X192500000Y-99201677D01*
X183275500Y-99201677D01*
X183275499Y-98797271D01*
X183275499Y-98374998D01*
X183275498Y-98374980D01*
X183264999Y-98272203D01*
X183264998Y-98272200D01*
X183249031Y-98224016D01*
X183209814Y-98105666D01*
X183117712Y-97956344D01*
X182993656Y-97832288D01*
X182844334Y-97740186D01*
X182677797Y-97685001D01*
X182673965Y-97684609D01*
X182661894Y-97683376D01*
X182597203Y-97656978D01*
X182557053Y-97599796D01*
X182550500Y-97560018D01*
X182550500Y-94451085D01*
X182570185Y-94384046D01*
X182622989Y-94338291D01*
X182635489Y-94333381D01*
X182732920Y-94301096D01*
X192750000Y-94301096D01*
X192752897Y-94343824D01*
X192798831Y-94528523D01*
X192883390Y-94699022D01*
X192883392Y-94699025D01*
X193002632Y-94847366D01*
X193002633Y-94847367D01*
X193150974Y-94966607D01*
X193150977Y-94966609D01*
X193321476Y-95051168D01*
X193506175Y-95097102D01*
X193548903Y-95100000D01*
X193750000Y-95100000D01*
X193750000Y-93850000D01*
X192750000Y-93850000D01*
X192750000Y-94301096D01*
X182732920Y-94301096D01*
X182744334Y-94297314D01*
X182893656Y-94205212D01*
X183017712Y-94081156D01*
X183109814Y-93931834D01*
X183164999Y-93765297D01*
X183175500Y-93662509D01*
X183175499Y-92937492D01*
X183171557Y-92898903D01*
X192750000Y-92898903D01*
X192750000Y-93350000D01*
X193750000Y-93350000D01*
X193750000Y-92100000D01*
X193548903Y-92100000D01*
X193506175Y-92102897D01*
X193321476Y-92148831D01*
X193150977Y-92233390D01*
X193150974Y-92233392D01*
X193002633Y-92352632D01*
X193002632Y-92352633D01*
X192883392Y-92500974D01*
X192883390Y-92500977D01*
X192798831Y-92671476D01*
X192752897Y-92856175D01*
X192750000Y-92898903D01*
X183171557Y-92898903D01*
X183171554Y-92898877D01*
X183164999Y-92834703D01*
X183164998Y-92834700D01*
X183138036Y-92753334D01*
X183109814Y-92668166D01*
X183017712Y-92518844D01*
X182893656Y-92394788D01*
X182744334Y-92302686D01*
X182577797Y-92247501D01*
X182577795Y-92247500D01*
X182475010Y-92237000D01*
X181124998Y-92237000D01*
X181124981Y-92237001D01*
X181022203Y-92247500D01*
X181022200Y-92247501D01*
X180855668Y-92302685D01*
X180855663Y-92302687D01*
X180706342Y-92394789D01*
X180582289Y-92518842D01*
X180490187Y-92668163D01*
X180490186Y-92668166D01*
X180435001Y-92834703D01*
X180435001Y-92834704D01*
X180435000Y-92834704D01*
X180424500Y-92937483D01*
X176123885Y-92937483D01*
X177899549Y-91161819D01*
X177960872Y-91128334D01*
X177987230Y-91125500D01*
X180500270Y-91125500D01*
X180567309Y-91145185D01*
X180587951Y-91161819D01*
X180706344Y-91280212D01*
X180855666Y-91372314D01*
X181022203Y-91427499D01*
X181124991Y-91438000D01*
X182475008Y-91437999D01*
X182577797Y-91427499D01*
X182744334Y-91372314D01*
X182893656Y-91280212D01*
X183017712Y-91156156D01*
X183109814Y-91006834D01*
X183164999Y-90840297D01*
X183175500Y-90737509D01*
X183175499Y-90112228D01*
X183195183Y-90045190D01*
X183211813Y-90024553D01*
X186082951Y-87153416D01*
X186165084Y-87030495D01*
X186221658Y-86893913D01*
X186250500Y-86748918D01*
X186250500Y-86601083D01*
X186250500Y-84874500D01*
X186270185Y-84807461D01*
X186322989Y-84761706D01*
X186374500Y-84750500D01*
X200625500Y-84750500D01*
X200692539Y-84770185D01*
X200738294Y-84822989D01*
X200749500Y-84874500D01*
X200749500Y-89073918D01*
X200749500Y-89073920D01*
X200749499Y-89073920D01*
X200778340Y-89218907D01*
X200778343Y-89218917D01*
X200834912Y-89355488D01*
X200834919Y-89355501D01*
X200917048Y-89478415D01*
X200917051Y-89478419D01*
X201021580Y-89582948D01*
X201021584Y-89582951D01*
X201144498Y-89665080D01*
X201144511Y-89665087D01*
X201252732Y-89709913D01*
X201281087Y-89721658D01*
X201281091Y-89721658D01*
X201281092Y-89721659D01*
X201426079Y-89750500D01*
X201426082Y-89750500D01*
X201573918Y-89750500D01*
X217637770Y-89750500D01*
X217704809Y-89770185D01*
X217725451Y-89786819D01*
X218213181Y-90274548D01*
X218246666Y-90335871D01*
X218249500Y-90362229D01*
X218249500Y-94125500D01*
X218246949Y-94134185D01*
X218248238Y-94143147D01*
X218237259Y-94167187D01*
X218229815Y-94192539D01*
X218222974Y-94198466D01*
X218219213Y-94206703D01*
X218196978Y-94220992D01*
X218177011Y-94238294D01*
X218166496Y-94240581D01*
X218160435Y-94244477D01*
X218125500Y-94249500D01*
X218124500Y-94249500D01*
X218057461Y-94229815D01*
X218011706Y-94177011D01*
X218000500Y-94125500D01*
X218000499Y-91152129D01*
X218000498Y-91152123D01*
X218000497Y-91152116D01*
X217994091Y-91092517D01*
X217962133Y-91006834D01*
X217943797Y-90957671D01*
X217943793Y-90957664D01*
X217857547Y-90842455D01*
X217857544Y-90842452D01*
X217742335Y-90756206D01*
X217742328Y-90756202D01*
X217607482Y-90705908D01*
X217607483Y-90705908D01*
X217547883Y-90699501D01*
X217547881Y-90699500D01*
X217547873Y-90699500D01*
X217547864Y-90699500D01*
X214452129Y-90699500D01*
X214452123Y-90699501D01*
X214392516Y-90705908D01*
X214257671Y-90756202D01*
X214257664Y-90756206D01*
X214142455Y-90842452D01*
X214142452Y-90842455D01*
X214056206Y-90957664D01*
X214056202Y-90957671D01*
X214005908Y-91092517D01*
X214002058Y-91128334D01*
X213999501Y-91152123D01*
X213999500Y-91152135D01*
X213999500Y-91825500D01*
X213979815Y-91892539D01*
X213927011Y-91938294D01*
X213875500Y-91949500D01*
X210062230Y-91949500D01*
X209995191Y-91929815D01*
X209974549Y-91913181D01*
X208478421Y-90417052D01*
X208478414Y-90417046D01*
X208404729Y-90367812D01*
X208404729Y-90367813D01*
X208355491Y-90334913D01*
X208218917Y-90278343D01*
X208218907Y-90278340D01*
X208073920Y-90249500D01*
X208073918Y-90249500D01*
X197174500Y-90249500D01*
X197107461Y-90229815D01*
X197061706Y-90177011D01*
X197050500Y-90125500D01*
X197050500Y-88924499D01*
X197070185Y-88857460D01*
X197122989Y-88811705D01*
X197174500Y-88800499D01*
X197758028Y-88800499D01*
X197758036Y-88800499D01*
X197877418Y-88789886D01*
X198073049Y-88733909D01*
X198253407Y-88639698D01*
X198411109Y-88511109D01*
X198539698Y-88353407D01*
X198633909Y-88173049D01*
X198689886Y-87977418D01*
X198700500Y-87858037D01*
X198700499Y-86741964D01*
X198689886Y-86622582D01*
X198633909Y-86426951D01*
X198539698Y-86246593D01*
X198431429Y-86113811D01*
X198411109Y-86088890D01*
X198253409Y-85960304D01*
X198253410Y-85960304D01*
X198253407Y-85960302D01*
X198073049Y-85866091D01*
X198073048Y-85866090D01*
X198073045Y-85866089D01*
X197955829Y-85832550D01*
X197877418Y-85810114D01*
X197877415Y-85810113D01*
X197877413Y-85810113D01*
X197811102Y-85804217D01*
X197758037Y-85799500D01*
X197758032Y-85799500D01*
X194841971Y-85799500D01*
X194841965Y-85799500D01*
X194841964Y-85799501D01*
X194830316Y-85800536D01*
X194722584Y-85810113D01*
X194526954Y-85866089D01*
X194436772Y-85913196D01*
X194346593Y-85960302D01*
X194346591Y-85960303D01*
X194346590Y-85960304D01*
X194188890Y-86088890D01*
X194060304Y-86246590D01*
X194060302Y-86246593D01*
X194059164Y-86248772D01*
X193966089Y-86426954D01*
X193935155Y-86535068D01*
X193912874Y-86612938D01*
X193910114Y-86622583D01*
X193910113Y-86622586D01*
X193899500Y-86741966D01*
X193899500Y-87858028D01*
X193899500Y-87858033D01*
X193899501Y-87858036D01*
X193900322Y-87867266D01*
X193910113Y-87977415D01*
X193966089Y-88173045D01*
X193966090Y-88173048D01*
X193966091Y-88173049D01*
X194060302Y-88353407D01*
X194060304Y-88353409D01*
X194188890Y-88511109D01*
X194282803Y-88587684D01*
X194346593Y-88639698D01*
X194526951Y-88733909D01*
X194722582Y-88789886D01*
X194841963Y-88800500D01*
X195425500Y-88800499D01*
X195492539Y-88820183D01*
X195538294Y-88872987D01*
X195549500Y-88924499D01*
X195549500Y-92107057D01*
X195529815Y-92174096D01*
X195480595Y-92218145D01*
X195450704Y-92232969D01*
X195302280Y-92352276D01*
X195302278Y-92352278D01*
X195288933Y-92368880D01*
X195246326Y-92421885D01*
X195188982Y-92461803D01*
X195119160Y-92464383D01*
X195059027Y-92428804D01*
X195053031Y-92421884D01*
X194997364Y-92352630D01*
X194849025Y-92233392D01*
X194849022Y-92233390D01*
X194678523Y-92148831D01*
X194493824Y-92102897D01*
X194451097Y-92100000D01*
X194250000Y-92100000D01*
X194250000Y-95100000D01*
X194451097Y-95100000D01*
X194493824Y-95097102D01*
X194678523Y-95051168D01*
X194849022Y-94966609D01*
X194849025Y-94966607D01*
X194997366Y-94847367D01*
X194997367Y-94847366D01*
X195053033Y-94778115D01*
X195110376Y-94738196D01*
X195180198Y-94735616D01*
X195240331Y-94771194D01*
X195246305Y-94778089D01*
X195302278Y-94847722D01*
X195302280Y-94847724D01*
X195450704Y-94967030D01*
X195480594Y-94981854D01*
X195531907Y-95029275D01*
X195549500Y-95092942D01*
X195549500Y-97337769D01*
X195529815Y-97404808D01*
X195513181Y-97425450D01*
X194417052Y-98521578D01*
X194417049Y-98521581D01*
X194377289Y-98581086D01*
X194377290Y-98581087D01*
X194334913Y-98644509D01*
X194332046Y-98649874D01*
X194330574Y-98649087D01*
X194291746Y-98697251D01*
X194225447Y-98719302D01*
X194157752Y-98702009D01*
X194133366Y-98683061D01*
X194127732Y-98677427D01*
X194127728Y-98677424D01*
X193983492Y-98588457D01*
X193983481Y-98588452D01*
X193822606Y-98535144D01*
X193723322Y-98525000D01*
X193700000Y-98525000D01*
X193700000Y-100474999D01*
X193723308Y-100474999D01*
X193723322Y-100474998D01*
X193822607Y-100464855D01*
X193983481Y-100411547D01*
X193983492Y-100411542D01*
X194127731Y-100322573D01*
X194127732Y-100322573D01*
X194133362Y-100316943D01*
X194194683Y-100283455D01*
X194264375Y-100288436D01*
X194320311Y-100330305D01*
X194325952Y-100338507D01*
X194331575Y-100347430D01*
X194334916Y-100355495D01*
X194364659Y-100400008D01*
X194365566Y-100401365D01*
X194365584Y-100401394D01*
X194417043Y-100478410D01*
X194417047Y-100478415D01*
X194488181Y-100549549D01*
X194521666Y-100610872D01*
X194524500Y-100637230D01*
X194524500Y-102163132D01*
X194504815Y-102230171D01*
X194485616Y-102251346D01*
X194486451Y-102252181D01*
X194357289Y-102381342D01*
X194265187Y-102530663D01*
X194265185Y-102530668D01*
X194253042Y-102567315D01*
X194210001Y-102697203D01*
X194210001Y-102697204D01*
X194210000Y-102697204D01*
X194199500Y-102799983D01*
X194199500Y-104200001D01*
X194199501Y-104200018D01*
X194210000Y-104302796D01*
X194210001Y-104302799D01*
X194263727Y-104464931D01*
X194265186Y-104469334D01*
X194357288Y-104618656D01*
X194481344Y-104742712D01*
X194630666Y-104834814D01*
X194797203Y-104889999D01*
X194899991Y-104900500D01*
X195650008Y-104900499D01*
X195650016Y-104900498D01*
X195650019Y-104900498D01*
X195706302Y-104894748D01*
X195752797Y-104889999D01*
X195919334Y-104834814D01*
X196068656Y-104742712D01*
X196192712Y-104618656D01*
X196284814Y-104469334D01*
X196339999Y-104302797D01*
X196350500Y-104200009D01*
X196350500Y-103998322D01*
X198600001Y-103998322D01*
X198610144Y-104097607D01*
X198663452Y-104258481D01*
X198663457Y-104258492D01*
X198752424Y-104402728D01*
X198752427Y-104402732D01*
X198872267Y-104522572D01*
X198872271Y-104522575D01*
X199016507Y-104611542D01*
X199016518Y-104611547D01*
X199177393Y-104664855D01*
X199276683Y-104674999D01*
X199300000Y-104674998D01*
X199300000Y-103950000D01*
X198600001Y-103950000D01*
X198600001Y-103998322D01*
X196350500Y-103998322D01*
X196350499Y-103401677D01*
X198600000Y-103401677D01*
X198600000Y-103450000D01*
X199300000Y-103450000D01*
X199300000Y-102724999D01*
X199276693Y-102725000D01*
X199276674Y-102725001D01*
X199177392Y-102735144D01*
X199016518Y-102788452D01*
X199016507Y-102788457D01*
X198872271Y-102877424D01*
X198872267Y-102877427D01*
X198752427Y-102997267D01*
X198752424Y-102997271D01*
X198663457Y-103141507D01*
X198663452Y-103141518D01*
X198610144Y-103302393D01*
X198600000Y-103401677D01*
X196350499Y-103401677D01*
X196350499Y-102799992D01*
X196342838Y-102725000D01*
X196339999Y-102697203D01*
X196339998Y-102697200D01*
X196289644Y-102545243D01*
X196284814Y-102530666D01*
X196192712Y-102381344D01*
X196068656Y-102257288D01*
X196063549Y-102252181D01*
X196065435Y-102250294D01*
X196032212Y-102203375D01*
X196025500Y-102163132D01*
X196025500Y-100399986D01*
X197575001Y-100399986D01*
X197585494Y-100502697D01*
X197640641Y-100669119D01*
X197640643Y-100669124D01*
X197732684Y-100818345D01*
X197856654Y-100942315D01*
X198005875Y-101034356D01*
X198005880Y-101034358D01*
X198172302Y-101089505D01*
X198172309Y-101089506D01*
X198275019Y-101099999D01*
X198399999Y-101099999D01*
X198900000Y-101099999D01*
X199024972Y-101099999D01*
X199024986Y-101099998D01*
X199127697Y-101089505D01*
X199294119Y-101034358D01*
X199294124Y-101034356D01*
X199443345Y-100942315D01*
X199567315Y-100818345D01*
X199659356Y-100669124D01*
X199659358Y-100669119D01*
X199714505Y-100502697D01*
X199714506Y-100502690D01*
X199724999Y-100399986D01*
X199725000Y-100399973D01*
X199725000Y-99950000D01*
X198900000Y-99950000D01*
X198900000Y-101099999D01*
X198399999Y-101099999D01*
X198400000Y-101099998D01*
X198400000Y-99950000D01*
X197575001Y-99950000D01*
X197575001Y-100399986D01*
X196025500Y-100399986D01*
X196025500Y-100201079D01*
X196016352Y-100155097D01*
X196002002Y-100082951D01*
X195996659Y-100056088D01*
X195963518Y-99976080D01*
X195950018Y-99943488D01*
X195949061Y-99940844D01*
X195948424Y-99930542D01*
X195941691Y-99884567D01*
X195950499Y-99798352D01*
X195950500Y-99798345D01*
X195950499Y-99201656D01*
X195948072Y-99177900D01*
X195948429Y-99175977D01*
X195947746Y-99174144D01*
X195954787Y-99141776D01*
X195960841Y-99109209D01*
X195962313Y-99107178D01*
X195962598Y-99105871D01*
X195983746Y-99077620D01*
X196061353Y-99000013D01*
X197575000Y-99000013D01*
X197575000Y-99450000D01*
X198400000Y-99450000D01*
X198400000Y-98300000D01*
X198275027Y-98300000D01*
X198275012Y-98300001D01*
X198172302Y-98310494D01*
X198005880Y-98365641D01*
X198005875Y-98365643D01*
X197856654Y-98457684D01*
X197732684Y-98581654D01*
X197640643Y-98730875D01*
X197640641Y-98730880D01*
X197585494Y-98897302D01*
X197585493Y-98897309D01*
X197575000Y-99000013D01*
X196061353Y-99000013D01*
X196882952Y-98178415D01*
X196931561Y-98105666D01*
X196965084Y-98055495D01*
X197006154Y-97956344D01*
X197021659Y-97918912D01*
X197050500Y-97773917D01*
X197050500Y-97626082D01*
X197050500Y-95092942D01*
X197070185Y-95025903D01*
X197119406Y-94981854D01*
X197120399Y-94981361D01*
X197149296Y-94967030D01*
X197297722Y-94847722D01*
X197353353Y-94778514D01*
X197410696Y-94738595D01*
X197480518Y-94736015D01*
X197540651Y-94771594D01*
X197546647Y-94778514D01*
X197602277Y-94847721D01*
X197602278Y-94847722D01*
X197750704Y-94967030D01*
X197780594Y-94981854D01*
X197831907Y-95029275D01*
X197849500Y-95092942D01*
X197849500Y-96773918D01*
X197849500Y-96773920D01*
X197849499Y-96773920D01*
X197878340Y-96918907D01*
X197878343Y-96918917D01*
X197934914Y-97055492D01*
X197967812Y-97104727D01*
X197967813Y-97104730D01*
X198017046Y-97178414D01*
X198017052Y-97178421D01*
X198258637Y-97420005D01*
X198931635Y-98093003D01*
X198965120Y-98154325D01*
X198960136Y-98224016D01*
X198931636Y-98268364D01*
X198900000Y-98300000D01*
X198900000Y-99450000D01*
X199724999Y-99450000D01*
X199724999Y-99185728D01*
X199744684Y-99118689D01*
X199797488Y-99072934D01*
X199866646Y-99062990D01*
X199930202Y-99092015D01*
X199936680Y-99098047D01*
X200488181Y-99649548D01*
X200521666Y-99710871D01*
X200524500Y-99737229D01*
X200524500Y-100400001D01*
X200524501Y-100400008D01*
X200535000Y-100502796D01*
X200535001Y-100502799D01*
X200578041Y-100632684D01*
X200590186Y-100669334D01*
X200682096Y-100818345D01*
X200682289Y-100818657D01*
X200811451Y-100947819D01*
X200809559Y-100949710D01*
X200842774Y-100996583D01*
X200849500Y-101036867D01*
X200849500Y-102610188D01*
X200829815Y-102677227D01*
X200777011Y-102722982D01*
X200738107Y-102733545D01*
X200727298Y-102734649D01*
X200727289Y-102734651D01*
X200566305Y-102787996D01*
X200566294Y-102788001D01*
X200421959Y-102877029D01*
X200421953Y-102877033D01*
X200412324Y-102886663D01*
X200351000Y-102920146D01*
X200281308Y-102915159D01*
X200236965Y-102886660D01*
X200227732Y-102877427D01*
X200227728Y-102877424D01*
X200083492Y-102788457D01*
X200083481Y-102788452D01*
X199922606Y-102735144D01*
X199823322Y-102725000D01*
X199800000Y-102725000D01*
X199800000Y-104674999D01*
X199823308Y-104674999D01*
X199823322Y-104674998D01*
X199922607Y-104664855D01*
X200083481Y-104611547D01*
X200083492Y-104611542D01*
X200227731Y-104522573D01*
X200236959Y-104513345D01*
X200298279Y-104479856D01*
X200367971Y-104484835D01*
X200412327Y-104513339D01*
X200421955Y-104522967D01*
X200421959Y-104522970D01*
X200566294Y-104611998D01*
X200566297Y-104611999D01*
X200566303Y-104612003D01*
X200727292Y-104665349D01*
X200826655Y-104675500D01*
X201373344Y-104675499D01*
X201373352Y-104675498D01*
X201373355Y-104675498D01*
X201427760Y-104669940D01*
X201472708Y-104665349D01*
X201633697Y-104612003D01*
X201778044Y-104522968D01*
X201897968Y-104403044D01*
X201987003Y-104258697D01*
X202040349Y-104097708D01*
X202050500Y-103998345D01*
X202050499Y-103862230D01*
X202070183Y-103795191D01*
X202086819Y-103774548D01*
X202182947Y-103678421D01*
X202182947Y-103678420D01*
X202182952Y-103678416D01*
X202234065Y-103601918D01*
X202265084Y-103555495D01*
X202321658Y-103418913D01*
X202350500Y-103273918D01*
X202350500Y-101036867D01*
X202370185Y-100969828D01*
X202389386Y-100948656D01*
X202388549Y-100947819D01*
X202430493Y-100905875D01*
X202517712Y-100818656D01*
X202609814Y-100669334D01*
X202664999Y-100502797D01*
X202675500Y-100400009D01*
X202675499Y-98999992D01*
X202664999Y-98897203D01*
X202609814Y-98730666D01*
X202517712Y-98581344D01*
X202393656Y-98457288D01*
X202244334Y-98365186D01*
X202077797Y-98310001D01*
X202077795Y-98310000D01*
X201975016Y-98299500D01*
X201975009Y-98299500D01*
X201312230Y-98299500D01*
X201245191Y-98279815D01*
X201224549Y-98263181D01*
X199386819Y-96425451D01*
X199353334Y-96364128D01*
X199350500Y-96337770D01*
X199350500Y-95092942D01*
X199370185Y-95025903D01*
X199419406Y-94981854D01*
X199420399Y-94981361D01*
X199449296Y-94967030D01*
X199597722Y-94847722D01*
X199717030Y-94699296D01*
X199801641Y-94528693D01*
X199847600Y-94343889D01*
X199850500Y-94301123D01*
X199850499Y-93462228D01*
X199870183Y-93395190D01*
X199886813Y-93374553D01*
X200474549Y-92786819D01*
X200535872Y-92753334D01*
X200562230Y-92750500D01*
X206637770Y-92750500D01*
X206704809Y-92770185D01*
X206725451Y-92786819D01*
X208417049Y-94478416D01*
X208521584Y-94582951D01*
X208521585Y-94582952D01*
X208644498Y-94665080D01*
X208644511Y-94665087D01*
X208727100Y-94699296D01*
X208781087Y-94721658D01*
X208781091Y-94721658D01*
X208781092Y-94721659D01*
X208926079Y-94750500D01*
X208926082Y-94750500D01*
X208926083Y-94750500D01*
X209073917Y-94750500D01*
X210137770Y-94750500D01*
X210204809Y-94770185D01*
X210225451Y-94786819D01*
X210917049Y-95478416D01*
X211021584Y-95582951D01*
X211021587Y-95582953D01*
X211021588Y-95582954D01*
X211144503Y-95665083D01*
X211144506Y-95665085D01*
X211194665Y-95685861D01*
X211201080Y-95688518D01*
X211281088Y-95721659D01*
X211397241Y-95744763D01*
X211420380Y-95749365D01*
X211426081Y-95750500D01*
X215052423Y-95750500D01*
X215119462Y-95770185D01*
X215165217Y-95822989D01*
X215175161Y-95892147D01*
X215146136Y-95955703D01*
X215114423Y-95981887D01*
X214886471Y-96113496D01*
X214773633Y-96200079D01*
X214773633Y-96200080D01*
X215668321Y-97094768D01*
X215640005Y-97106497D01*
X215515528Y-97189670D01*
X215409670Y-97295528D01*
X215326497Y-97420005D01*
X215314768Y-97448321D01*
X214420080Y-96553633D01*
X214420079Y-96553633D01*
X214333496Y-96666471D01*
X214202409Y-96893517D01*
X214202404Y-96893528D01*
X214102075Y-97135744D01*
X214034222Y-97388979D01*
X214034220Y-97388990D01*
X214000000Y-97648905D01*
X214000000Y-97911094D01*
X214034220Y-98171009D01*
X214034222Y-98171020D01*
X214102075Y-98424255D01*
X214202404Y-98666471D01*
X214202409Y-98666482D01*
X214333488Y-98893516D01*
X214333494Y-98893524D01*
X214420080Y-99006365D01*
X215314767Y-98111677D01*
X215326497Y-98139995D01*
X215409670Y-98264472D01*
X215515528Y-98370330D01*
X215640005Y-98453503D01*
X215668320Y-98465231D01*
X214773633Y-99359917D01*
X214773633Y-99359918D01*
X214886475Y-99446505D01*
X214886483Y-99446511D01*
X215113517Y-99577590D01*
X215113528Y-99577595D01*
X215355744Y-99677924D01*
X215608979Y-99745777D01*
X215608990Y-99745779D01*
X215868905Y-99779999D01*
X215868920Y-99780000D01*
X216131080Y-99780000D01*
X216131094Y-99779999D01*
X216391009Y-99745779D01*
X216391020Y-99745777D01*
X216644255Y-99677924D01*
X216886471Y-99577595D01*
X216886482Y-99577590D01*
X217113516Y-99446511D01*
X217113534Y-99446499D01*
X217226365Y-99359919D01*
X217226365Y-99359917D01*
X216331679Y-98465231D01*
X216359995Y-98453503D01*
X216484472Y-98370330D01*
X216590330Y-98264472D01*
X216673503Y-98139995D01*
X216685231Y-98111679D01*
X217579917Y-99006365D01*
X217579919Y-99006365D01*
X217666499Y-98893534D01*
X217666511Y-98893516D01*
X217797590Y-98666482D01*
X217797595Y-98666471D01*
X217897924Y-98424255D01*
X217965777Y-98171020D01*
X217965779Y-98171009D01*
X217999999Y-97911094D01*
X218000000Y-97911080D01*
X218000000Y-97648919D01*
X217999999Y-97648905D01*
X217965779Y-97388990D01*
X217965777Y-97388979D01*
X217897924Y-97135744D01*
X217797595Y-96893528D01*
X217797590Y-96893517D01*
X217666511Y-96666483D01*
X217666505Y-96666475D01*
X217579918Y-96553633D01*
X217579917Y-96553633D01*
X216685231Y-97448319D01*
X216673503Y-97420005D01*
X216590330Y-97295528D01*
X216484472Y-97189670D01*
X216359995Y-97106497D01*
X216331677Y-97094767D01*
X217226365Y-96200080D01*
X217113524Y-96113494D01*
X217113516Y-96113488D01*
X216885577Y-95981887D01*
X216837361Y-95931320D01*
X216824139Y-95862713D01*
X216850107Y-95797848D01*
X216907021Y-95757320D01*
X216947577Y-95750500D01*
X219073920Y-95750500D01*
X219171462Y-95731096D01*
X219218913Y-95721658D01*
X219328048Y-95676452D01*
X219397515Y-95668984D01*
X219459995Y-95700259D01*
X219495647Y-95760348D01*
X219499499Y-95791014D01*
X219499499Y-102023706D01*
X219499427Y-102027940D01*
X219481755Y-102545243D01*
X219481177Y-102553690D01*
X219428459Y-103066491D01*
X219427306Y-103074879D01*
X219339715Y-103582892D01*
X219337992Y-103591182D01*
X219215942Y-104092020D01*
X219213658Y-104100173D01*
X219057709Y-104591524D01*
X219054874Y-104599502D01*
X218865754Y-105079080D01*
X218862380Y-105086846D01*
X218640986Y-105552370D01*
X218637091Y-105559888D01*
X218384434Y-106009238D01*
X218380035Y-106016472D01*
X218097302Y-106447534D01*
X218092419Y-106454452D01*
X217780930Y-106865210D01*
X217775587Y-106871777D01*
X217436802Y-107260313D01*
X217431022Y-107266501D01*
X217066501Y-107631022D01*
X217060313Y-107636802D01*
X216671777Y-107975587D01*
X216665210Y-107980930D01*
X216254452Y-108292419D01*
X216247534Y-108297302D01*
X215816472Y-108580035D01*
X215809238Y-108584434D01*
X215359888Y-108837091D01*
X215352370Y-108840986D01*
X214886846Y-109062380D01*
X214879080Y-109065754D01*
X214399502Y-109254874D01*
X214391524Y-109257709D01*
X213900173Y-109413658D01*
X213892020Y-109415942D01*
X213391182Y-109537992D01*
X213382892Y-109539715D01*
X212874879Y-109627306D01*
X212866491Y-109628459D01*
X212353690Y-109681177D01*
X212345242Y-109681755D01*
X211827954Y-109699425D01*
X211823640Y-109699497D01*
X172248389Y-109673744D01*
X172240246Y-109673738D01*
X172240089Y-109673697D01*
X172176261Y-109673697D01*
X172176256Y-109673695D01*
X172172109Y-109673625D01*
X171654757Y-109655952D01*
X171646309Y-109655374D01*
X171133508Y-109602656D01*
X171125120Y-109601503D01*
X170617107Y-109513912D01*
X170608817Y-109512189D01*
X170107979Y-109390139D01*
X170099826Y-109387855D01*
X170045199Y-109370517D01*
X169608471Y-109231905D01*
X169600497Y-109229071D01*
X169120920Y-109039950D01*
X169113154Y-109036577D01*
X168647630Y-108815183D01*
X168640112Y-108811288D01*
X168190751Y-108558625D01*
X168183517Y-108554225D01*
X167752476Y-108271504D01*
X167745559Y-108266622D01*
X167334791Y-107955127D01*
X167328231Y-107949791D01*
X166939671Y-107610984D01*
X166933499Y-107605219D01*
X166568978Y-107240698D01*
X166563214Y-107234527D01*
X166224404Y-106845963D01*
X166219070Y-106839406D01*
X165907582Y-106428648D01*
X165902699Y-106421731D01*
X165789255Y-106248772D01*
X165619966Y-105990669D01*
X165615567Y-105983435D01*
X165429017Y-105651657D01*
X165362902Y-105534072D01*
X165359021Y-105526580D01*
X165274252Y-105348336D01*
X167632774Y-105348336D01*
X167632774Y-105651663D01*
X167666731Y-105953048D01*
X167666734Y-105953062D01*
X167734227Y-106248771D01*
X167734231Y-106248783D01*
X167834407Y-106535068D01*
X167966007Y-106808338D01*
X167966009Y-106808341D01*
X168127382Y-107065164D01*
X168316495Y-107302304D01*
X168530970Y-107516779D01*
X168768110Y-107705892D01*
X169024933Y-107867265D01*
X169298209Y-107998868D01*
X169513225Y-108074105D01*
X169584490Y-108099042D01*
X169584502Y-108099046D01*
X169880211Y-108166540D01*
X169880220Y-108166541D01*
X169880225Y-108166542D01*
X170081148Y-108189180D01*
X170181611Y-108200499D01*
X170181614Y-108200500D01*
X170181617Y-108200500D01*
X170484934Y-108200500D01*
X170484935Y-108200499D01*
X170638968Y-108183144D01*
X170786322Y-108166542D01*
X170786325Y-108166541D01*
X170786337Y-108166540D01*
X171082046Y-108099046D01*
X171368339Y-107998868D01*
X171641615Y-107867265D01*
X171898438Y-107705892D01*
X172135578Y-107516779D01*
X172350053Y-107302304D01*
X172539166Y-107065164D01*
X172700539Y-106808341D01*
X172832142Y-106535065D01*
X172932320Y-106248772D01*
X172999814Y-105953063D01*
X173033774Y-105651657D01*
X173033774Y-105348343D01*
X173033773Y-105348336D01*
X211299500Y-105348336D01*
X211299500Y-105651663D01*
X211333457Y-105953048D01*
X211333460Y-105953062D01*
X211400953Y-106248771D01*
X211400957Y-106248783D01*
X211501133Y-106535068D01*
X211632733Y-106808338D01*
X211632735Y-106808341D01*
X211794108Y-107065164D01*
X211983221Y-107302304D01*
X212197696Y-107516779D01*
X212434836Y-107705892D01*
X212691659Y-107867265D01*
X212964935Y-107998868D01*
X213179951Y-108074105D01*
X213251216Y-108099042D01*
X213251228Y-108099046D01*
X213546937Y-108166540D01*
X213546946Y-108166541D01*
X213546951Y-108166542D01*
X213747874Y-108189180D01*
X213848337Y-108200499D01*
X213848340Y-108200500D01*
X213848343Y-108200500D01*
X214151660Y-108200500D01*
X214151661Y-108200499D01*
X214305694Y-108183144D01*
X214453048Y-108166542D01*
X214453051Y-108166541D01*
X214453063Y-108166540D01*
X214748772Y-108099046D01*
X215035065Y-107998868D01*
X215308341Y-107867265D01*
X215565164Y-107705892D01*
X215802304Y-107516779D01*
X216016779Y-107302304D01*
X216205892Y-107065164D01*
X216367265Y-106808341D01*
X216498868Y-106535065D01*
X216599046Y-106248772D01*
X216666540Y-105953063D01*
X216700500Y-105651657D01*
X216700500Y-105348343D01*
X216670162Y-105079080D01*
X216666542Y-105046951D01*
X216666541Y-105046946D01*
X216666540Y-105046937D01*
X216599046Y-104751228D01*
X216596065Y-104742710D01*
X216568823Y-104664855D01*
X216498868Y-104464935D01*
X216399445Y-104258481D01*
X216367266Y-104191661D01*
X216308232Y-104097709D01*
X216205892Y-103934836D01*
X216016779Y-103697696D01*
X215802304Y-103483221D01*
X215565164Y-103294108D01*
X215308341Y-103132735D01*
X215308338Y-103132733D01*
X215035068Y-103001133D01*
X214748783Y-102900957D01*
X214748771Y-102900953D01*
X214520556Y-102848864D01*
X214453063Y-102833460D01*
X214453060Y-102833459D01*
X214453048Y-102833457D01*
X214151663Y-102799500D01*
X214151657Y-102799500D01*
X213848343Y-102799500D01*
X213848336Y-102799500D01*
X213546951Y-102833457D01*
X213546937Y-102833460D01*
X213251228Y-102900953D01*
X213251216Y-102900957D01*
X212964931Y-103001133D01*
X212691661Y-103132733D01*
X212434837Y-103294107D01*
X212197696Y-103483220D01*
X211983220Y-103697696D01*
X211794107Y-103934837D01*
X211632733Y-104191661D01*
X211501133Y-104464931D01*
X211400957Y-104751216D01*
X211400953Y-104751228D01*
X211333460Y-105046937D01*
X211333457Y-105046951D01*
X211299500Y-105348336D01*
X173033773Y-105348336D01*
X173003436Y-105079080D01*
X172999816Y-105046951D01*
X172999815Y-105046946D01*
X172999814Y-105046937D01*
X172932320Y-104751228D01*
X172929339Y-104742710D01*
X172902097Y-104664855D01*
X172832142Y-104464935D01*
X172732719Y-104258481D01*
X172704549Y-104199986D01*
X191250001Y-104199986D01*
X191260494Y-104302697D01*
X191315641Y-104469119D01*
X191315643Y-104469124D01*
X191407684Y-104618345D01*
X191531654Y-104742315D01*
X191680875Y-104834356D01*
X191680880Y-104834358D01*
X191847302Y-104889505D01*
X191847309Y-104889506D01*
X191950019Y-104899999D01*
X192074999Y-104899999D01*
X192575000Y-104899999D01*
X192699972Y-104899999D01*
X192699986Y-104899998D01*
X192802697Y-104889505D01*
X192969119Y-104834358D01*
X192969124Y-104834356D01*
X193118345Y-104742315D01*
X193242315Y-104618345D01*
X193334356Y-104469124D01*
X193334358Y-104469119D01*
X193389505Y-104302697D01*
X193389506Y-104302690D01*
X193399999Y-104199986D01*
X193400000Y-104199973D01*
X193400000Y-103750000D01*
X192575000Y-103750000D01*
X192575000Y-104899999D01*
X192074999Y-104899999D01*
X192075000Y-104899998D01*
X192075000Y-103750000D01*
X191250001Y-103750000D01*
X191250001Y-104199986D01*
X172704549Y-104199986D01*
X172700540Y-104191661D01*
X172641506Y-104097709D01*
X172539166Y-103934836D01*
X172412458Y-103775950D01*
X172412458Y-103775948D01*
X172350059Y-103697702D01*
X172135577Y-103483220D01*
X172033325Y-103401677D01*
X171898438Y-103294108D01*
X171641615Y-103132735D01*
X171641612Y-103132733D01*
X171368342Y-103001133D01*
X171082057Y-102900957D01*
X171082045Y-102900953D01*
X170853830Y-102848864D01*
X170786337Y-102833460D01*
X170786334Y-102833459D01*
X170786322Y-102833457D01*
X170489490Y-102800013D01*
X191250000Y-102800013D01*
X191250000Y-103250000D01*
X192075000Y-103250000D01*
X192575000Y-103250000D01*
X193399999Y-103250000D01*
X193399999Y-102800028D01*
X193399998Y-102800013D01*
X193389505Y-102697302D01*
X193334358Y-102530880D01*
X193334356Y-102530875D01*
X193242315Y-102381654D01*
X193118345Y-102257684D01*
X192969124Y-102165643D01*
X192969119Y-102165641D01*
X192802697Y-102110494D01*
X192802690Y-102110493D01*
X192699986Y-102100000D01*
X192575000Y-102100000D01*
X192575000Y-103250000D01*
X192075000Y-103250000D01*
X192075000Y-102100000D01*
X191950027Y-102100000D01*
X191950012Y-102100001D01*
X191847302Y-102110494D01*
X191680880Y-102165641D01*
X191680875Y-102165643D01*
X191531654Y-102257684D01*
X191407684Y-102381654D01*
X191315643Y-102530875D01*
X191315641Y-102530880D01*
X191260494Y-102697302D01*
X191260493Y-102697309D01*
X191250000Y-102800013D01*
X170489490Y-102800013D01*
X170484937Y-102799500D01*
X170484931Y-102799500D01*
X170181617Y-102799500D01*
X170181610Y-102799500D01*
X169880225Y-102833457D01*
X169880211Y-102833460D01*
X169584502Y-102900953D01*
X169584490Y-102900957D01*
X169298205Y-103001133D01*
X169024935Y-103132733D01*
X168768111Y-103294107D01*
X168530970Y-103483220D01*
X168316494Y-103697696D01*
X168127381Y-103934837D01*
X167966007Y-104191661D01*
X167834407Y-104464931D01*
X167734231Y-104751216D01*
X167734227Y-104751228D01*
X167666734Y-105046937D01*
X167666731Y-105046951D01*
X167632774Y-105348336D01*
X165274252Y-105348336D01*
X165137617Y-105061034D01*
X165134247Y-105053277D01*
X165131752Y-105046951D01*
X164962856Y-104618657D01*
X164945127Y-104573699D01*
X164942292Y-104565721D01*
X164858843Y-104302796D01*
X164786337Y-104074351D01*
X164784064Y-104066237D01*
X164662008Y-103565378D01*
X164660286Y-103557089D01*
X164633490Y-103401677D01*
X164572691Y-103049051D01*
X164571545Y-103040713D01*
X164518824Y-102527874D01*
X164518247Y-102519440D01*
X164501356Y-102024986D01*
X180525001Y-102024986D01*
X180535494Y-102127697D01*
X180590641Y-102294119D01*
X180590643Y-102294124D01*
X180682684Y-102443345D01*
X180806654Y-102567315D01*
X180955875Y-102659356D01*
X180955880Y-102659358D01*
X181122302Y-102714505D01*
X181122309Y-102714506D01*
X181225019Y-102724999D01*
X181649999Y-102724999D01*
X182150000Y-102724999D01*
X182574972Y-102724999D01*
X182574986Y-102724998D01*
X182677697Y-102714505D01*
X182784369Y-102679158D01*
X182844119Y-102659358D01*
X182844124Y-102659356D01*
X182993345Y-102567315D01*
X183117315Y-102443345D01*
X183209356Y-102294124D01*
X183209358Y-102294119D01*
X183264505Y-102127697D01*
X183264506Y-102127690D01*
X183274999Y-102024986D01*
X183275000Y-102024973D01*
X183275000Y-101850000D01*
X182150000Y-101850000D01*
X182150000Y-102724999D01*
X181649999Y-102724999D01*
X181650000Y-102724998D01*
X181650000Y-101850000D01*
X180525001Y-101850000D01*
X180525001Y-102024986D01*
X164501356Y-102024986D01*
X164500574Y-102002081D01*
X164500503Y-101997901D01*
X164500850Y-101175013D01*
X180525000Y-101175013D01*
X180525000Y-101350000D01*
X181650000Y-101350000D01*
X182150000Y-101350000D01*
X183274999Y-101350000D01*
X183274999Y-101175028D01*
X183274998Y-101175013D01*
X183264505Y-101072302D01*
X183209358Y-100905880D01*
X183209356Y-100905875D01*
X183117315Y-100756654D01*
X182993345Y-100632684D01*
X182844124Y-100540643D01*
X182844119Y-100540641D01*
X182677697Y-100485494D01*
X182677690Y-100485493D01*
X182574986Y-100475000D01*
X182150000Y-100475000D01*
X182150000Y-101350000D01*
X181650000Y-101350000D01*
X181650000Y-100475000D01*
X181225028Y-100475000D01*
X181225012Y-100475001D01*
X181122302Y-100485494D01*
X180955880Y-100540641D01*
X180955875Y-100540643D01*
X180806654Y-100632684D01*
X180682684Y-100756654D01*
X180590643Y-100905875D01*
X180590641Y-100905880D01*
X180535494Y-101072302D01*
X180535493Y-101072309D01*
X180525000Y-101175013D01*
X164500850Y-101175013D01*
X164503020Y-96032155D01*
X166000000Y-96032155D01*
X166000000Y-97330000D01*
X167280936Y-97330000D01*
X167269207Y-97358316D01*
X167240000Y-97505147D01*
X167240000Y-97654853D01*
X167269207Y-97801684D01*
X167280936Y-97830000D01*
X166000000Y-97830000D01*
X166000000Y-99127844D01*
X166006401Y-99187372D01*
X166006403Y-99187379D01*
X166056645Y-99322086D01*
X166056649Y-99322093D01*
X166142809Y-99437187D01*
X166142812Y-99437190D01*
X166257906Y-99523350D01*
X166257913Y-99523354D01*
X166392620Y-99573596D01*
X166392627Y-99573598D01*
X166452155Y-99579999D01*
X166452172Y-99580000D01*
X167750000Y-99580000D01*
X167750000Y-98299064D01*
X167778316Y-98310793D01*
X167925147Y-98340000D01*
X168074853Y-98340000D01*
X168221684Y-98310793D01*
X168250000Y-98299064D01*
X168250000Y-99580000D01*
X169547828Y-99580000D01*
X169547844Y-99579999D01*
X169607372Y-99573598D01*
X169607379Y-99573596D01*
X169742086Y-99523354D01*
X169742093Y-99523350D01*
X169857187Y-99437190D01*
X169857190Y-99437187D01*
X169943350Y-99322093D01*
X169943354Y-99322086D01*
X169993596Y-99187379D01*
X169993598Y-99187372D01*
X169999999Y-99127844D01*
X170000000Y-99127827D01*
X170000000Y-97830000D01*
X168719064Y-97830000D01*
X168730793Y-97801684D01*
X168760000Y-97654853D01*
X168760000Y-97505147D01*
X168730793Y-97358316D01*
X168719064Y-97330000D01*
X170000000Y-97330000D01*
X170000000Y-96032172D01*
X169999999Y-96032155D01*
X169993598Y-95972627D01*
X169993596Y-95972620D01*
X169943354Y-95837913D01*
X169943350Y-95837906D01*
X169857190Y-95722812D01*
X169857187Y-95722809D01*
X169742093Y-95636649D01*
X169742086Y-95636645D01*
X169607379Y-95586403D01*
X169607372Y-95586401D01*
X169547844Y-95580000D01*
X168250000Y-95580000D01*
X168250000Y-96860935D01*
X168221684Y-96849207D01*
X168074853Y-96820000D01*
X167925147Y-96820000D01*
X167778316Y-96849207D01*
X167750000Y-96860935D01*
X167750000Y-95580000D01*
X166452155Y-95580000D01*
X166392627Y-95586401D01*
X166392620Y-95586403D01*
X166257913Y-95636645D01*
X166257906Y-95636649D01*
X166142812Y-95722809D01*
X166142809Y-95722812D01*
X166056649Y-95837906D01*
X166056645Y-95837913D01*
X166006403Y-95972620D01*
X166006401Y-95972627D01*
X166000000Y-96032155D01*
X164503020Y-96032155D01*
X164506305Y-88246024D01*
X164506333Y-88245922D01*
X164506333Y-88182096D01*
X164506405Y-88177922D01*
X164512194Y-88008459D01*
X164524077Y-87660575D01*
X164524653Y-87652156D01*
X164577375Y-87139311D01*
X164578521Y-87130981D01*
X164666116Y-86622939D01*
X164667839Y-86614650D01*
X164687233Y-86535065D01*
X164789897Y-86113784D01*
X164792166Y-86105685D01*
X164948123Y-85614303D01*
X164950957Y-85606329D01*
X164953257Y-85600497D01*
X165052696Y-85348336D01*
X167299500Y-85348336D01*
X167299500Y-85651663D01*
X167333457Y-85953048D01*
X167333460Y-85953062D01*
X167400953Y-86248771D01*
X167400957Y-86248783D01*
X167501133Y-86535068D01*
X167632733Y-86808338D01*
X167632735Y-86808341D01*
X167794108Y-87065164D01*
X167983221Y-87302304D01*
X168197696Y-87516779D01*
X168434836Y-87705892D01*
X168691659Y-87867265D01*
X168964935Y-87998868D01*
X169108719Y-88049180D01*
X169251216Y-88099042D01*
X169251228Y-88099046D01*
X169546937Y-88166540D01*
X169546946Y-88166541D01*
X169546951Y-88166542D01*
X169747874Y-88189180D01*
X169848337Y-88200499D01*
X169848340Y-88200500D01*
X169848343Y-88200500D01*
X170151660Y-88200500D01*
X170151661Y-88200499D01*
X170314963Y-88182100D01*
X170453048Y-88166542D01*
X170453051Y-88166541D01*
X170453063Y-88166540D01*
X170748772Y-88099046D01*
X171035065Y-87998868D01*
X171308341Y-87867265D01*
X171565164Y-87705892D01*
X171802304Y-87516779D01*
X172016779Y-87302304D01*
X172205892Y-87065164D01*
X172367265Y-86808341D01*
X172498868Y-86535065D01*
X172599046Y-86248772D01*
X172666540Y-85953063D01*
X172700500Y-85651657D01*
X172700500Y-85348343D01*
X172666540Y-85046937D01*
X172599046Y-84751228D01*
X172498868Y-84464935D01*
X172367265Y-84191659D01*
X172205892Y-83934836D01*
X172016779Y-83697696D01*
X171802304Y-83483221D01*
X171565164Y-83294108D01*
X171308341Y-83132735D01*
X171308338Y-83132733D01*
X171035068Y-83001133D01*
X170748783Y-82900957D01*
X170748771Y-82900953D01*
X170520556Y-82848864D01*
X170453063Y-82833460D01*
X170453060Y-82833459D01*
X170453048Y-82833457D01*
X170151663Y-82799500D01*
X170151657Y-82799500D01*
X169848343Y-82799500D01*
X169848336Y-82799500D01*
X169546951Y-82833457D01*
X169546937Y-82833460D01*
X169251228Y-82900953D01*
X169251216Y-82900957D01*
X168964931Y-83001133D01*
X168691661Y-83132733D01*
X168434837Y-83294107D01*
X168197696Y-83483220D01*
X167983220Y-83697696D01*
X167794107Y-83934837D01*
X167632733Y-84191661D01*
X167501133Y-84464931D01*
X167400957Y-84751216D01*
X167400953Y-84751228D01*
X167333460Y-85046937D01*
X167333457Y-85046951D01*
X167299500Y-85348336D01*
X165052696Y-85348336D01*
X165140085Y-85126731D01*
X165143442Y-85119006D01*
X165364857Y-84653436D01*
X165368727Y-84645967D01*
X165621412Y-84196566D01*
X165625793Y-84189364D01*
X165908531Y-83758296D01*
X165913398Y-83751400D01*
X166224907Y-83340613D01*
X166230223Y-83334079D01*
X166569058Y-82945486D01*
X166574794Y-82939345D01*
X166939345Y-82574794D01*
X166945486Y-82569058D01*
X167334079Y-82230223D01*
X167340613Y-82224907D01*
X167751400Y-81913398D01*
X167758296Y-81908531D01*
X168189364Y-81625793D01*
X168196566Y-81621412D01*
X168645967Y-81368727D01*
X168653436Y-81364857D01*
X169119006Y-81143442D01*
X169126731Y-81140085D01*
X169606333Y-80950955D01*
X169614307Y-80948122D01*
X169628640Y-80943573D01*
X170105685Y-80792166D01*
X170113784Y-80789897D01*
X170614650Y-80667838D01*
X170622940Y-80666116D01*
X171130981Y-80578521D01*
X171139311Y-80577375D01*
X171652156Y-80524653D01*
X171660575Y-80524077D01*
X172154423Y-80507207D01*
X172177913Y-80506405D01*
X172182125Y-80506333D01*
X172182185Y-80506333D01*
X172245922Y-80506333D01*
X172245957Y-80506323D01*
X211823705Y-80500500D01*
X211827922Y-80500571D01*
G37*
%TD.AperFunction*%
%TD*%
M02*
