%TF.GenerationSoftware,KiCad,Pcbnew,9.0.1*%
%TF.CreationDate,2025-09-20T23:55:37+05:30*%
%TF.ProjectId,how_to_kicad,686f775f-746f-45f6-9b69-6361642e6b69,rev?*%
%TF.SameCoordinates,Original*%
%TF.FileFunction,Soldermask,Top*%
%TF.FilePolarity,Negative*%
%FSLAX46Y46*%
G04 Gerber Fmt 4.6, Leading zero omitted, Abs format (unit mm)*
G04 Created by KiCad (PCBNEW 9.0.1) date 2025-09-20 23:55:37*
%MOMM*%
%LPD*%
G01*
G04 APERTURE LIST*
G04 Aperture macros list*
%AMRoundRect*
0 Rectangle with rounded corners*
0 $1 Rounding radius*
0 $2 $3 $4 $5 $6 $7 $8 $9 X,Y pos of 4 corners*
0 Add a 4 corners polygon primitive as box body*
4,1,4,$2,$3,$4,$5,$6,$7,$8,$9,$2,$3,0*
0 Add four circle primitives for the rounded corners*
1,1,$1+$1,$2,$3*
1,1,$1+$1,$4,$5*
1,1,$1+$1,$6,$7*
1,1,$1+$1,$8,$9*
0 Add four rect primitives between the rounded corners*
20,1,$1+$1,$2,$3,$4,$5,0*
20,1,$1+$1,$4,$5,$6,$7,0*
20,1,$1+$1,$6,$7,$8,$9,0*
20,1,$1+$1,$8,$9,$2,$3,0*%
G04 Aperture macros list end*
%ADD10R,3.000000X3.000000*%
%ADD11C,3.000000*%
%ADD12C,0.700000*%
%ADD13C,4.400000*%
%ADD14RoundRect,0.250000X0.325000X0.650000X-0.325000X0.650000X-0.325000X-0.650000X0.325000X-0.650000X0*%
%ADD15RoundRect,0.375000X0.375000X-0.625000X0.375000X0.625000X-0.375000X0.625000X-0.375000X-0.625000X0*%
%ADD16RoundRect,0.500000X1.400000X-0.500000X1.400000X0.500000X-1.400000X0.500000X-1.400000X-0.500000X0*%
%ADD17RoundRect,0.250000X0.625000X-0.375000X0.625000X0.375000X-0.625000X0.375000X-0.625000X-0.375000X0*%
%ADD18RoundRect,0.225000X0.225000X0.250000X-0.225000X0.250000X-0.225000X-0.250000X0.225000X-0.250000X0*%
%ADD19RoundRect,0.250000X-0.625000X0.312500X-0.625000X-0.312500X0.625000X-0.312500X0.625000X0.312500X0*%
G04 APERTURE END LIST*
D10*
%TO.C,J1*%
X168000000Y-97580000D03*
D11*
X168000000Y-92500000D03*
%TD*%
D12*
%TO.C,H1*%
X168350000Y-85500000D03*
X168833274Y-84333274D03*
X168833274Y-86666726D03*
X170000000Y-83850000D03*
D13*
X170000000Y-85500000D03*
D12*
X170000000Y-87150000D03*
X171166726Y-84333274D03*
X171166726Y-86666726D03*
X171650000Y-85500000D03*
%TD*%
D14*
%TO.C,C2*%
X201600000Y-99700000D03*
X198650000Y-99700000D03*
%TD*%
D15*
%TO.C,U1*%
X194000000Y-93600000D03*
X196300000Y-93600000D03*
D16*
X196300000Y-87300000D03*
D15*
X198600000Y-93600000D03*
%TD*%
D14*
%TO.C,C4*%
X195275000Y-103500000D03*
X192325000Y-103500000D03*
%TD*%
D10*
%TO.C,J2*%
X216000000Y-92700000D03*
D11*
X216000000Y-97780000D03*
%TD*%
D12*
%TO.C,H2*%
X212850000Y-85500000D03*
X213333274Y-84333274D03*
X213333274Y-86666726D03*
X214500000Y-83850000D03*
D13*
X214500000Y-85500000D03*
D12*
X214500000Y-87150000D03*
X215666726Y-84333274D03*
X215666726Y-86666726D03*
X216150000Y-85500000D03*
%TD*%
D17*
%TO.C,D1*%
X181900000Y-101600000D03*
X181900000Y-98800000D03*
%TD*%
D12*
%TO.C,H3*%
X168683274Y-105500000D03*
X169166548Y-104333274D03*
X169166548Y-106666726D03*
X170333274Y-103850000D03*
D13*
X170333274Y-105500000D03*
D12*
X170333274Y-107150000D03*
X171500000Y-104333274D03*
X171500000Y-106666726D03*
X171983274Y-105500000D03*
%TD*%
D18*
%TO.C,C3*%
X195000000Y-99500000D03*
X193450000Y-99500000D03*
%TD*%
D12*
%TO.C,H4*%
X212350000Y-105500000D03*
X212833274Y-104333274D03*
X212833274Y-106666726D03*
X214000000Y-103850000D03*
D13*
X214000000Y-105500000D03*
D12*
X214000000Y-107150000D03*
X215166726Y-104333274D03*
X215166726Y-106666726D03*
X215650000Y-105500000D03*
%TD*%
D19*
%TO.C,R1*%
X181800000Y-90375000D03*
X181800000Y-93300000D03*
%TD*%
D18*
%TO.C,C1*%
X201100000Y-103700000D03*
X199550000Y-103700000D03*
%TD*%
M02*
