%TF.GenerationSoftware,KiCad,Pcbnew,9.0.1*%
%TF.CreationDate,2025-09-20T23:55:37+05:30*%
%TF.ProjectId,how_to_kicad,686f775f-746f-45f6-9b69-6361642e6b69,rev?*%
%TF.SameCoordinates,Original*%
%TF.FileFunction,Legend,Bot*%
%TF.FilePolarity,Positive*%
%FSLAX46Y46*%
G04 Gerber Fmt 4.6, Leading zero omitted, Abs format (unit mm)*
G04 Created by KiCad (PCBNEW 9.0.1) date 2025-09-20 23:55:37*
%MOMM*%
%LPD*%
G01*
G04 APERTURE LIST*
%ADD10C,0.010000*%
G04 APERTURE END LIST*
D10*
%TO.C,REF\u002A\u002A*%
X187855406Y-96774949D02*
X187881127Y-96790647D01*
X187907778Y-96812227D01*
X187907778Y-97459684D01*
X187881127Y-97481264D01*
X187849767Y-97498739D01*
X187813966Y-97499575D01*
X187782528Y-97479082D01*
X187778652Y-97474416D01*
X187773186Y-97464949D01*
X187768979Y-97451267D01*
X187765867Y-97430748D01*
X187763687Y-97400768D01*
X187762276Y-97358704D01*
X187761471Y-97301932D01*
X187761107Y-97227830D01*
X187761022Y-97133773D01*
X187761022Y-96812227D01*
X187787673Y-96790647D01*
X187811386Y-96775877D01*
X187834400Y-96769067D01*
X187855406Y-96774949D01*
G36*
X187855406Y-96774949D02*
G01*
X187881127Y-96790647D01*
X187907778Y-96812227D01*
X187907778Y-97459684D01*
X187881127Y-97481264D01*
X187849767Y-97498739D01*
X187813966Y-97499575D01*
X187782528Y-97479082D01*
X187778652Y-97474416D01*
X187773186Y-97464949D01*
X187768979Y-97451267D01*
X187765867Y-97430748D01*
X187763687Y-97400768D01*
X187762276Y-97358704D01*
X187761471Y-97301932D01*
X187761107Y-97227830D01*
X187761022Y-97133773D01*
X187761022Y-96812227D01*
X187787673Y-96790647D01*
X187811386Y-96775877D01*
X187834400Y-96769067D01*
X187855406Y-96774949D01*
G37*
X194986137Y-96773463D02*
X195020291Y-96796776D01*
X195048000Y-96824485D01*
X195048000Y-97137537D01*
X195047959Y-97221567D01*
X195047701Y-97295789D01*
X195047030Y-97352541D01*
X195045752Y-97394512D01*
X195043673Y-97424389D01*
X195040599Y-97444861D01*
X195036334Y-97458614D01*
X195030684Y-97468337D01*
X195023455Y-97476717D01*
X194991991Y-97498181D01*
X194956826Y-97499947D01*
X194923822Y-97480267D01*
X194918516Y-97474398D01*
X194913066Y-97465314D01*
X194908900Y-97451973D01*
X194905846Y-97431757D01*
X194903732Y-97402049D01*
X194902386Y-97360232D01*
X194901638Y-97303689D01*
X194901314Y-97229802D01*
X194901245Y-97135956D01*
X194901284Y-97060294D01*
X194901539Y-96982385D01*
X194902183Y-96922375D01*
X194903387Y-96877648D01*
X194905324Y-96845585D01*
X194908164Y-96823571D01*
X194912079Y-96808987D01*
X194917242Y-96799218D01*
X194923822Y-96791645D01*
X194953006Y-96772623D01*
X194986137Y-96773463D01*
G36*
X194986137Y-96773463D02*
G01*
X195020291Y-96796776D01*
X195048000Y-96824485D01*
X195048000Y-97137537D01*
X195047959Y-97221567D01*
X195047701Y-97295789D01*
X195047030Y-97352541D01*
X195045752Y-97394512D01*
X195043673Y-97424389D01*
X195040599Y-97444861D01*
X195036334Y-97458614D01*
X195030684Y-97468337D01*
X195023455Y-97476717D01*
X194991991Y-97498181D01*
X194956826Y-97499947D01*
X194923822Y-97480267D01*
X194918516Y-97474398D01*
X194913066Y-97465314D01*
X194908900Y-97451973D01*
X194905846Y-97431757D01*
X194903732Y-97402049D01*
X194902386Y-97360232D01*
X194901638Y-97303689D01*
X194901314Y-97229802D01*
X194901245Y-97135956D01*
X194901284Y-97060294D01*
X194901539Y-96982385D01*
X194902183Y-96922375D01*
X194903387Y-96877648D01*
X194905324Y-96845585D01*
X194908164Y-96823571D01*
X194912079Y-96808987D01*
X194917242Y-96799218D01*
X194923822Y-96791645D01*
X194953006Y-96772623D01*
X194986137Y-96773463D01*
G37*
X194454562Y-91532850D02*
X194537313Y-91560053D01*
X194612406Y-91605484D01*
X194684298Y-91671302D01*
X194722846Y-91715567D01*
X194762256Y-91773961D01*
X194787446Y-91834586D01*
X194800861Y-91903865D01*
X194804948Y-91988222D01*
X194804669Y-92034307D01*
X194802460Y-92075450D01*
X194796894Y-92107582D01*
X194786586Y-92138122D01*
X194770148Y-92174489D01*
X194756200Y-92201728D01*
X194697665Y-92287429D01*
X194625619Y-92356617D01*
X194541947Y-92407741D01*
X194448531Y-92439250D01*
X194415434Y-92446225D01*
X194374960Y-92453094D01*
X194341999Y-92454919D01*
X194307698Y-92451947D01*
X194263200Y-92444426D01*
X194211934Y-92432002D01*
X194121434Y-92394112D01*
X194042345Y-92339836D01*
X193976528Y-92271770D01*
X193925840Y-92192511D01*
X193892140Y-92104654D01*
X193877286Y-92010795D01*
X193883136Y-91913530D01*
X193909399Y-91817220D01*
X193954418Y-91728494D01*
X194015373Y-91653419D01*
X194090184Y-91593641D01*
X194176768Y-91550809D01*
X194273043Y-91526571D01*
X194376928Y-91522576D01*
X194454562Y-91532850D01*
G36*
X194454562Y-91532850D02*
G01*
X194537313Y-91560053D01*
X194612406Y-91605484D01*
X194684298Y-91671302D01*
X194722846Y-91715567D01*
X194762256Y-91773961D01*
X194787446Y-91834586D01*
X194800861Y-91903865D01*
X194804948Y-91988222D01*
X194804669Y-92034307D01*
X194802460Y-92075450D01*
X194796894Y-92107582D01*
X194786586Y-92138122D01*
X194770148Y-92174489D01*
X194756200Y-92201728D01*
X194697665Y-92287429D01*
X194625619Y-92356617D01*
X194541947Y-92407741D01*
X194448531Y-92439250D01*
X194415434Y-92446225D01*
X194374960Y-92453094D01*
X194341999Y-92454919D01*
X194307698Y-92451947D01*
X194263200Y-92444426D01*
X194211934Y-92432002D01*
X194121434Y-92394112D01*
X194042345Y-92339836D01*
X193976528Y-92271770D01*
X193925840Y-92192511D01*
X193892140Y-92104654D01*
X193877286Y-92010795D01*
X193883136Y-91913530D01*
X193909399Y-91817220D01*
X193954418Y-91728494D01*
X194015373Y-91653419D01*
X194090184Y-91593641D01*
X194176768Y-91550809D01*
X194273043Y-91526571D01*
X194376928Y-91522576D01*
X194454562Y-91532850D01*
G37*
X187155767Y-96769068D02*
X187249890Y-96769158D01*
X187324405Y-96769498D01*
X187381811Y-96770239D01*
X187424611Y-96771535D01*
X187455304Y-96773537D01*
X187476391Y-96776396D01*
X187490373Y-96780266D01*
X187499750Y-96785298D01*
X187507022Y-96791645D01*
X187525828Y-96824362D01*
X187527275Y-96861939D01*
X187510917Y-96895178D01*
X187509557Y-96896631D01*
X187498354Y-96904992D01*
X187481252Y-96910547D01*
X187454082Y-96913840D01*
X187412678Y-96915418D01*
X187352873Y-96915822D01*
X187213511Y-96915822D01*
X187213511Y-97179589D01*
X187213436Y-97255417D01*
X187213028Y-97322083D01*
X187212046Y-97371867D01*
X187210250Y-97407784D01*
X187207399Y-97432850D01*
X187203253Y-97450081D01*
X187197571Y-97462492D01*
X187190114Y-97473100D01*
X187187824Y-97475906D01*
X187156646Y-97498548D01*
X187122266Y-97500112D01*
X187089334Y-97480267D01*
X187082355Y-97472191D01*
X187076883Y-97461593D01*
X187072863Y-97445749D01*
X187070072Y-97421773D01*
X187068288Y-97386774D01*
X187067289Y-97337864D01*
X187066852Y-97272154D01*
X187066756Y-97186756D01*
X187066756Y-96915822D01*
X186920820Y-96915822D01*
X186909720Y-96915821D01*
X186853202Y-96915596D01*
X186814358Y-96914457D01*
X186788965Y-96911657D01*
X186772804Y-96906450D01*
X186761652Y-96898089D01*
X186751289Y-96885826D01*
X186735441Y-96855138D01*
X186738543Y-96821358D01*
X186764187Y-96788822D01*
X186769129Y-96785105D01*
X186779338Y-96780269D01*
X186794764Y-96776506D01*
X186817886Y-96773683D01*
X186851183Y-96771670D01*
X186897137Y-96770333D01*
X186958228Y-96769542D01*
X187036935Y-96769163D01*
X187135740Y-96769067D01*
X187155767Y-96769068D01*
G36*
X187155767Y-96769068D02*
G01*
X187249890Y-96769158D01*
X187324405Y-96769498D01*
X187381811Y-96770239D01*
X187424611Y-96771535D01*
X187455304Y-96773537D01*
X187476391Y-96776396D01*
X187490373Y-96780266D01*
X187499750Y-96785298D01*
X187507022Y-96791645D01*
X187525828Y-96824362D01*
X187527275Y-96861939D01*
X187510917Y-96895178D01*
X187509557Y-96896631D01*
X187498354Y-96904992D01*
X187481252Y-96910547D01*
X187454082Y-96913840D01*
X187412678Y-96915418D01*
X187352873Y-96915822D01*
X187213511Y-96915822D01*
X187213511Y-97179589D01*
X187213436Y-97255417D01*
X187213028Y-97322083D01*
X187212046Y-97371867D01*
X187210250Y-97407784D01*
X187207399Y-97432850D01*
X187203253Y-97450081D01*
X187197571Y-97462492D01*
X187190114Y-97473100D01*
X187187824Y-97475906D01*
X187156646Y-97498548D01*
X187122266Y-97500112D01*
X187089334Y-97480267D01*
X187082355Y-97472191D01*
X187076883Y-97461593D01*
X187072863Y-97445749D01*
X187070072Y-97421773D01*
X187068288Y-97386774D01*
X187067289Y-97337864D01*
X187066852Y-97272154D01*
X187066756Y-97186756D01*
X187066756Y-96915822D01*
X186920820Y-96915822D01*
X186909720Y-96915821D01*
X186853202Y-96915596D01*
X186814358Y-96914457D01*
X186788965Y-96911657D01*
X186772804Y-96906450D01*
X186761652Y-96898089D01*
X186751289Y-96885826D01*
X186735441Y-96855138D01*
X186738543Y-96821358D01*
X186764187Y-96788822D01*
X186769129Y-96785105D01*
X186779338Y-96780269D01*
X186794764Y-96776506D01*
X186817886Y-96773683D01*
X186851183Y-96771670D01*
X186897137Y-96770333D01*
X186958228Y-96769542D01*
X187036935Y-96769163D01*
X187135740Y-96769067D01*
X187155767Y-96769068D01*
G37*
X186479734Y-96791645D02*
X186485366Y-96797835D01*
X186490456Y-96806041D01*
X186494543Y-96817817D01*
X186497721Y-96835276D01*
X186500087Y-96860530D01*
X186501738Y-96895690D01*
X186502769Y-96942869D01*
X186503277Y-97004177D01*
X186503359Y-97081727D01*
X186503109Y-97177631D01*
X186502625Y-97294000D01*
X186502557Y-97308175D01*
X186501971Y-97369937D01*
X186500648Y-97413620D01*
X186498103Y-97443001D01*
X186493848Y-97461855D01*
X186487396Y-97473959D01*
X186478262Y-97483089D01*
X186444804Y-97500506D01*
X186409856Y-97497604D01*
X186378953Y-97473100D01*
X186369944Y-97459897D01*
X186362492Y-97441361D01*
X186358124Y-97415333D01*
X186356069Y-97376787D01*
X186355556Y-97320700D01*
X186355556Y-97198045D01*
X185858845Y-97198045D01*
X185858845Y-97332871D01*
X185858772Y-97368662D01*
X185858009Y-97414992D01*
X185855833Y-97445526D01*
X185851536Y-97464557D01*
X185844412Y-97476374D01*
X185833755Y-97485271D01*
X185801504Y-97500341D01*
X185766217Y-97497673D01*
X185735486Y-97473100D01*
X185730831Y-97466845D01*
X185724895Y-97456321D01*
X185720364Y-97442391D01*
X185717048Y-97422317D01*
X185714759Y-97393360D01*
X185713308Y-97352780D01*
X185712505Y-97297840D01*
X185712162Y-97225799D01*
X185712089Y-97133920D01*
X185712089Y-96824485D01*
X185739798Y-96796776D01*
X185771177Y-96774533D01*
X185804406Y-96771844D01*
X185836267Y-96791645D01*
X185844553Y-96801415D01*
X185851965Y-96817307D01*
X185856302Y-96841275D01*
X185858338Y-96878148D01*
X185858845Y-96932756D01*
X185858845Y-97051289D01*
X186355556Y-97051289D01*
X186355556Y-96935776D01*
X186355994Y-96884078D01*
X186357958Y-96849554D01*
X186362474Y-96826978D01*
X186370567Y-96811126D01*
X186383265Y-96796776D01*
X186414643Y-96774533D01*
X186447872Y-96771844D01*
X186479734Y-96791645D01*
G36*
X186479734Y-96791645D02*
G01*
X186485366Y-96797835D01*
X186490456Y-96806041D01*
X186494543Y-96817817D01*
X186497721Y-96835276D01*
X186500087Y-96860530D01*
X186501738Y-96895690D01*
X186502769Y-96942869D01*
X186503277Y-97004177D01*
X186503359Y-97081727D01*
X186503109Y-97177631D01*
X186502625Y-97294000D01*
X186502557Y-97308175D01*
X186501971Y-97369937D01*
X186500648Y-97413620D01*
X186498103Y-97443001D01*
X186493848Y-97461855D01*
X186487396Y-97473959D01*
X186478262Y-97483089D01*
X186444804Y-97500506D01*
X186409856Y-97497604D01*
X186378953Y-97473100D01*
X186369944Y-97459897D01*
X186362492Y-97441361D01*
X186358124Y-97415333D01*
X186356069Y-97376787D01*
X186355556Y-97320700D01*
X186355556Y-97198045D01*
X185858845Y-97198045D01*
X185858845Y-97332871D01*
X185858772Y-97368662D01*
X185858009Y-97414992D01*
X185855833Y-97445526D01*
X185851536Y-97464557D01*
X185844412Y-97476374D01*
X185833755Y-97485271D01*
X185801504Y-97500341D01*
X185766217Y-97497673D01*
X185735486Y-97473100D01*
X185730831Y-97466845D01*
X185724895Y-97456321D01*
X185720364Y-97442391D01*
X185717048Y-97422317D01*
X185714759Y-97393360D01*
X185713308Y-97352780D01*
X185712505Y-97297840D01*
X185712162Y-97225799D01*
X185712089Y-97133920D01*
X185712089Y-96824485D01*
X185739798Y-96796776D01*
X185771177Y-96774533D01*
X185804406Y-96771844D01*
X185836267Y-96791645D01*
X185844553Y-96801415D01*
X185851965Y-96817307D01*
X185856302Y-96841275D01*
X185858338Y-96878148D01*
X185858845Y-96932756D01*
X185858845Y-97051289D01*
X186355556Y-97051289D01*
X186355556Y-96935776D01*
X186355994Y-96884078D01*
X186357958Y-96849554D01*
X186362474Y-96826978D01*
X186370567Y-96811126D01*
X186383265Y-96796776D01*
X186414643Y-96774533D01*
X186447872Y-96771844D01*
X186479734Y-96791645D01*
G37*
X191185133Y-97380396D02*
X191183163Y-97413175D01*
X191180235Y-97436095D01*
X191176158Y-97451897D01*
X191170743Y-97463319D01*
X191163803Y-97473100D01*
X191140406Y-97502845D01*
X190974714Y-97502251D01*
X190939918Y-97501953D01*
X190841435Y-97498522D01*
X190760473Y-97490839D01*
X190693379Y-97478282D01*
X190636496Y-97460227D01*
X190586169Y-97436052D01*
X190582810Y-97434135D01*
X190524998Y-97397417D01*
X190482644Y-97360451D01*
X190449828Y-97316966D01*
X190420628Y-97260689D01*
X190416346Y-97251073D01*
X190393769Y-97187887D01*
X190388034Y-97142333D01*
X190537279Y-97142333D01*
X190542892Y-97167061D01*
X190548618Y-97182939D01*
X190581548Y-97242847D01*
X190628886Y-97288600D01*
X190692652Y-97321736D01*
X190774861Y-97343790D01*
X190777655Y-97344292D01*
X190823940Y-97350255D01*
X190880336Y-97354483D01*
X190935274Y-97356089D01*
X191029156Y-97356089D01*
X191029156Y-96915822D01*
X190941667Y-96916270D01*
X190874747Y-96918746D01*
X190782349Y-96929998D01*
X190703034Y-96949537D01*
X190641060Y-96976511D01*
X190610120Y-96997240D01*
X190582000Y-97027006D01*
X190558660Y-97069434D01*
X190551533Y-97085400D01*
X190539709Y-97117902D01*
X190537279Y-97142333D01*
X190388034Y-97142333D01*
X190386797Y-97132509D01*
X190395399Y-97077483D01*
X190419541Y-97015351D01*
X190420337Y-97013658D01*
X190460788Y-96944236D01*
X190511473Y-96887638D01*
X190574198Y-96843070D01*
X190650774Y-96809741D01*
X190743009Y-96786861D01*
X190852712Y-96773636D01*
X190981691Y-96769275D01*
X190985263Y-96769270D01*
X191045283Y-96769410D01*
X191087214Y-96770446D01*
X191115328Y-96773040D01*
X191133897Y-96777853D01*
X191147194Y-96785544D01*
X191159491Y-96796776D01*
X191187200Y-96824485D01*
X191187200Y-97133920D01*
X191187175Y-97195526D01*
X191186950Y-97274311D01*
X191186332Y-97335021D01*
X191185775Y-97356089D01*
X191185133Y-97380396D01*
G36*
X191185133Y-97380396D02*
G01*
X191183163Y-97413175D01*
X191180235Y-97436095D01*
X191176158Y-97451897D01*
X191170743Y-97463319D01*
X191163803Y-97473100D01*
X191140406Y-97502845D01*
X190974714Y-97502251D01*
X190939918Y-97501953D01*
X190841435Y-97498522D01*
X190760473Y-97490839D01*
X190693379Y-97478282D01*
X190636496Y-97460227D01*
X190586169Y-97436052D01*
X190582810Y-97434135D01*
X190524998Y-97397417D01*
X190482644Y-97360451D01*
X190449828Y-97316966D01*
X190420628Y-97260689D01*
X190416346Y-97251073D01*
X190393769Y-97187887D01*
X190388034Y-97142333D01*
X190537279Y-97142333D01*
X190542892Y-97167061D01*
X190548618Y-97182939D01*
X190581548Y-97242847D01*
X190628886Y-97288600D01*
X190692652Y-97321736D01*
X190774861Y-97343790D01*
X190777655Y-97344292D01*
X190823940Y-97350255D01*
X190880336Y-97354483D01*
X190935274Y-97356089D01*
X191029156Y-97356089D01*
X191029156Y-96915822D01*
X190941667Y-96916270D01*
X190874747Y-96918746D01*
X190782349Y-96929998D01*
X190703034Y-96949537D01*
X190641060Y-96976511D01*
X190610120Y-96997240D01*
X190582000Y-97027006D01*
X190558660Y-97069434D01*
X190551533Y-97085400D01*
X190539709Y-97117902D01*
X190537279Y-97142333D01*
X190388034Y-97142333D01*
X190386797Y-97132509D01*
X190395399Y-97077483D01*
X190419541Y-97015351D01*
X190420337Y-97013658D01*
X190460788Y-96944236D01*
X190511473Y-96887638D01*
X190574198Y-96843070D01*
X190650774Y-96809741D01*
X190743009Y-96786861D01*
X190852712Y-96773636D01*
X190981691Y-96769275D01*
X190985263Y-96769270D01*
X191045283Y-96769410D01*
X191087214Y-96770446D01*
X191115328Y-96773040D01*
X191133897Y-96777853D01*
X191147194Y-96785544D01*
X191159491Y-96796776D01*
X191187200Y-96824485D01*
X191187200Y-97133920D01*
X191187175Y-97195526D01*
X191186950Y-97274311D01*
X191186332Y-97335021D01*
X191185775Y-97356089D01*
X191185133Y-97380396D01*
G37*
X198276817Y-96954427D02*
X198276870Y-97035041D01*
X198276622Y-97135956D01*
X198276583Y-97211617D01*
X198276328Y-97289526D01*
X198275684Y-97349536D01*
X198274480Y-97394264D01*
X198272543Y-97426326D01*
X198269703Y-97448340D01*
X198265788Y-97462924D01*
X198260626Y-97472694D01*
X198254045Y-97480267D01*
X198247077Y-97486501D01*
X198234079Y-97493801D01*
X198214931Y-97498554D01*
X198185528Y-97501292D01*
X198141762Y-97502545D01*
X198079528Y-97502845D01*
X198030582Y-97502469D01*
X197923722Y-97498041D01*
X197834494Y-97487953D01*
X197759696Y-97471365D01*
X197696125Y-97447435D01*
X197640579Y-97415321D01*
X197589854Y-97374182D01*
X197583866Y-97368330D01*
X197546999Y-97319821D01*
X197515899Y-97259013D01*
X197494417Y-97194769D01*
X197489136Y-97156026D01*
X197636353Y-97156026D01*
X197654635Y-97206961D01*
X197684305Y-97252878D01*
X197731002Y-97295287D01*
X197792392Y-97325090D01*
X197871538Y-97344226D01*
X197873028Y-97344464D01*
X197921999Y-97350256D01*
X197980693Y-97354396D01*
X198036734Y-97356004D01*
X198129867Y-97356089D01*
X198129867Y-96915822D01*
X198053667Y-96915808D01*
X198050639Y-96915817D01*
X197999519Y-96917782D01*
X197939416Y-96922507D01*
X197882708Y-96929035D01*
X197832750Y-96938331D01*
X197757998Y-96964600D01*
X197700489Y-97003899D01*
X197658988Y-97056933D01*
X197637771Y-97108200D01*
X197636353Y-97156026D01*
X197489136Y-97156026D01*
X197486400Y-97135956D01*
X197487679Y-97114739D01*
X197499991Y-97057323D01*
X197522520Y-96997413D01*
X197551750Y-96943363D01*
X197584167Y-96903532D01*
X197603708Y-96886510D01*
X197658420Y-96847322D01*
X197718723Y-96817193D01*
X197787919Y-96795232D01*
X197869311Y-96780550D01*
X197966200Y-96772259D01*
X198081889Y-96769467D01*
X198121371Y-96769066D01*
X198167082Y-96768653D01*
X198202883Y-96770457D01*
X198229974Y-96776739D01*
X198249556Y-96789759D01*
X198262830Y-96811778D01*
X198270998Y-96845055D01*
X198275260Y-96891851D01*
X198275857Y-96915822D01*
X198276817Y-96954427D01*
G36*
X198276817Y-96954427D02*
G01*
X198276870Y-97035041D01*
X198276622Y-97135956D01*
X198276583Y-97211617D01*
X198276328Y-97289526D01*
X198275684Y-97349536D01*
X198274480Y-97394264D01*
X198272543Y-97426326D01*
X198269703Y-97448340D01*
X198265788Y-97462924D01*
X198260626Y-97472694D01*
X198254045Y-97480267D01*
X198247077Y-97486501D01*
X198234079Y-97493801D01*
X198214931Y-97498554D01*
X198185528Y-97501292D01*
X198141762Y-97502545D01*
X198079528Y-97502845D01*
X198030582Y-97502469D01*
X197923722Y-97498041D01*
X197834494Y-97487953D01*
X197759696Y-97471365D01*
X197696125Y-97447435D01*
X197640579Y-97415321D01*
X197589854Y-97374182D01*
X197583866Y-97368330D01*
X197546999Y-97319821D01*
X197515899Y-97259013D01*
X197494417Y-97194769D01*
X197489136Y-97156026D01*
X197636353Y-97156026D01*
X197654635Y-97206961D01*
X197684305Y-97252878D01*
X197731002Y-97295287D01*
X197792392Y-97325090D01*
X197871538Y-97344226D01*
X197873028Y-97344464D01*
X197921999Y-97350256D01*
X197980693Y-97354396D01*
X198036734Y-97356004D01*
X198129867Y-97356089D01*
X198129867Y-96915822D01*
X198053667Y-96915808D01*
X198050639Y-96915817D01*
X197999519Y-96917782D01*
X197939416Y-96922507D01*
X197882708Y-96929035D01*
X197832750Y-96938331D01*
X197757998Y-96964600D01*
X197700489Y-97003899D01*
X197658988Y-97056933D01*
X197637771Y-97108200D01*
X197636353Y-97156026D01*
X197489136Y-97156026D01*
X197486400Y-97135956D01*
X197487679Y-97114739D01*
X197499991Y-97057323D01*
X197522520Y-96997413D01*
X197551750Y-96943363D01*
X197584167Y-96903532D01*
X197603708Y-96886510D01*
X197658420Y-96847322D01*
X197718723Y-96817193D01*
X197787919Y-96795232D01*
X197869311Y-96780550D01*
X197966200Y-96772259D01*
X198081889Y-96769467D01*
X198121371Y-96769066D01*
X198167082Y-96768653D01*
X198202883Y-96770457D01*
X198229974Y-96776739D01*
X198249556Y-96789759D01*
X198262830Y-96811778D01*
X198270998Y-96845055D01*
X198275260Y-96891851D01*
X198275857Y-96915822D01*
X198276817Y-96954427D01*
G37*
X193331893Y-96767892D02*
X193343301Y-96774029D01*
X193353850Y-96784691D01*
X193365136Y-96798811D01*
X193369589Y-96804772D01*
X193375588Y-96815268D01*
X193380167Y-96829093D01*
X193383519Y-96848998D01*
X193385833Y-96877732D01*
X193387301Y-96918045D01*
X193388113Y-96972687D01*
X193388460Y-97044407D01*
X193388534Y-97135956D01*
X193388511Y-97194486D01*
X193388292Y-97273573D01*
X193387683Y-97334516D01*
X193386492Y-97380062D01*
X193384529Y-97412963D01*
X193381603Y-97435968D01*
X193377523Y-97451826D01*
X193372097Y-97463286D01*
X193365136Y-97473100D01*
X193334708Y-97497493D01*
X193299765Y-97500372D01*
X193262784Y-97481282D01*
X193258600Y-97477807D01*
X193250424Y-97469279D01*
X193244364Y-97457728D01*
X193239981Y-97439896D01*
X193236839Y-97412524D01*
X193234502Y-97372354D01*
X193232531Y-97316128D01*
X193230489Y-97240589D01*
X193224845Y-97021458D01*
X192959556Y-97262099D01*
X192885722Y-97328875D01*
X192820542Y-97386991D01*
X192768348Y-97431949D01*
X192727273Y-97464871D01*
X192695455Y-97486879D01*
X192671026Y-97499094D01*
X192652124Y-97502639D01*
X192636883Y-97498636D01*
X192623439Y-97488207D01*
X192609927Y-97472474D01*
X192603682Y-97463991D01*
X192598050Y-97453413D01*
X192593839Y-97439255D01*
X192590887Y-97418803D01*
X192589032Y-97389342D01*
X192588113Y-97348161D01*
X192587968Y-97292544D01*
X192588435Y-97219779D01*
X192589352Y-97127151D01*
X192592667Y-96812199D01*
X192619318Y-96790633D01*
X192645383Y-96774441D01*
X192678241Y-96771670D01*
X192712772Y-96790623D01*
X192717084Y-96794208D01*
X192725216Y-96802737D01*
X192731245Y-96814329D01*
X192735606Y-96832235D01*
X192738734Y-96859706D01*
X192741063Y-96899994D01*
X192743029Y-96956351D01*
X192745067Y-97032029D01*
X192750711Y-97251878D01*
X192931334Y-97088084D01*
X193018072Y-97009451D01*
X193093843Y-96941058D01*
X193155980Y-96885708D01*
X193206078Y-96842338D01*
X193245735Y-96809881D01*
X193276548Y-96787273D01*
X193300114Y-96773448D01*
X193318030Y-96767343D01*
X193331893Y-96767892D01*
G36*
X193331893Y-96767892D02*
G01*
X193343301Y-96774029D01*
X193353850Y-96784691D01*
X193365136Y-96798811D01*
X193369589Y-96804772D01*
X193375588Y-96815268D01*
X193380167Y-96829093D01*
X193383519Y-96848998D01*
X193385833Y-96877732D01*
X193387301Y-96918045D01*
X193388113Y-96972687D01*
X193388460Y-97044407D01*
X193388534Y-97135956D01*
X193388511Y-97194486D01*
X193388292Y-97273573D01*
X193387683Y-97334516D01*
X193386492Y-97380062D01*
X193384529Y-97412963D01*
X193381603Y-97435968D01*
X193377523Y-97451826D01*
X193372097Y-97463286D01*
X193365136Y-97473100D01*
X193334708Y-97497493D01*
X193299765Y-97500372D01*
X193262784Y-97481282D01*
X193258600Y-97477807D01*
X193250424Y-97469279D01*
X193244364Y-97457728D01*
X193239981Y-97439896D01*
X193236839Y-97412524D01*
X193234502Y-97372354D01*
X193232531Y-97316128D01*
X193230489Y-97240589D01*
X193224845Y-97021458D01*
X192959556Y-97262099D01*
X192885722Y-97328875D01*
X192820542Y-97386991D01*
X192768348Y-97431949D01*
X192727273Y-97464871D01*
X192695455Y-97486879D01*
X192671026Y-97499094D01*
X192652124Y-97502639D01*
X192636883Y-97498636D01*
X192623439Y-97488207D01*
X192609927Y-97472474D01*
X192603682Y-97463991D01*
X192598050Y-97453413D01*
X192593839Y-97439255D01*
X192590887Y-97418803D01*
X192589032Y-97389342D01*
X192588113Y-97348161D01*
X192587968Y-97292544D01*
X192588435Y-97219779D01*
X192589352Y-97127151D01*
X192592667Y-96812199D01*
X192619318Y-96790633D01*
X192645383Y-96774441D01*
X192678241Y-96771670D01*
X192712772Y-96790623D01*
X192717084Y-96794208D01*
X192725216Y-96802737D01*
X192731245Y-96814329D01*
X192735606Y-96832235D01*
X192738734Y-96859706D01*
X192741063Y-96899994D01*
X192743029Y-96956351D01*
X192745067Y-97032029D01*
X192750711Y-97251878D01*
X192931334Y-97088084D01*
X193018072Y-97009451D01*
X193093843Y-96941058D01*
X193155980Y-96885708D01*
X193206078Y-96842338D01*
X193245735Y-96809881D01*
X193276548Y-96787273D01*
X193300114Y-96773448D01*
X193318030Y-96767343D01*
X193331893Y-96767892D01*
G37*
X194129150Y-96774179D02*
X194235157Y-96790494D01*
X194328969Y-96818545D01*
X194407765Y-96857452D01*
X194468719Y-96906334D01*
X194494789Y-96939195D01*
X194524297Y-96988394D01*
X194549568Y-97042252D01*
X194567218Y-97093419D01*
X194573858Y-97134544D01*
X194572298Y-97154259D01*
X194559357Y-97205592D01*
X194536194Y-97262118D01*
X194506302Y-97316035D01*
X194473173Y-97359539D01*
X194462977Y-97369887D01*
X194395892Y-97421662D01*
X194315766Y-97461554D01*
X194229556Y-97485956D01*
X194174592Y-97494068D01*
X194081139Y-97500673D01*
X193991358Y-97498586D01*
X193908869Y-97488340D01*
X193837286Y-97470470D01*
X193780228Y-97445508D01*
X193741311Y-97413988D01*
X193739936Y-97412012D01*
X193732848Y-97386786D01*
X193728609Y-97339535D01*
X193727200Y-97270071D01*
X193728060Y-97207838D01*
X193732780Y-97160456D01*
X193744470Y-97128353D01*
X193766239Y-97108800D01*
X193801198Y-97099070D01*
X193852456Y-97096433D01*
X193923123Y-97098161D01*
X193971743Y-97101173D01*
X194021939Y-97109366D01*
X194054433Y-97123419D01*
X194071892Y-97144654D01*
X194076983Y-97174394D01*
X194076877Y-97178936D01*
X194068175Y-97213730D01*
X194044165Y-97237147D01*
X194002900Y-97250347D01*
X193942431Y-97254489D01*
X193873956Y-97254489D01*
X193873956Y-97292841D01*
X193874006Y-97301976D01*
X193876227Y-97319227D01*
X193885494Y-97329521D01*
X193906875Y-97336459D01*
X193945436Y-97343641D01*
X193950910Y-97344575D01*
X194047860Y-97354478D01*
X194137852Y-97351559D01*
X194218760Y-97336829D01*
X194288459Y-97311299D01*
X194344824Y-97275978D01*
X194385729Y-97231879D01*
X194409051Y-97180012D01*
X194412663Y-97121388D01*
X194407145Y-97092494D01*
X194380461Y-97036604D01*
X194334273Y-96990945D01*
X194269291Y-96956108D01*
X194186229Y-96932690D01*
X194161555Y-96928241D01*
X194072226Y-96917742D01*
X193992419Y-96918971D01*
X193914326Y-96931906D01*
X193879183Y-96938696D01*
X193833745Y-96939713D01*
X193802430Y-96927182D01*
X193782277Y-96900395D01*
X193775893Y-96872148D01*
X193785379Y-96840924D01*
X193794708Y-96827499D01*
X193828943Y-96803967D01*
X193881565Y-96786095D01*
X193950081Y-96774599D01*
X194032000Y-96770192D01*
X194129150Y-96774179D01*
G36*
X194129150Y-96774179D02*
G01*
X194235157Y-96790494D01*
X194328969Y-96818545D01*
X194407765Y-96857452D01*
X194468719Y-96906334D01*
X194494789Y-96939195D01*
X194524297Y-96988394D01*
X194549568Y-97042252D01*
X194567218Y-97093419D01*
X194573858Y-97134544D01*
X194572298Y-97154259D01*
X194559357Y-97205592D01*
X194536194Y-97262118D01*
X194506302Y-97316035D01*
X194473173Y-97359539D01*
X194462977Y-97369887D01*
X194395892Y-97421662D01*
X194315766Y-97461554D01*
X194229556Y-97485956D01*
X194174592Y-97494068D01*
X194081139Y-97500673D01*
X193991358Y-97498586D01*
X193908869Y-97488340D01*
X193837286Y-97470470D01*
X193780228Y-97445508D01*
X193741311Y-97413988D01*
X193739936Y-97412012D01*
X193732848Y-97386786D01*
X193728609Y-97339535D01*
X193727200Y-97270071D01*
X193728060Y-97207838D01*
X193732780Y-97160456D01*
X193744470Y-97128353D01*
X193766239Y-97108800D01*
X193801198Y-97099070D01*
X193852456Y-97096433D01*
X193923123Y-97098161D01*
X193971743Y-97101173D01*
X194021939Y-97109366D01*
X194054433Y-97123419D01*
X194071892Y-97144654D01*
X194076983Y-97174394D01*
X194076877Y-97178936D01*
X194068175Y-97213730D01*
X194044165Y-97237147D01*
X194002900Y-97250347D01*
X193942431Y-97254489D01*
X193873956Y-97254489D01*
X193873956Y-97292841D01*
X193874006Y-97301976D01*
X193876227Y-97319227D01*
X193885494Y-97329521D01*
X193906875Y-97336459D01*
X193945436Y-97343641D01*
X193950910Y-97344575D01*
X194047860Y-97354478D01*
X194137852Y-97351559D01*
X194218760Y-97336829D01*
X194288459Y-97311299D01*
X194344824Y-97275978D01*
X194385729Y-97231879D01*
X194409051Y-97180012D01*
X194412663Y-97121388D01*
X194407145Y-97092494D01*
X194380461Y-97036604D01*
X194334273Y-96990945D01*
X194269291Y-96956108D01*
X194186229Y-96932690D01*
X194161555Y-96928241D01*
X194072226Y-96917742D01*
X193992419Y-96918971D01*
X193914326Y-96931906D01*
X193879183Y-96938696D01*
X193833745Y-96939713D01*
X193802430Y-96927182D01*
X193782277Y-96900395D01*
X193775893Y-96872148D01*
X193785379Y-96840924D01*
X193794708Y-96827499D01*
X193828943Y-96803967D01*
X193881565Y-96786095D01*
X193950081Y-96774599D01*
X194032000Y-96770192D01*
X194129150Y-96774179D01*
G37*
X192179803Y-96798811D02*
X192184752Y-96805495D01*
X192190596Y-96816066D01*
X192195057Y-96830153D01*
X192198321Y-96850478D01*
X192200574Y-96879765D01*
X192202002Y-96920737D01*
X192202792Y-96976117D01*
X192203129Y-97048628D01*
X192203200Y-97140994D01*
X192203171Y-97206911D01*
X192202939Y-97285228D01*
X192202319Y-97345496D01*
X192201126Y-97390393D01*
X192199179Y-97422602D01*
X192196294Y-97444800D01*
X192192288Y-97459669D01*
X192186979Y-97469889D01*
X192180183Y-97478138D01*
X192175668Y-97482795D01*
X192167438Y-97489282D01*
X192156078Y-97494194D01*
X192138810Y-97497749D01*
X192112855Y-97500167D01*
X192075436Y-97501667D01*
X192023773Y-97502467D01*
X191955089Y-97502787D01*
X191866606Y-97502845D01*
X191846931Y-97502838D01*
X191759906Y-97502572D01*
X191692254Y-97501806D01*
X191641299Y-97500392D01*
X191604367Y-97498180D01*
X191578783Y-97495022D01*
X191561871Y-97490769D01*
X191550957Y-97485271D01*
X191540464Y-97475285D01*
X191527203Y-97444168D01*
X191528386Y-97408280D01*
X191544550Y-97376733D01*
X191546739Y-97374457D01*
X191555427Y-97368189D01*
X191568769Y-97363523D01*
X191589752Y-97360227D01*
X191621363Y-97358068D01*
X191666590Y-97356814D01*
X191728420Y-97356231D01*
X191809839Y-97356089D01*
X192056445Y-97356089D01*
X192056445Y-97198045D01*
X191894006Y-97198045D01*
X191858338Y-97197964D01*
X191802568Y-97197167D01*
X191763430Y-97195162D01*
X191736976Y-97191521D01*
X191719259Y-97185812D01*
X191706329Y-97177607D01*
X191702686Y-97174423D01*
X191684278Y-97143448D01*
X191683644Y-97107112D01*
X191701183Y-97073493D01*
X191701245Y-97073424D01*
X191710916Y-97064798D01*
X191724209Y-97058742D01*
X191744917Y-97054811D01*
X191776828Y-97052556D01*
X191823734Y-97051531D01*
X191889424Y-97051289D01*
X192057571Y-97051289D01*
X192054186Y-96986378D01*
X192050800Y-96921467D01*
X191808723Y-96918414D01*
X191783707Y-96918086D01*
X191702087Y-96916606D01*
X191639768Y-96914222D01*
X191594154Y-96910227D01*
X191562652Y-96903913D01*
X191542667Y-96894574D01*
X191531604Y-96881503D01*
X191526869Y-96863992D01*
X191525867Y-96841335D01*
X191525873Y-96838970D01*
X191527027Y-96818939D01*
X191531824Y-96803146D01*
X191542632Y-96791090D01*
X191561817Y-96782267D01*
X191591745Y-96776175D01*
X191634783Y-96772311D01*
X191693299Y-96770174D01*
X191769657Y-96769260D01*
X191866226Y-96769067D01*
X192156406Y-96769067D01*
X192179803Y-96798811D01*
G36*
X192179803Y-96798811D02*
G01*
X192184752Y-96805495D01*
X192190596Y-96816066D01*
X192195057Y-96830153D01*
X192198321Y-96850478D01*
X192200574Y-96879765D01*
X192202002Y-96920737D01*
X192202792Y-96976117D01*
X192203129Y-97048628D01*
X192203200Y-97140994D01*
X192203171Y-97206911D01*
X192202939Y-97285228D01*
X192202319Y-97345496D01*
X192201126Y-97390393D01*
X192199179Y-97422602D01*
X192196294Y-97444800D01*
X192192288Y-97459669D01*
X192186979Y-97469889D01*
X192180183Y-97478138D01*
X192175668Y-97482795D01*
X192167438Y-97489282D01*
X192156078Y-97494194D01*
X192138810Y-97497749D01*
X192112855Y-97500167D01*
X192075436Y-97501667D01*
X192023773Y-97502467D01*
X191955089Y-97502787D01*
X191866606Y-97502845D01*
X191846931Y-97502838D01*
X191759906Y-97502572D01*
X191692254Y-97501806D01*
X191641299Y-97500392D01*
X191604367Y-97498180D01*
X191578783Y-97495022D01*
X191561871Y-97490769D01*
X191550957Y-97485271D01*
X191540464Y-97475285D01*
X191527203Y-97444168D01*
X191528386Y-97408280D01*
X191544550Y-97376733D01*
X191546739Y-97374457D01*
X191555427Y-97368189D01*
X191568769Y-97363523D01*
X191589752Y-97360227D01*
X191621363Y-97358068D01*
X191666590Y-97356814D01*
X191728420Y-97356231D01*
X191809839Y-97356089D01*
X192056445Y-97356089D01*
X192056445Y-97198045D01*
X191894006Y-97198045D01*
X191858338Y-97197964D01*
X191802568Y-97197167D01*
X191763430Y-97195162D01*
X191736976Y-97191521D01*
X191719259Y-97185812D01*
X191706329Y-97177607D01*
X191702686Y-97174423D01*
X191684278Y-97143448D01*
X191683644Y-97107112D01*
X191701183Y-97073493D01*
X191701245Y-97073424D01*
X191710916Y-97064798D01*
X191724209Y-97058742D01*
X191744917Y-97054811D01*
X191776828Y-97052556D01*
X191823734Y-97051531D01*
X191889424Y-97051289D01*
X192057571Y-97051289D01*
X192054186Y-96986378D01*
X192050800Y-96921467D01*
X191808723Y-96918414D01*
X191783707Y-96918086D01*
X191702087Y-96916606D01*
X191639768Y-96914222D01*
X191594154Y-96910227D01*
X191562652Y-96903913D01*
X191542667Y-96894574D01*
X191531604Y-96881503D01*
X191526869Y-96863992D01*
X191525867Y-96841335D01*
X191525873Y-96838970D01*
X191527027Y-96818939D01*
X191531824Y-96803146D01*
X191542632Y-96791090D01*
X191561817Y-96782267D01*
X191591745Y-96776175D01*
X191634783Y-96772311D01*
X191693299Y-96770174D01*
X191769657Y-96769260D01*
X191866226Y-96769067D01*
X192156406Y-96769067D01*
X192179803Y-96798811D01*
G37*
X196856734Y-96769083D02*
X196933831Y-96769275D01*
X196992777Y-96769860D01*
X197036364Y-96771051D01*
X197067383Y-96773064D01*
X197088625Y-96776112D01*
X197102882Y-96780409D01*
X197112945Y-96786172D01*
X197121606Y-96793612D01*
X197123391Y-96795293D01*
X197130635Y-96802832D01*
X197136277Y-96811850D01*
X197140517Y-96824984D01*
X197143556Y-96844872D01*
X197145594Y-96874151D01*
X197146830Y-96915458D01*
X197147465Y-96971431D01*
X197147700Y-97044707D01*
X197147734Y-97137923D01*
X197147697Y-97210713D01*
X197147448Y-97288889D01*
X197146812Y-97349103D01*
X197145615Y-97393982D01*
X197143684Y-97426152D01*
X197140846Y-97448239D01*
X197136927Y-97462870D01*
X197131755Y-97472670D01*
X197125156Y-97480267D01*
X197121822Y-97483444D01*
X197113300Y-97489554D01*
X197101298Y-97494229D01*
X197083087Y-97497659D01*
X197055940Y-97500036D01*
X197017129Y-97501552D01*
X196963924Y-97502398D01*
X196893598Y-97502765D01*
X196803422Y-97502845D01*
X196761314Y-97502833D01*
X196680167Y-97502651D01*
X196617675Y-97502098D01*
X196571109Y-97500982D01*
X196537741Y-97499113D01*
X196514844Y-97496298D01*
X196499688Y-97492346D01*
X196489546Y-97487066D01*
X196481689Y-97480267D01*
X196466963Y-97458667D01*
X196459111Y-97429467D01*
X196464610Y-97405560D01*
X196481689Y-97378667D01*
X196486668Y-97374059D01*
X196496443Y-97367772D01*
X196510559Y-97363146D01*
X196532054Y-97359930D01*
X196563968Y-97357870D01*
X196609342Y-97356712D01*
X196671213Y-97356202D01*
X196752622Y-97356089D01*
X197000978Y-97356089D01*
X197000978Y-97198045D01*
X196839801Y-97198045D01*
X196803983Y-97197899D01*
X196738359Y-97196176D01*
X196691118Y-97191741D01*
X196659383Y-97183637D01*
X196640277Y-97170906D01*
X196630923Y-97152592D01*
X196628445Y-97127738D01*
X196629242Y-97107482D01*
X196634494Y-97085656D01*
X196647288Y-97070304D01*
X196670628Y-97060309D01*
X196707517Y-97054553D01*
X196760959Y-97051919D01*
X196833958Y-97051289D01*
X197002105Y-97051289D01*
X196998719Y-96986378D01*
X196995334Y-96921467D01*
X196747617Y-96918418D01*
X196685026Y-96917539D01*
X196616565Y-96916095D01*
X196565661Y-96914164D01*
X196529408Y-96911514D01*
X196504901Y-96907910D01*
X196489235Y-96903121D01*
X196479506Y-96896913D01*
X196473491Y-96890510D01*
X196460482Y-96858828D01*
X196464043Y-96823142D01*
X196483818Y-96792084D01*
X196487069Y-96789161D01*
X196496049Y-96782810D01*
X196508153Y-96777957D01*
X196526159Y-96774403D01*
X196552847Y-96771946D01*
X196590997Y-96770385D01*
X196643386Y-96769518D01*
X196712794Y-96769146D01*
X196802001Y-96769067D01*
X196856734Y-96769083D01*
G36*
X196856734Y-96769083D02*
G01*
X196933831Y-96769275D01*
X196992777Y-96769860D01*
X197036364Y-96771051D01*
X197067383Y-96773064D01*
X197088625Y-96776112D01*
X197102882Y-96780409D01*
X197112945Y-96786172D01*
X197121606Y-96793612D01*
X197123391Y-96795293D01*
X197130635Y-96802832D01*
X197136277Y-96811850D01*
X197140517Y-96824984D01*
X197143556Y-96844872D01*
X197145594Y-96874151D01*
X197146830Y-96915458D01*
X197147465Y-96971431D01*
X197147700Y-97044707D01*
X197147734Y-97137923D01*
X197147697Y-97210713D01*
X197147448Y-97288889D01*
X197146812Y-97349103D01*
X197145615Y-97393982D01*
X197143684Y-97426152D01*
X197140846Y-97448239D01*
X197136927Y-97462870D01*
X197131755Y-97472670D01*
X197125156Y-97480267D01*
X197121822Y-97483444D01*
X197113300Y-97489554D01*
X197101298Y-97494229D01*
X197083087Y-97497659D01*
X197055940Y-97500036D01*
X197017129Y-97501552D01*
X196963924Y-97502398D01*
X196893598Y-97502765D01*
X196803422Y-97502845D01*
X196761314Y-97502833D01*
X196680167Y-97502651D01*
X196617675Y-97502098D01*
X196571109Y-97500982D01*
X196537741Y-97499113D01*
X196514844Y-97496298D01*
X196499688Y-97492346D01*
X196489546Y-97487066D01*
X196481689Y-97480267D01*
X196466963Y-97458667D01*
X196459111Y-97429467D01*
X196464610Y-97405560D01*
X196481689Y-97378667D01*
X196486668Y-97374059D01*
X196496443Y-97367772D01*
X196510559Y-97363146D01*
X196532054Y-97359930D01*
X196563968Y-97357870D01*
X196609342Y-97356712D01*
X196671213Y-97356202D01*
X196752622Y-97356089D01*
X197000978Y-97356089D01*
X197000978Y-97198045D01*
X196839801Y-97198045D01*
X196803983Y-97197899D01*
X196738359Y-97196176D01*
X196691118Y-97191741D01*
X196659383Y-97183637D01*
X196640277Y-97170906D01*
X196630923Y-97152592D01*
X196628445Y-97127738D01*
X196629242Y-97107482D01*
X196634494Y-97085656D01*
X196647288Y-97070304D01*
X196670628Y-97060309D01*
X196707517Y-97054553D01*
X196760959Y-97051919D01*
X196833958Y-97051289D01*
X197002105Y-97051289D01*
X196998719Y-96986378D01*
X196995334Y-96921467D01*
X196747617Y-96918418D01*
X196685026Y-96917539D01*
X196616565Y-96916095D01*
X196565661Y-96914164D01*
X196529408Y-96911514D01*
X196504901Y-96907910D01*
X196489235Y-96903121D01*
X196479506Y-96896913D01*
X196473491Y-96890510D01*
X196460482Y-96858828D01*
X196464043Y-96823142D01*
X196483818Y-96792084D01*
X196487069Y-96789161D01*
X196496049Y-96782810D01*
X196508153Y-96777957D01*
X196526159Y-96774403D01*
X196552847Y-96771946D01*
X196590997Y-96770385D01*
X196643386Y-96769518D01*
X196712794Y-96769146D01*
X196802001Y-96769067D01*
X196856734Y-96769083D01*
G37*
X188289702Y-96778478D02*
X188307663Y-96796989D01*
X188328263Y-96828071D01*
X188353095Y-96873756D01*
X188383750Y-96936078D01*
X188421820Y-97017071D01*
X188436454Y-97048454D01*
X188466203Y-97111638D01*
X188492297Y-97166244D01*
X188513292Y-97209290D01*
X188527739Y-97237793D01*
X188534191Y-97248770D01*
X188535550Y-97248189D01*
X188545542Y-97234242D01*
X188562833Y-97204704D01*
X188585430Y-97163087D01*
X188611338Y-97112903D01*
X188627311Y-97081414D01*
X188656261Y-97026061D01*
X188678749Y-96987044D01*
X188696965Y-96961566D01*
X188713096Y-96946831D01*
X188729330Y-96940042D01*
X188747857Y-96938400D01*
X188758360Y-96938875D01*
X188774476Y-96943082D01*
X188789790Y-96953946D01*
X188806388Y-96974219D01*
X188826357Y-97006654D01*
X188851783Y-97054004D01*
X188884752Y-97119022D01*
X188894485Y-97138277D01*
X188918943Y-97184946D01*
X188939178Y-97221109D01*
X188953311Y-97243497D01*
X188959460Y-97248845D01*
X188960827Y-97245573D01*
X188970202Y-97224664D01*
X188987062Y-97187725D01*
X189009979Y-97137874D01*
X189037520Y-97078226D01*
X189068255Y-97011898D01*
X189094970Y-96954677D01*
X189124593Y-96892688D01*
X189147664Y-96846949D01*
X189165643Y-96814908D01*
X189179990Y-96794014D01*
X189192166Y-96781718D01*
X189203632Y-96775466D01*
X189213042Y-96772574D01*
X189238147Y-96772425D01*
X189265290Y-96787768D01*
X189266590Y-96788753D01*
X189288674Y-96811388D01*
X189299723Y-96833613D01*
X189299769Y-96834253D01*
X189295228Y-96851915D01*
X189282364Y-96886481D01*
X189262605Y-96934826D01*
X189237381Y-96993825D01*
X189208119Y-97060355D01*
X189176250Y-97131291D01*
X189143201Y-97203507D01*
X189110401Y-97273880D01*
X189079280Y-97339285D01*
X189051265Y-97396597D01*
X189027786Y-97442692D01*
X189010272Y-97474446D01*
X189000151Y-97488733D01*
X188965743Y-97502102D01*
X188924046Y-97495741D01*
X188918681Y-97491044D01*
X188902852Y-97468893D01*
X188880650Y-97432132D01*
X188854233Y-97384415D01*
X188825760Y-97329393D01*
X188745986Y-97170150D01*
X188672799Y-97316742D01*
X188663103Y-97336032D01*
X188636125Y-97388380D01*
X188612096Y-97433170D01*
X188593332Y-97466154D01*
X188582146Y-97483089D01*
X188581000Y-97484332D01*
X188552879Y-97499619D01*
X188517817Y-97501302D01*
X188486776Y-97488733D01*
X188484350Y-97485884D01*
X188472090Y-97465259D01*
X188452352Y-97427708D01*
X188426448Y-97375880D01*
X188395685Y-97312423D01*
X188361375Y-97239985D01*
X188324825Y-97161216D01*
X188304585Y-97117093D01*
X188267812Y-97036365D01*
X188239355Y-96972687D01*
X188218331Y-96923752D01*
X188203854Y-96887257D01*
X188195039Y-96860895D01*
X188191004Y-96842361D01*
X188190862Y-96829352D01*
X188193730Y-96819561D01*
X188208387Y-96798678D01*
X188234990Y-96778377D01*
X188235745Y-96778035D01*
X188255335Y-96771034D01*
X188272790Y-96770504D01*
X188289702Y-96778478D01*
G36*
X188289702Y-96778478D02*
G01*
X188307663Y-96796989D01*
X188328263Y-96828071D01*
X188353095Y-96873756D01*
X188383750Y-96936078D01*
X188421820Y-97017071D01*
X188436454Y-97048454D01*
X188466203Y-97111638D01*
X188492297Y-97166244D01*
X188513292Y-97209290D01*
X188527739Y-97237793D01*
X188534191Y-97248770D01*
X188535550Y-97248189D01*
X188545542Y-97234242D01*
X188562833Y-97204704D01*
X188585430Y-97163087D01*
X188611338Y-97112903D01*
X188627311Y-97081414D01*
X188656261Y-97026061D01*
X188678749Y-96987044D01*
X188696965Y-96961566D01*
X188713096Y-96946831D01*
X188729330Y-96940042D01*
X188747857Y-96938400D01*
X188758360Y-96938875D01*
X188774476Y-96943082D01*
X188789790Y-96953946D01*
X188806388Y-96974219D01*
X188826357Y-97006654D01*
X188851783Y-97054004D01*
X188884752Y-97119022D01*
X188894485Y-97138277D01*
X188918943Y-97184946D01*
X188939178Y-97221109D01*
X188953311Y-97243497D01*
X188959460Y-97248845D01*
X188960827Y-97245573D01*
X188970202Y-97224664D01*
X188987062Y-97187725D01*
X189009979Y-97137874D01*
X189037520Y-97078226D01*
X189068255Y-97011898D01*
X189094970Y-96954677D01*
X189124593Y-96892688D01*
X189147664Y-96846949D01*
X189165643Y-96814908D01*
X189179990Y-96794014D01*
X189192166Y-96781718D01*
X189203632Y-96775466D01*
X189213042Y-96772574D01*
X189238147Y-96772425D01*
X189265290Y-96787768D01*
X189266590Y-96788753D01*
X189288674Y-96811388D01*
X189299723Y-96833613D01*
X189299769Y-96834253D01*
X189295228Y-96851915D01*
X189282364Y-96886481D01*
X189262605Y-96934826D01*
X189237381Y-96993825D01*
X189208119Y-97060355D01*
X189176250Y-97131291D01*
X189143201Y-97203507D01*
X189110401Y-97273880D01*
X189079280Y-97339285D01*
X189051265Y-97396597D01*
X189027786Y-97442692D01*
X189010272Y-97474446D01*
X189000151Y-97488733D01*
X188965743Y-97502102D01*
X188924046Y-97495741D01*
X188918681Y-97491044D01*
X188902852Y-97468893D01*
X188880650Y-97432132D01*
X188854233Y-97384415D01*
X188825760Y-97329393D01*
X188745986Y-97170150D01*
X188672799Y-97316742D01*
X188663103Y-97336032D01*
X188636125Y-97388380D01*
X188612096Y-97433170D01*
X188593332Y-97466154D01*
X188582146Y-97483089D01*
X188581000Y-97484332D01*
X188552879Y-97499619D01*
X188517817Y-97501302D01*
X188486776Y-97488733D01*
X188484350Y-97485884D01*
X188472090Y-97465259D01*
X188452352Y-97427708D01*
X188426448Y-97375880D01*
X188395685Y-97312423D01*
X188361375Y-97239985D01*
X188324825Y-97161216D01*
X188304585Y-97117093D01*
X188267812Y-97036365D01*
X188239355Y-96972687D01*
X188218331Y-96923752D01*
X188203854Y-96887257D01*
X188195039Y-96860895D01*
X188191004Y-96842361D01*
X188190862Y-96829352D01*
X188193730Y-96819561D01*
X188208387Y-96798678D01*
X188234990Y-96778377D01*
X188235745Y-96778035D01*
X188255335Y-96771034D01*
X188272790Y-96770504D01*
X188289702Y-96778478D01*
G37*
X195840853Y-96769936D02*
X195907100Y-96775366D01*
X195962400Y-96784964D01*
X196013283Y-96799825D01*
X196084595Y-96832958D01*
X196135752Y-96875640D01*
X196166575Y-96927705D01*
X196176889Y-96988983D01*
X196175952Y-97020232D01*
X196170160Y-97045029D01*
X196155353Y-97066699D01*
X196127380Y-97094049D01*
X196119402Y-97101378D01*
X196095692Y-97122281D01*
X196073298Y-97139251D01*
X196049265Y-97153205D01*
X196020637Y-97165056D01*
X195984460Y-97175720D01*
X195937780Y-97186111D01*
X195877641Y-97197146D01*
X195801090Y-97209738D01*
X195705171Y-97224804D01*
X195686808Y-97227838D01*
X195624478Y-97241458D01*
X195579260Y-97257192D01*
X195552976Y-97274263D01*
X195547447Y-97291897D01*
X195550068Y-97296168D01*
X195568000Y-97311233D01*
X195596126Y-97327867D01*
X195608926Y-97333857D01*
X195630224Y-97341050D01*
X195656610Y-97345827D01*
X195692454Y-97348646D01*
X195742128Y-97349964D01*
X195810000Y-97350237D01*
X195827785Y-97350164D01*
X195895406Y-97349053D01*
X195960345Y-97346828D01*
X196015970Y-97343762D01*
X196055651Y-97340127D01*
X196091162Y-97336059D01*
X196120415Y-97335276D01*
X196139315Y-97339876D01*
X196154429Y-97350551D01*
X196158085Y-97354144D01*
X196174427Y-97385918D01*
X196173107Y-97421572D01*
X196154150Y-97452190D01*
X196133780Y-97463796D01*
X196097796Y-97476491D01*
X196055372Y-97486541D01*
X196051922Y-97487140D01*
X196009252Y-97492356D01*
X195951866Y-97496730D01*
X195886849Y-97499818D01*
X195821289Y-97501177D01*
X195805057Y-97501218D01*
X195706744Y-97498741D01*
X195626692Y-97490735D01*
X195561513Y-97476203D01*
X195507817Y-97454149D01*
X195462216Y-97423576D01*
X195421323Y-97383486D01*
X195401202Y-97357259D01*
X195389576Y-97327712D01*
X195386667Y-97287995D01*
X195386808Y-97276026D01*
X195390681Y-97243345D01*
X195403065Y-97216819D01*
X195428230Y-97185971D01*
X195449442Y-97163831D01*
X195475838Y-97141285D01*
X195505555Y-97122917D01*
X195541785Y-97107661D01*
X195587717Y-97094449D01*
X195646544Y-97082214D01*
X195721456Y-97069889D01*
X195815645Y-97056406D01*
X195860957Y-97049396D01*
X195928911Y-97034837D01*
X195978047Y-97018337D01*
X196007614Y-97000439D01*
X196016864Y-96981685D01*
X196005048Y-96962615D01*
X195971416Y-96943771D01*
X195968370Y-96942557D01*
X195922011Y-96930479D01*
X195859361Y-96922279D01*
X195785927Y-96918119D01*
X195707217Y-96918161D01*
X195628739Y-96922569D01*
X195556000Y-96931505D01*
X195552073Y-96932154D01*
X195503257Y-96939861D01*
X195471005Y-96943473D01*
X195450008Y-96942876D01*
X195434954Y-96937954D01*
X195420534Y-96928596D01*
X195419364Y-96927725D01*
X195394847Y-96897351D01*
X195390054Y-96861850D01*
X195405860Y-96827269D01*
X195410406Y-96822813D01*
X195440020Y-96807673D01*
X195487002Y-96794550D01*
X195547306Y-96783750D01*
X195616888Y-96775581D01*
X195691703Y-96770351D01*
X195767706Y-96768367D01*
X195840853Y-96769936D01*
G36*
X195840853Y-96769936D02*
G01*
X195907100Y-96775366D01*
X195962400Y-96784964D01*
X196013283Y-96799825D01*
X196084595Y-96832958D01*
X196135752Y-96875640D01*
X196166575Y-96927705D01*
X196176889Y-96988983D01*
X196175952Y-97020232D01*
X196170160Y-97045029D01*
X196155353Y-97066699D01*
X196127380Y-97094049D01*
X196119402Y-97101378D01*
X196095692Y-97122281D01*
X196073298Y-97139251D01*
X196049265Y-97153205D01*
X196020637Y-97165056D01*
X195984460Y-97175720D01*
X195937780Y-97186111D01*
X195877641Y-97197146D01*
X195801090Y-97209738D01*
X195705171Y-97224804D01*
X195686808Y-97227838D01*
X195624478Y-97241458D01*
X195579260Y-97257192D01*
X195552976Y-97274263D01*
X195547447Y-97291897D01*
X195550068Y-97296168D01*
X195568000Y-97311233D01*
X195596126Y-97327867D01*
X195608926Y-97333857D01*
X195630224Y-97341050D01*
X195656610Y-97345827D01*
X195692454Y-97348646D01*
X195742128Y-97349964D01*
X195810000Y-97350237D01*
X195827785Y-97350164D01*
X195895406Y-97349053D01*
X195960345Y-97346828D01*
X196015970Y-97343762D01*
X196055651Y-97340127D01*
X196091162Y-97336059D01*
X196120415Y-97335276D01*
X196139315Y-97339876D01*
X196154429Y-97350551D01*
X196158085Y-97354144D01*
X196174427Y-97385918D01*
X196173107Y-97421572D01*
X196154150Y-97452190D01*
X196133780Y-97463796D01*
X196097796Y-97476491D01*
X196055372Y-97486541D01*
X196051922Y-97487140D01*
X196009252Y-97492356D01*
X195951866Y-97496730D01*
X195886849Y-97499818D01*
X195821289Y-97501177D01*
X195805057Y-97501218D01*
X195706744Y-97498741D01*
X195626692Y-97490735D01*
X195561513Y-97476203D01*
X195507817Y-97454149D01*
X195462216Y-97423576D01*
X195421323Y-97383486D01*
X195401202Y-97357259D01*
X195389576Y-97327712D01*
X195386667Y-97287995D01*
X195386808Y-97276026D01*
X195390681Y-97243345D01*
X195403065Y-97216819D01*
X195428230Y-97185971D01*
X195449442Y-97163831D01*
X195475838Y-97141285D01*
X195505555Y-97122917D01*
X195541785Y-97107661D01*
X195587717Y-97094449D01*
X195646544Y-97082214D01*
X195721456Y-97069889D01*
X195815645Y-97056406D01*
X195860957Y-97049396D01*
X195928911Y-97034837D01*
X195978047Y-97018337D01*
X196007614Y-97000439D01*
X196016864Y-96981685D01*
X196005048Y-96962615D01*
X195971416Y-96943771D01*
X195968370Y-96942557D01*
X195922011Y-96930479D01*
X195859361Y-96922279D01*
X195785927Y-96918119D01*
X195707217Y-96918161D01*
X195628739Y-96922569D01*
X195556000Y-96931505D01*
X195552073Y-96932154D01*
X195503257Y-96939861D01*
X195471005Y-96943473D01*
X195450008Y-96942876D01*
X195434954Y-96937954D01*
X195420534Y-96928596D01*
X195419364Y-96927725D01*
X195394847Y-96897351D01*
X195390054Y-96861850D01*
X195405860Y-96827269D01*
X195410406Y-96822813D01*
X195440020Y-96807673D01*
X195487002Y-96794550D01*
X195547306Y-96783750D01*
X195616888Y-96775581D01*
X195691703Y-96770351D01*
X195767706Y-96768367D01*
X195840853Y-96769936D01*
G37*
X191988711Y-92462033D02*
X192084268Y-92479523D01*
X192248558Y-92524564D01*
X192402589Y-92587656D01*
X192548509Y-92669915D01*
X192688466Y-92772457D01*
X192824608Y-92896399D01*
X192868473Y-92941661D01*
X192980758Y-93073865D01*
X193073972Y-93211832D01*
X193150719Y-93359750D01*
X193213603Y-93521803D01*
X193217420Y-93533391D01*
X193267507Y-93719392D01*
X193300899Y-93915521D01*
X193317584Y-94117568D01*
X193317551Y-94321325D01*
X193300791Y-94522581D01*
X193267292Y-94717128D01*
X193217044Y-94900756D01*
X193173190Y-95018053D01*
X193095348Y-95180951D01*
X193001828Y-95334866D01*
X192894822Y-95476671D01*
X192776519Y-95603239D01*
X192649111Y-95711441D01*
X192571606Y-95764120D01*
X192444725Y-95833750D01*
X192307243Y-95892468D01*
X192165716Y-95937587D01*
X192026702Y-95966422D01*
X192012597Y-95968106D01*
X191969153Y-95971434D01*
X191911723Y-95974275D01*
X191846122Y-95976373D01*
X191778167Y-95977468D01*
X191651378Y-95975140D01*
X191503673Y-95962136D01*
X191365779Y-95937133D01*
X191232014Y-95899318D01*
X191208562Y-95890889D01*
X191160612Y-95871408D01*
X191104140Y-95846473D01*
X191042379Y-95817722D01*
X190978563Y-95786790D01*
X190915926Y-95755315D01*
X190857703Y-95724934D01*
X190807127Y-95697283D01*
X190767433Y-95673999D01*
X190741854Y-95656718D01*
X190733625Y-95647079D01*
X190735076Y-95643984D01*
X190746250Y-95624079D01*
X190767134Y-95588420D01*
X190796265Y-95539459D01*
X190832181Y-95479646D01*
X190873420Y-95411433D01*
X190918517Y-95337271D01*
X191099785Y-95040008D01*
X191146315Y-95084539D01*
X191237723Y-95162865D01*
X191351334Y-95237439D01*
X191469122Y-95291474D01*
X191589559Y-95324290D01*
X191711117Y-95335211D01*
X191752585Y-95333868D01*
X191870080Y-95315612D01*
X191980089Y-95276617D01*
X192081430Y-95217670D01*
X192172921Y-95139557D01*
X192253380Y-95043064D01*
X192321627Y-94928978D01*
X192337908Y-94894724D01*
X192383982Y-94771240D01*
X192419106Y-94632918D01*
X192443197Y-94483561D01*
X192456173Y-94326973D01*
X192457949Y-94166956D01*
X192448443Y-94007314D01*
X192427572Y-93851850D01*
X192395252Y-93704366D01*
X192351399Y-93568667D01*
X192313982Y-93482076D01*
X192249185Y-93368688D01*
X192173772Y-93275070D01*
X192087418Y-93200959D01*
X191989795Y-93146094D01*
X191880577Y-93110212D01*
X191759439Y-93093051D01*
X191690038Y-93091880D01*
X191567168Y-93106141D01*
X191451664Y-93141241D01*
X191344953Y-93196682D01*
X191248464Y-93271964D01*
X191232720Y-93286440D01*
X191202150Y-93312962D01*
X191179809Y-93330138D01*
X191169691Y-93334787D01*
X191167706Y-93332597D01*
X191153241Y-93313721D01*
X191129400Y-93280397D01*
X191098029Y-93235380D01*
X191060974Y-93181425D01*
X191020083Y-93121285D01*
X190977202Y-93057718D01*
X190934178Y-92993476D01*
X190892857Y-92931315D01*
X190855086Y-92873991D01*
X190822712Y-92824257D01*
X190797582Y-92784868D01*
X190781542Y-92758580D01*
X190776439Y-92748147D01*
X190781050Y-92743941D01*
X190800267Y-92738933D01*
X190809838Y-92736386D01*
X190837809Y-92725249D01*
X190879448Y-92706802D01*
X190930995Y-92682725D01*
X190988690Y-92654699D01*
X190999957Y-92649154D01*
X191177687Y-92569889D01*
X191347490Y-92510385D01*
X191511430Y-92470245D01*
X191671571Y-92449071D01*
X191829977Y-92446466D01*
X191988711Y-92462033D01*
G36*
X191988711Y-92462033D02*
G01*
X192084268Y-92479523D01*
X192248558Y-92524564D01*
X192402589Y-92587656D01*
X192548509Y-92669915D01*
X192688466Y-92772457D01*
X192824608Y-92896399D01*
X192868473Y-92941661D01*
X192980758Y-93073865D01*
X193073972Y-93211832D01*
X193150719Y-93359750D01*
X193213603Y-93521803D01*
X193217420Y-93533391D01*
X193267507Y-93719392D01*
X193300899Y-93915521D01*
X193317584Y-94117568D01*
X193317551Y-94321325D01*
X193300791Y-94522581D01*
X193267292Y-94717128D01*
X193217044Y-94900756D01*
X193173190Y-95018053D01*
X193095348Y-95180951D01*
X193001828Y-95334866D01*
X192894822Y-95476671D01*
X192776519Y-95603239D01*
X192649111Y-95711441D01*
X192571606Y-95764120D01*
X192444725Y-95833750D01*
X192307243Y-95892468D01*
X192165716Y-95937587D01*
X192026702Y-95966422D01*
X192012597Y-95968106D01*
X191969153Y-95971434D01*
X191911723Y-95974275D01*
X191846122Y-95976373D01*
X191778167Y-95977468D01*
X191651378Y-95975140D01*
X191503673Y-95962136D01*
X191365779Y-95937133D01*
X191232014Y-95899318D01*
X191208562Y-95890889D01*
X191160612Y-95871408D01*
X191104140Y-95846473D01*
X191042379Y-95817722D01*
X190978563Y-95786790D01*
X190915926Y-95755315D01*
X190857703Y-95724934D01*
X190807127Y-95697283D01*
X190767433Y-95673999D01*
X190741854Y-95656718D01*
X190733625Y-95647079D01*
X190735076Y-95643984D01*
X190746250Y-95624079D01*
X190767134Y-95588420D01*
X190796265Y-95539459D01*
X190832181Y-95479646D01*
X190873420Y-95411433D01*
X190918517Y-95337271D01*
X191099785Y-95040008D01*
X191146315Y-95084539D01*
X191237723Y-95162865D01*
X191351334Y-95237439D01*
X191469122Y-95291474D01*
X191589559Y-95324290D01*
X191711117Y-95335211D01*
X191752585Y-95333868D01*
X191870080Y-95315612D01*
X191980089Y-95276617D01*
X192081430Y-95217670D01*
X192172921Y-95139557D01*
X192253380Y-95043064D01*
X192321627Y-94928978D01*
X192337908Y-94894724D01*
X192383982Y-94771240D01*
X192419106Y-94632918D01*
X192443197Y-94483561D01*
X192456173Y-94326973D01*
X192457949Y-94166956D01*
X192448443Y-94007314D01*
X192427572Y-93851850D01*
X192395252Y-93704366D01*
X192351399Y-93568667D01*
X192313982Y-93482076D01*
X192249185Y-93368688D01*
X192173772Y-93275070D01*
X192087418Y-93200959D01*
X191989795Y-93146094D01*
X191880577Y-93110212D01*
X191759439Y-93093051D01*
X191690038Y-93091880D01*
X191567168Y-93106141D01*
X191451664Y-93141241D01*
X191344953Y-93196682D01*
X191248464Y-93271964D01*
X191232720Y-93286440D01*
X191202150Y-93312962D01*
X191179809Y-93330138D01*
X191169691Y-93334787D01*
X191167706Y-93332597D01*
X191153241Y-93313721D01*
X191129400Y-93280397D01*
X191098029Y-93235380D01*
X191060974Y-93181425D01*
X191020083Y-93121285D01*
X190977202Y-93057718D01*
X190934178Y-92993476D01*
X190892857Y-92931315D01*
X190855086Y-92873991D01*
X190822712Y-92824257D01*
X190797582Y-92784868D01*
X190781542Y-92758580D01*
X190776439Y-92748147D01*
X190781050Y-92743941D01*
X190800267Y-92738933D01*
X190809838Y-92736386D01*
X190837809Y-92725249D01*
X190879448Y-92706802D01*
X190930995Y-92682725D01*
X190988690Y-92654699D01*
X190999957Y-92649154D01*
X191177687Y-92569889D01*
X191347490Y-92510385D01*
X191511430Y-92470245D01*
X191671571Y-92449071D01*
X191829977Y-92446466D01*
X191988711Y-92462033D01*
G37*
X188185994Y-94742711D02*
X188185268Y-94820158D01*
X188176689Y-94971594D01*
X188157833Y-95108283D01*
X188127837Y-95234276D01*
X188085836Y-95353625D01*
X188030969Y-95470381D01*
X187964167Y-95581179D01*
X187873363Y-95694739D01*
X187769708Y-95790211D01*
X187653887Y-95867073D01*
X187526586Y-95924797D01*
X187388489Y-95962858D01*
X187350793Y-95968666D01*
X187271752Y-95974396D01*
X187183629Y-95974583D01*
X187094236Y-95969539D01*
X187011384Y-95959578D01*
X186942887Y-95945012D01*
X186912035Y-95935364D01*
X186834730Y-95905123D01*
X186757679Y-95867617D01*
X186688200Y-95826614D01*
X186633615Y-95785879D01*
X186610916Y-95766505D01*
X186588201Y-95748662D01*
X186576779Y-95741778D01*
X186575537Y-95743424D01*
X186572728Y-95761205D01*
X186570776Y-95794370D01*
X186570045Y-95837733D01*
X186570045Y-95933689D01*
X185711896Y-95933689D01*
X185746161Y-95872974D01*
X185751355Y-95863868D01*
X185759715Y-95849249D01*
X185767288Y-95835173D01*
X185774112Y-95820540D01*
X185780227Y-95804249D01*
X185785673Y-95785198D01*
X185790487Y-95762286D01*
X185794708Y-95734413D01*
X185798377Y-95700478D01*
X185801531Y-95659379D01*
X185804211Y-95610015D01*
X185806454Y-95551286D01*
X185808299Y-95482090D01*
X185809787Y-95401326D01*
X185810955Y-95307894D01*
X185811844Y-95200692D01*
X185812491Y-95078620D01*
X185812936Y-94940576D01*
X185813218Y-94785459D01*
X185813375Y-94612168D01*
X185813448Y-94419603D01*
X185813474Y-94206662D01*
X185813485Y-94070530D01*
X186615200Y-94070530D01*
X186615200Y-95220721D01*
X186685756Y-95267089D01*
X186726417Y-95290791D01*
X186780546Y-95316639D01*
X186829689Y-95334829D01*
X186893165Y-95350551D01*
X186989331Y-95361541D01*
X187073900Y-95353365D01*
X187147219Y-95325805D01*
X187209637Y-95278642D01*
X187261502Y-95211658D01*
X187303160Y-95124633D01*
X187334962Y-95017350D01*
X187337545Y-95005009D01*
X187346000Y-94943772D01*
X187351663Y-94866692D01*
X187354576Y-94779002D01*
X187354783Y-94685934D01*
X187352330Y-94592720D01*
X187347261Y-94504594D01*
X187339619Y-94426788D01*
X187329448Y-94364533D01*
X187328167Y-94358666D01*
X187299126Y-94248121D01*
X187264610Y-94157575D01*
X187223456Y-94084953D01*
X187174499Y-94028181D01*
X187116574Y-93985184D01*
X187084620Y-93969615D01*
X187011784Y-93950722D01*
X186930443Y-93947465D01*
X186845319Y-93959389D01*
X186761133Y-93986040D01*
X186682608Y-94026962D01*
X186615200Y-94070530D01*
X185813485Y-94070530D01*
X185813493Y-93972245D01*
X185813689Y-92287378D01*
X186719017Y-92287378D01*
X186694585Y-92324067D01*
X186688318Y-92333647D01*
X186662208Y-92379981D01*
X186644469Y-92427102D01*
X186632908Y-92482251D01*
X186625331Y-92552667D01*
X186624839Y-92559650D01*
X186623062Y-92597641D01*
X186621444Y-92651576D01*
X186619999Y-92718703D01*
X186618740Y-92796271D01*
X186617680Y-92881528D01*
X186616829Y-92971724D01*
X186616203Y-93064107D01*
X186615812Y-93155925D01*
X186615670Y-93244427D01*
X186615790Y-93326862D01*
X186616183Y-93400479D01*
X186616862Y-93462526D01*
X186617841Y-93510251D01*
X186619132Y-93540904D01*
X186620747Y-93551733D01*
X186628957Y-93547333D01*
X186650647Y-93532362D01*
X186680014Y-93510448D01*
X186728879Y-93476236D01*
X186817125Y-93429714D01*
X186915916Y-93396046D01*
X187028510Y-93374231D01*
X187158164Y-93363265D01*
X187250670Y-93362219D01*
X187372011Y-93372014D01*
X187482099Y-93396174D01*
X187585389Y-93435785D01*
X187686338Y-93491932D01*
X187731503Y-93522883D01*
X187836911Y-93614115D01*
X187928538Y-93723106D01*
X188006332Y-93849726D01*
X188070241Y-93993845D01*
X188120214Y-94155332D01*
X188156198Y-94334059D01*
X188178143Y-94529895D01*
X188183900Y-94685934D01*
X188185994Y-94742711D01*
G36*
X188185994Y-94742711D02*
G01*
X188185268Y-94820158D01*
X188176689Y-94971594D01*
X188157833Y-95108283D01*
X188127837Y-95234276D01*
X188085836Y-95353625D01*
X188030969Y-95470381D01*
X187964167Y-95581179D01*
X187873363Y-95694739D01*
X187769708Y-95790211D01*
X187653887Y-95867073D01*
X187526586Y-95924797D01*
X187388489Y-95962858D01*
X187350793Y-95968666D01*
X187271752Y-95974396D01*
X187183629Y-95974583D01*
X187094236Y-95969539D01*
X187011384Y-95959578D01*
X186942887Y-95945012D01*
X186912035Y-95935364D01*
X186834730Y-95905123D01*
X186757679Y-95867617D01*
X186688200Y-95826614D01*
X186633615Y-95785879D01*
X186610916Y-95766505D01*
X186588201Y-95748662D01*
X186576779Y-95741778D01*
X186575537Y-95743424D01*
X186572728Y-95761205D01*
X186570776Y-95794370D01*
X186570045Y-95837733D01*
X186570045Y-95933689D01*
X185711896Y-95933689D01*
X185746161Y-95872974D01*
X185751355Y-95863868D01*
X185759715Y-95849249D01*
X185767288Y-95835173D01*
X185774112Y-95820540D01*
X185780227Y-95804249D01*
X185785673Y-95785198D01*
X185790487Y-95762286D01*
X185794708Y-95734413D01*
X185798377Y-95700478D01*
X185801531Y-95659379D01*
X185804211Y-95610015D01*
X185806454Y-95551286D01*
X185808299Y-95482090D01*
X185809787Y-95401326D01*
X185810955Y-95307894D01*
X185811844Y-95200692D01*
X185812491Y-95078620D01*
X185812936Y-94940576D01*
X185813218Y-94785459D01*
X185813375Y-94612168D01*
X185813448Y-94419603D01*
X185813474Y-94206662D01*
X185813485Y-94070530D01*
X186615200Y-94070530D01*
X186615200Y-95220721D01*
X186685756Y-95267089D01*
X186726417Y-95290791D01*
X186780546Y-95316639D01*
X186829689Y-95334829D01*
X186893165Y-95350551D01*
X186989331Y-95361541D01*
X187073900Y-95353365D01*
X187147219Y-95325805D01*
X187209637Y-95278642D01*
X187261502Y-95211658D01*
X187303160Y-95124633D01*
X187334962Y-95017350D01*
X187337545Y-95005009D01*
X187346000Y-94943772D01*
X187351663Y-94866692D01*
X187354576Y-94779002D01*
X187354783Y-94685934D01*
X187352330Y-94592720D01*
X187347261Y-94504594D01*
X187339619Y-94426788D01*
X187329448Y-94364533D01*
X187328167Y-94358666D01*
X187299126Y-94248121D01*
X187264610Y-94157575D01*
X187223456Y-94084953D01*
X187174499Y-94028181D01*
X187116574Y-93985184D01*
X187084620Y-93969615D01*
X187011784Y-93950722D01*
X186930443Y-93947465D01*
X186845319Y-93959389D01*
X186761133Y-93986040D01*
X186682608Y-94026962D01*
X186615200Y-94070530D01*
X185813485Y-94070530D01*
X185813493Y-93972245D01*
X185813689Y-92287378D01*
X186719017Y-92287378D01*
X186694585Y-92324067D01*
X186688318Y-92333647D01*
X186662208Y-92379981D01*
X186644469Y-92427102D01*
X186632908Y-92482251D01*
X186625331Y-92552667D01*
X186624839Y-92559650D01*
X186623062Y-92597641D01*
X186621444Y-92651576D01*
X186619999Y-92718703D01*
X186618740Y-92796271D01*
X186617680Y-92881528D01*
X186616829Y-92971724D01*
X186616203Y-93064107D01*
X186615812Y-93155925D01*
X186615670Y-93244427D01*
X186615790Y-93326862D01*
X186616183Y-93400479D01*
X186616862Y-93462526D01*
X186617841Y-93510251D01*
X186619132Y-93540904D01*
X186620747Y-93551733D01*
X186628957Y-93547333D01*
X186650647Y-93532362D01*
X186680014Y-93510448D01*
X186728879Y-93476236D01*
X186817125Y-93429714D01*
X186915916Y-93396046D01*
X187028510Y-93374231D01*
X187158164Y-93363265D01*
X187250670Y-93362219D01*
X187372011Y-93372014D01*
X187482099Y-93396174D01*
X187585389Y-93435785D01*
X187686338Y-93491932D01*
X187731503Y-93522883D01*
X187836911Y-93614115D01*
X187928538Y-93723106D01*
X188006332Y-93849726D01*
X188070241Y-93993845D01*
X188120214Y-94155332D01*
X188156198Y-94334059D01*
X188178143Y-94529895D01*
X188183900Y-94685934D01*
X188185994Y-94742711D01*
G37*
X190727755Y-95143467D02*
X190727261Y-95177363D01*
X190723632Y-95252202D01*
X190716022Y-95314401D01*
X190703688Y-95370984D01*
X190659313Y-95497076D01*
X190596400Y-95611679D01*
X190516238Y-95712568D01*
X190419740Y-95798924D01*
X190307822Y-95869932D01*
X190181397Y-95924776D01*
X190041378Y-95962638D01*
X190005149Y-95968351D01*
X189926155Y-95974313D01*
X189837841Y-95974646D01*
X189748075Y-95969659D01*
X189664722Y-95959666D01*
X189595651Y-95944978D01*
X189509187Y-95914749D01*
X189399286Y-95860057D01*
X189301956Y-95792543D01*
X189239867Y-95741556D01*
X189236605Y-95837622D01*
X189233343Y-95933689D01*
X188810450Y-95933689D01*
X188799543Y-95933686D01*
X188705056Y-95933380D01*
X188618331Y-95932616D01*
X188541837Y-95931451D01*
X188478043Y-95929942D01*
X188429418Y-95928147D01*
X188398433Y-95926121D01*
X188387556Y-95923922D01*
X188387578Y-95923463D01*
X188394614Y-95907910D01*
X188410434Y-95885071D01*
X188414734Y-95879638D01*
X188425777Y-95865606D01*
X188435311Y-95852186D01*
X188443461Y-95837722D01*
X188450352Y-95820556D01*
X188456111Y-95799034D01*
X188460862Y-95771498D01*
X188464731Y-95736292D01*
X188467844Y-95691760D01*
X188470325Y-95636246D01*
X188472300Y-95568093D01*
X188473894Y-95485645D01*
X188475234Y-95387246D01*
X188476444Y-95271239D01*
X188477649Y-95135968D01*
X188478595Y-95024586D01*
X189279378Y-95024586D01*
X189279378Y-95220462D01*
X189324048Y-95276973D01*
X189336785Y-95292212D01*
X189383604Y-95334844D01*
X189444255Y-95370672D01*
X189454897Y-95375850D01*
X189493676Y-95392745D01*
X189528692Y-95402909D01*
X189568722Y-95408325D01*
X189622541Y-95410978D01*
X189640648Y-95411383D01*
X189716011Y-95408540D01*
X189776743Y-95396620D01*
X189828452Y-95374037D01*
X189876746Y-95339211D01*
X189881803Y-95334798D01*
X189930272Y-95279160D01*
X189958459Y-95215333D01*
X189967752Y-95140282D01*
X189960520Y-95068693D01*
X189935796Y-95005645D01*
X189891249Y-94947758D01*
X189836319Y-94900808D01*
X189763894Y-94860961D01*
X189677340Y-94833263D01*
X189574670Y-94817096D01*
X189453894Y-94811842D01*
X189445007Y-94811857D01*
X189389660Y-94812655D01*
X189342736Y-94814488D01*
X189308953Y-94817111D01*
X189293028Y-94820274D01*
X189288943Y-94826741D01*
X189284572Y-94848875D01*
X189281604Y-94887988D01*
X189279914Y-94945939D01*
X189279378Y-95024586D01*
X188478595Y-95024586D01*
X188478975Y-94979778D01*
X188480228Y-94837012D01*
X188481651Y-94691942D01*
X188483176Y-94566027D01*
X188484933Y-94457436D01*
X188487051Y-94364334D01*
X188489660Y-94284891D01*
X188492890Y-94217273D01*
X188496869Y-94159649D01*
X188501728Y-94110185D01*
X188507597Y-94067050D01*
X188514604Y-94028410D01*
X188522880Y-93992434D01*
X188532554Y-93957289D01*
X188543756Y-93921142D01*
X188556616Y-93882161D01*
X188572090Y-93839091D01*
X188614994Y-93746871D01*
X188668735Y-93667099D01*
X188737576Y-93592965D01*
X188815185Y-93529405D01*
X188919761Y-93467725D01*
X189039244Y-93420202D01*
X189174508Y-93386567D01*
X189326426Y-93366552D01*
X189495872Y-93359889D01*
X189553890Y-93360287D01*
X189619398Y-93362335D01*
X189680693Y-93366704D01*
X189742097Y-93374035D01*
X189807932Y-93384969D01*
X189882520Y-93400147D01*
X189970184Y-93420209D01*
X190075245Y-93445797D01*
X190103806Y-93452820D01*
X190179054Y-93470776D01*
X190249388Y-93486820D01*
X190310567Y-93500028D01*
X190358354Y-93509474D01*
X190388511Y-93514231D01*
X190416783Y-93517910D01*
X190443060Y-93523187D01*
X190453059Y-93527942D01*
X190449952Y-93536781D01*
X190439194Y-93564072D01*
X190421864Y-93606906D01*
X190399126Y-93662425D01*
X190372147Y-93727772D01*
X190342090Y-93800089D01*
X190335493Y-93815879D01*
X190296907Y-93906484D01*
X190265768Y-93976217D01*
X190241917Y-94025405D01*
X190225198Y-94054374D01*
X190215454Y-94063452D01*
X190207766Y-94061405D01*
X190181415Y-94051760D01*
X190142982Y-94036190D01*
X190097822Y-94016815D01*
X190003293Y-93978814D01*
X189866480Y-93937780D01*
X189725289Y-93912612D01*
X189687314Y-93908611D01*
X189584059Y-93906447D01*
X189496952Y-93919622D01*
X189425129Y-93948756D01*
X189367731Y-93994466D01*
X189323896Y-94057372D01*
X189292762Y-94138092D01*
X189273470Y-94237245D01*
X189266050Y-94296224D01*
X189427936Y-94289445D01*
X189554495Y-94287813D01*
X189705951Y-94294194D01*
X189854396Y-94308777D01*
X189990578Y-94330882D01*
X190055245Y-94345821D01*
X190187490Y-94388741D01*
X190309762Y-94445340D01*
X190419685Y-94514017D01*
X190514883Y-94593170D01*
X190592980Y-94681196D01*
X190651599Y-94776493D01*
X190675595Y-94828864D01*
X190701232Y-94899590D01*
X190717478Y-94970812D01*
X190725822Y-95049712D01*
X190727690Y-95140282D01*
X190727755Y-95143467D01*
G36*
X190727755Y-95143467D02*
G01*
X190727261Y-95177363D01*
X190723632Y-95252202D01*
X190716022Y-95314401D01*
X190703688Y-95370984D01*
X190659313Y-95497076D01*
X190596400Y-95611679D01*
X190516238Y-95712568D01*
X190419740Y-95798924D01*
X190307822Y-95869932D01*
X190181397Y-95924776D01*
X190041378Y-95962638D01*
X190005149Y-95968351D01*
X189926155Y-95974313D01*
X189837841Y-95974646D01*
X189748075Y-95969659D01*
X189664722Y-95959666D01*
X189595651Y-95944978D01*
X189509187Y-95914749D01*
X189399286Y-95860057D01*
X189301956Y-95792543D01*
X189239867Y-95741556D01*
X189236605Y-95837622D01*
X189233343Y-95933689D01*
X188810450Y-95933689D01*
X188799543Y-95933686D01*
X188705056Y-95933380D01*
X188618331Y-95932616D01*
X188541837Y-95931451D01*
X188478043Y-95929942D01*
X188429418Y-95928147D01*
X188398433Y-95926121D01*
X188387556Y-95923922D01*
X188387578Y-95923463D01*
X188394614Y-95907910D01*
X188410434Y-95885071D01*
X188414734Y-95879638D01*
X188425777Y-95865606D01*
X188435311Y-95852186D01*
X188443461Y-95837722D01*
X188450352Y-95820556D01*
X188456111Y-95799034D01*
X188460862Y-95771498D01*
X188464731Y-95736292D01*
X188467844Y-95691760D01*
X188470325Y-95636246D01*
X188472300Y-95568093D01*
X188473894Y-95485645D01*
X188475234Y-95387246D01*
X188476444Y-95271239D01*
X188477649Y-95135968D01*
X188478595Y-95024586D01*
X189279378Y-95024586D01*
X189279378Y-95220462D01*
X189324048Y-95276973D01*
X189336785Y-95292212D01*
X189383604Y-95334844D01*
X189444255Y-95370672D01*
X189454897Y-95375850D01*
X189493676Y-95392745D01*
X189528692Y-95402909D01*
X189568722Y-95408325D01*
X189622541Y-95410978D01*
X189640648Y-95411383D01*
X189716011Y-95408540D01*
X189776743Y-95396620D01*
X189828452Y-95374037D01*
X189876746Y-95339211D01*
X189881803Y-95334798D01*
X189930272Y-95279160D01*
X189958459Y-95215333D01*
X189967752Y-95140282D01*
X189960520Y-95068693D01*
X189935796Y-95005645D01*
X189891249Y-94947758D01*
X189836319Y-94900808D01*
X189763894Y-94860961D01*
X189677340Y-94833263D01*
X189574670Y-94817096D01*
X189453894Y-94811842D01*
X189445007Y-94811857D01*
X189389660Y-94812655D01*
X189342736Y-94814488D01*
X189308953Y-94817111D01*
X189293028Y-94820274D01*
X189288943Y-94826741D01*
X189284572Y-94848875D01*
X189281604Y-94887988D01*
X189279914Y-94945939D01*
X189279378Y-95024586D01*
X188478595Y-95024586D01*
X188478975Y-94979778D01*
X188480228Y-94837012D01*
X188481651Y-94691942D01*
X188483176Y-94566027D01*
X188484933Y-94457436D01*
X188487051Y-94364334D01*
X188489660Y-94284891D01*
X188492890Y-94217273D01*
X188496869Y-94159649D01*
X188501728Y-94110185D01*
X188507597Y-94067050D01*
X188514604Y-94028410D01*
X188522880Y-93992434D01*
X188532554Y-93957289D01*
X188543756Y-93921142D01*
X188556616Y-93882161D01*
X188572090Y-93839091D01*
X188614994Y-93746871D01*
X188668735Y-93667099D01*
X188737576Y-93592965D01*
X188815185Y-93529405D01*
X188919761Y-93467725D01*
X189039244Y-93420202D01*
X189174508Y-93386567D01*
X189326426Y-93366552D01*
X189495872Y-93359889D01*
X189553890Y-93360287D01*
X189619398Y-93362335D01*
X189680693Y-93366704D01*
X189742097Y-93374035D01*
X189807932Y-93384969D01*
X189882520Y-93400147D01*
X189970184Y-93420209D01*
X190075245Y-93445797D01*
X190103806Y-93452820D01*
X190179054Y-93470776D01*
X190249388Y-93486820D01*
X190310567Y-93500028D01*
X190358354Y-93509474D01*
X190388511Y-93514231D01*
X190416783Y-93517910D01*
X190443060Y-93523187D01*
X190453059Y-93527942D01*
X190449952Y-93536781D01*
X190439194Y-93564072D01*
X190421864Y-93606906D01*
X190399126Y-93662425D01*
X190372147Y-93727772D01*
X190342090Y-93800089D01*
X190335493Y-93815879D01*
X190296907Y-93906484D01*
X190265768Y-93976217D01*
X190241917Y-94025405D01*
X190225198Y-94054374D01*
X190215454Y-94063452D01*
X190207766Y-94061405D01*
X190181415Y-94051760D01*
X190142982Y-94036190D01*
X190097822Y-94016815D01*
X190003293Y-93978814D01*
X189866480Y-93937780D01*
X189725289Y-93912612D01*
X189687314Y-93908611D01*
X189584059Y-93906447D01*
X189496952Y-93919622D01*
X189425129Y-93948756D01*
X189367731Y-93994466D01*
X189323896Y-94057372D01*
X189292762Y-94138092D01*
X189273470Y-94237245D01*
X189266050Y-94296224D01*
X189427936Y-94289445D01*
X189554495Y-94287813D01*
X189705951Y-94294194D01*
X189854396Y-94308777D01*
X189990578Y-94330882D01*
X190055245Y-94345821D01*
X190187490Y-94388741D01*
X190309762Y-94445340D01*
X190419685Y-94514017D01*
X190514883Y-94593170D01*
X190592980Y-94681196D01*
X190651599Y-94776493D01*
X190675595Y-94828864D01*
X190701232Y-94899590D01*
X190717478Y-94970812D01*
X190725822Y-95049712D01*
X190727690Y-95140282D01*
X190727755Y-95143467D01*
G37*
X198275614Y-92611792D02*
X198276059Y-92743011D01*
X198276362Y-92890216D01*
X198276548Y-93054349D01*
X198276642Y-93236352D01*
X198276671Y-93437165D01*
X198276661Y-93657732D01*
X198276636Y-93898992D01*
X198276622Y-94161889D01*
X198276622Y-94204040D01*
X198276646Y-94464668D01*
X198276685Y-94703796D01*
X198276708Y-94922360D01*
X198276687Y-95121295D01*
X198276593Y-95301535D01*
X198276395Y-95464015D01*
X198276063Y-95609670D01*
X198275569Y-95739434D01*
X198274883Y-95854243D01*
X198273976Y-95955030D01*
X198272817Y-96042730D01*
X198271378Y-96118279D01*
X198269629Y-96182611D01*
X198267540Y-96236661D01*
X198265083Y-96281363D01*
X198262227Y-96317652D01*
X198258943Y-96346463D01*
X198255202Y-96368731D01*
X198250974Y-96385390D01*
X198246229Y-96397375D01*
X198240939Y-96405621D01*
X198235073Y-96411062D01*
X198228602Y-96414634D01*
X198221497Y-96417270D01*
X198213728Y-96419906D01*
X198205266Y-96423477D01*
X198200908Y-96425145D01*
X198192395Y-96427111D01*
X198179694Y-96428911D01*
X198161885Y-96430555D01*
X198138049Y-96432047D01*
X198107266Y-96433397D01*
X198068617Y-96434611D01*
X198021182Y-96435697D01*
X197964043Y-96436661D01*
X197896279Y-96437511D01*
X197816971Y-96438253D01*
X197725199Y-96438897D01*
X197620044Y-96439447D01*
X197500587Y-96439913D01*
X197365908Y-96440300D01*
X197215088Y-96440616D01*
X197047206Y-96440869D01*
X196861345Y-96441066D01*
X196656583Y-96441213D01*
X196432002Y-96441318D01*
X196186682Y-96441389D01*
X195919704Y-96441432D01*
X195881321Y-96441437D01*
X195615922Y-96441480D01*
X195372050Y-96441525D01*
X195148783Y-96441548D01*
X194945196Y-96441524D01*
X194760367Y-96441430D01*
X194593373Y-96441243D01*
X194443290Y-96440939D01*
X194309196Y-96440494D01*
X194190166Y-96439885D01*
X194085279Y-96439089D01*
X193993610Y-96438080D01*
X193914237Y-96436837D01*
X193846237Y-96435335D01*
X193788686Y-96433551D01*
X193740662Y-96431461D01*
X193701240Y-96429042D01*
X193669499Y-96426270D01*
X193644514Y-96423121D01*
X193625364Y-96419572D01*
X193611123Y-96415598D01*
X193600871Y-96411178D01*
X193593682Y-96406286D01*
X193588635Y-96400900D01*
X193584805Y-96394996D01*
X193581271Y-96388549D01*
X193577108Y-96381537D01*
X193576025Y-96379687D01*
X193573813Y-96374180D01*
X193571786Y-96365868D01*
X193569938Y-96353809D01*
X193568261Y-96337063D01*
X193566745Y-96314687D01*
X193565383Y-96285740D01*
X193564167Y-96249280D01*
X193563089Y-96204367D01*
X193562140Y-96150057D01*
X193561312Y-96085410D01*
X193560597Y-96009484D01*
X193559987Y-95921338D01*
X193559942Y-95912493D01*
X193851378Y-95912493D01*
X193855260Y-95913765D01*
X193878520Y-95915791D01*
X193920874Y-95917626D01*
X193980132Y-95919227D01*
X194054107Y-95920549D01*
X194140610Y-95921548D01*
X194237452Y-95922180D01*
X194342445Y-95922400D01*
X195040651Y-95922400D01*
X196195090Y-95922400D01*
X196194456Y-95846200D01*
X196195574Y-95804160D01*
X196201304Y-95768334D01*
X196213890Y-95730772D01*
X196235568Y-95682577D01*
X196238789Y-95675897D01*
X196264188Y-95626359D01*
X196290996Y-95578369D01*
X196313917Y-95541466D01*
X196318485Y-95534834D01*
X196340516Y-95503593D01*
X196372693Y-95458654D01*
X196413457Y-95402147D01*
X196461245Y-95336204D01*
X196514498Y-95262957D01*
X196571655Y-95184536D01*
X196631155Y-95103072D01*
X196691437Y-95020698D01*
X196750940Y-94939544D01*
X196808105Y-94861742D01*
X196861370Y-94789423D01*
X196909174Y-94724718D01*
X196949957Y-94669759D01*
X196982158Y-94626676D01*
X197004216Y-94597602D01*
X197014571Y-94584667D01*
X197019044Y-94580351D01*
X197023236Y-94578312D01*
X197026643Y-94580926D01*
X197029325Y-94589986D01*
X197031341Y-94607285D01*
X197032748Y-94634614D01*
X197033605Y-94673765D01*
X197033970Y-94726533D01*
X197033903Y-94794707D01*
X197033460Y-94880082D01*
X197032702Y-94984449D01*
X197031685Y-95109600D01*
X197031308Y-95154300D01*
X197030169Y-95275395D01*
X197028972Y-95376688D01*
X197027636Y-95460262D01*
X197026077Y-95528204D01*
X197024215Y-95582599D01*
X197021966Y-95625532D01*
X197019248Y-95659089D01*
X197015979Y-95685355D01*
X197012078Y-95706416D01*
X197007461Y-95724357D01*
X196999192Y-95750770D01*
X196975583Y-95812772D01*
X196949685Y-95865573D01*
X196924535Y-95902645D01*
X196923339Y-95904075D01*
X196921168Y-95908424D01*
X196923328Y-95912026D01*
X196931644Y-95914951D01*
X196947940Y-95917269D01*
X196974041Y-95919051D01*
X197011771Y-95920367D01*
X197062956Y-95921286D01*
X197129420Y-95921878D01*
X197212987Y-95922215D01*
X197315483Y-95922365D01*
X197438732Y-95922400D01*
X197970296Y-95922400D01*
X197931523Y-95864783D01*
X197925432Y-95855893D01*
X197914976Y-95841069D01*
X197905579Y-95827422D01*
X197897183Y-95813765D01*
X197889733Y-95798911D01*
X197883173Y-95781670D01*
X197877446Y-95760855D01*
X197872495Y-95735280D01*
X197868266Y-95703755D01*
X197864701Y-95665093D01*
X197861744Y-95618107D01*
X197859340Y-95561608D01*
X197857431Y-95494409D01*
X197855962Y-95415322D01*
X197854876Y-95323160D01*
X197854118Y-95216734D01*
X197853630Y-95094857D01*
X197853358Y-94956341D01*
X197853243Y-94799999D01*
X197853231Y-94624642D01*
X197853265Y-94429082D01*
X197853289Y-94212133D01*
X197853280Y-94089513D01*
X197853243Y-93884447D01*
X197853227Y-93700116D01*
X197853288Y-93535334D01*
X197853484Y-93388916D01*
X197853870Y-93259674D01*
X197854505Y-93146422D01*
X197855444Y-93047975D01*
X197856745Y-92963144D01*
X197858464Y-92890744D01*
X197860659Y-92829589D01*
X197863385Y-92778492D01*
X197866701Y-92736267D01*
X197870662Y-92701727D01*
X197875325Y-92673686D01*
X197880747Y-92650958D01*
X197886986Y-92632356D01*
X197894097Y-92616693D01*
X197902138Y-92602784D01*
X197911166Y-92589441D01*
X197921236Y-92575479D01*
X197932407Y-92559711D01*
X197972197Y-92501867D01*
X196912314Y-92501867D01*
X196950311Y-92564966D01*
X196964993Y-92590005D01*
X196979531Y-92617586D01*
X196991627Y-92645700D01*
X197001532Y-92676551D01*
X197009494Y-92712344D01*
X197015761Y-92755283D01*
X197020582Y-92807574D01*
X197024206Y-92871419D01*
X197026881Y-92949025D01*
X197028857Y-93042594D01*
X197030382Y-93154333D01*
X197031704Y-93286445D01*
X197032613Y-93406434D01*
X197033020Y-93523063D01*
X197032767Y-93618531D01*
X197031857Y-93692556D01*
X197030293Y-93744855D01*
X197028079Y-93775149D01*
X197025220Y-93783156D01*
X197022161Y-93779858D01*
X197004006Y-93758408D01*
X196974275Y-93721889D01*
X196934639Y-93672442D01*
X196886771Y-93612207D01*
X196832343Y-93543327D01*
X196773027Y-93467943D01*
X196710495Y-93388196D01*
X196646421Y-93306228D01*
X196582475Y-93224180D01*
X196520331Y-93144194D01*
X196461661Y-93068411D01*
X196408137Y-92998973D01*
X196361430Y-92938021D01*
X196323214Y-92887696D01*
X196295161Y-92850140D01*
X196278943Y-92827495D01*
X196233635Y-92755212D01*
X196193661Y-92675463D01*
X196172130Y-92607188D01*
X196168827Y-92549844D01*
X196174116Y-92501867D01*
X195042356Y-92502117D01*
X195081867Y-92532722D01*
X195091248Y-92540089D01*
X195154183Y-92594438D01*
X195222997Y-92662259D01*
X195299596Y-92745516D01*
X195385888Y-92846178D01*
X195403052Y-92866847D01*
X195443833Y-92916409D01*
X195493588Y-92977326D01*
X195550955Y-93047898D01*
X195614569Y-93126424D01*
X195683069Y-93211204D01*
X195755090Y-93300537D01*
X195829270Y-93392722D01*
X195844517Y-93411702D01*
X195904246Y-93486060D01*
X195978653Y-93578848D01*
X196051131Y-93669388D01*
X196120314Y-93755978D01*
X196184841Y-93836918D01*
X196243347Y-93910506D01*
X196294470Y-93975044D01*
X196336847Y-94028829D01*
X196369115Y-94070162D01*
X196389910Y-94097342D01*
X196397869Y-94108668D01*
X196396111Y-94112771D01*
X196383230Y-94133334D01*
X196358885Y-94169561D01*
X196324247Y-94219824D01*
X196280486Y-94282492D01*
X196228775Y-94355936D01*
X196170284Y-94438527D01*
X196106184Y-94528636D01*
X196037646Y-94624631D01*
X195965843Y-94724885D01*
X195891944Y-94827768D01*
X195817121Y-94931650D01*
X195742545Y-95034901D01*
X195669387Y-95135892D01*
X195598819Y-95232994D01*
X195532011Y-95324577D01*
X195470135Y-95409011D01*
X195414361Y-95484667D01*
X195365862Y-95549916D01*
X195325807Y-95603128D01*
X195295369Y-95642673D01*
X195274944Y-95668026D01*
X195228899Y-95722295D01*
X195178612Y-95778775D01*
X195131815Y-95828669D01*
X195040651Y-95922400D01*
X194342445Y-95922400D01*
X194411356Y-95922349D01*
X194509607Y-95922091D01*
X194599030Y-95921637D01*
X194677333Y-95921010D01*
X194742223Y-95920235D01*
X194791411Y-95919335D01*
X194822604Y-95918334D01*
X194833511Y-95917257D01*
X194832322Y-95914037D01*
X194822176Y-95896452D01*
X194805040Y-95870158D01*
X194796540Y-95857691D01*
X194787329Y-95843622D01*
X194779233Y-95829351D01*
X194772185Y-95813479D01*
X194766117Y-95794609D01*
X194760961Y-95771341D01*
X194756651Y-95742278D01*
X194753119Y-95706021D01*
X194750297Y-95661170D01*
X194748118Y-95606328D01*
X194746514Y-95540097D01*
X194745419Y-95461077D01*
X194744765Y-95367871D01*
X194744484Y-95259079D01*
X194744509Y-95133303D01*
X194744772Y-94989145D01*
X194745206Y-94825207D01*
X194745745Y-94640089D01*
X194746279Y-94461232D01*
X194746805Y-94302374D01*
X194747350Y-94163316D01*
X194747945Y-94042665D01*
X194748619Y-93939028D01*
X194749403Y-93851011D01*
X194750326Y-93777223D01*
X194751419Y-93716269D01*
X194752712Y-93666757D01*
X194754235Y-93627293D01*
X194756019Y-93596484D01*
X194758092Y-93572938D01*
X194760486Y-93555260D01*
X194763230Y-93542059D01*
X194766356Y-93531940D01*
X194769892Y-93523511D01*
X194773791Y-93515375D01*
X194793438Y-93478544D01*
X194812225Y-93448391D01*
X194813272Y-93446908D01*
X194827602Y-93424659D01*
X194833511Y-93411702D01*
X194832504Y-93411249D01*
X194815305Y-93409803D01*
X194778656Y-93408480D01*
X194724962Y-93407316D01*
X194656630Y-93406347D01*
X194576064Y-93405611D01*
X194485670Y-93405142D01*
X194387853Y-93404978D01*
X193942195Y-93404978D01*
X193939120Y-94581845D01*
X193936045Y-95758711D01*
X193909407Y-95817622D01*
X193897485Y-95842183D01*
X193880246Y-95872434D01*
X193867074Y-95889560D01*
X193859076Y-95897591D01*
X193851378Y-95912493D01*
X193559942Y-95912493D01*
X193559474Y-95820029D01*
X193559050Y-95704617D01*
X193558706Y-95574160D01*
X193558434Y-95427716D01*
X193558227Y-95264344D01*
X193558076Y-95083101D01*
X193557972Y-94883048D01*
X193557908Y-94663241D01*
X193557876Y-94422739D01*
X193557867Y-94160602D01*
X193557867Y-91969031D01*
X193596249Y-91930649D01*
X193623355Y-91906911D01*
X193650253Y-91895111D01*
X193686560Y-91892267D01*
X193738489Y-91892267D01*
X193738489Y-91980206D01*
X193740427Y-92030102D01*
X193759199Y-92140523D01*
X193796217Y-92241987D01*
X193849369Y-92333152D01*
X193916546Y-92412673D01*
X193995638Y-92479205D01*
X194084534Y-92531406D01*
X194181125Y-92567930D01*
X194283300Y-92587434D01*
X194388950Y-92588573D01*
X194495964Y-92570005D01*
X194602232Y-92530384D01*
X194699219Y-92472516D01*
X194784293Y-92397684D01*
X194853015Y-92309615D01*
X194903918Y-92210616D01*
X194935535Y-92102993D01*
X194946400Y-91989054D01*
X194946400Y-91892267D01*
X196566753Y-91892267D01*
X196777897Y-91892280D01*
X196982020Y-91892330D01*
X197165686Y-91892430D01*
X197329991Y-91892592D01*
X197476029Y-91892829D01*
X197604894Y-91893153D01*
X197717683Y-91893575D01*
X197815488Y-91894109D01*
X197899404Y-91894767D01*
X197970527Y-91895561D01*
X198029950Y-91896504D01*
X198078768Y-91897608D01*
X198118077Y-91898884D01*
X198148969Y-91900347D01*
X198172541Y-91902007D01*
X198189886Y-91903878D01*
X198202099Y-91905972D01*
X198210275Y-91908300D01*
X198215508Y-91910876D01*
X198221504Y-91914445D01*
X198228279Y-91917978D01*
X198234478Y-91921488D01*
X198240126Y-91925918D01*
X198245247Y-91932208D01*
X198249869Y-91941301D01*
X198254015Y-91954139D01*
X198257713Y-91971662D01*
X198260987Y-91994813D01*
X198263863Y-92024534D01*
X198266367Y-92061765D01*
X198268524Y-92107449D01*
X198270360Y-92162527D01*
X198271900Y-92227941D01*
X198273170Y-92304633D01*
X198274195Y-92393544D01*
X198275001Y-92495617D01*
X198275034Y-92501867D01*
X198275614Y-92611792D01*
G36*
X198275614Y-92611792D02*
G01*
X198276059Y-92743011D01*
X198276362Y-92890216D01*
X198276548Y-93054349D01*
X198276642Y-93236352D01*
X198276671Y-93437165D01*
X198276661Y-93657732D01*
X198276636Y-93898992D01*
X198276622Y-94161889D01*
X198276622Y-94204040D01*
X198276646Y-94464668D01*
X198276685Y-94703796D01*
X198276708Y-94922360D01*
X198276687Y-95121295D01*
X198276593Y-95301535D01*
X198276395Y-95464015D01*
X198276063Y-95609670D01*
X198275569Y-95739434D01*
X198274883Y-95854243D01*
X198273976Y-95955030D01*
X198272817Y-96042730D01*
X198271378Y-96118279D01*
X198269629Y-96182611D01*
X198267540Y-96236661D01*
X198265083Y-96281363D01*
X198262227Y-96317652D01*
X198258943Y-96346463D01*
X198255202Y-96368731D01*
X198250974Y-96385390D01*
X198246229Y-96397375D01*
X198240939Y-96405621D01*
X198235073Y-96411062D01*
X198228602Y-96414634D01*
X198221497Y-96417270D01*
X198213728Y-96419906D01*
X198205266Y-96423477D01*
X198200908Y-96425145D01*
X198192395Y-96427111D01*
X198179694Y-96428911D01*
X198161885Y-96430555D01*
X198138049Y-96432047D01*
X198107266Y-96433397D01*
X198068617Y-96434611D01*
X198021182Y-96435697D01*
X197964043Y-96436661D01*
X197896279Y-96437511D01*
X197816971Y-96438253D01*
X197725199Y-96438897D01*
X197620044Y-96439447D01*
X197500587Y-96439913D01*
X197365908Y-96440300D01*
X197215088Y-96440616D01*
X197047206Y-96440869D01*
X196861345Y-96441066D01*
X196656583Y-96441213D01*
X196432002Y-96441318D01*
X196186682Y-96441389D01*
X195919704Y-96441432D01*
X195881321Y-96441437D01*
X195615922Y-96441480D01*
X195372050Y-96441525D01*
X195148783Y-96441548D01*
X194945196Y-96441524D01*
X194760367Y-96441430D01*
X194593373Y-96441243D01*
X194443290Y-96440939D01*
X194309196Y-96440494D01*
X194190166Y-96439885D01*
X194085279Y-96439089D01*
X193993610Y-96438080D01*
X193914237Y-96436837D01*
X193846237Y-96435335D01*
X193788686Y-96433551D01*
X193740662Y-96431461D01*
X193701240Y-96429042D01*
X193669499Y-96426270D01*
X193644514Y-96423121D01*
X193625364Y-96419572D01*
X193611123Y-96415598D01*
X193600871Y-96411178D01*
X193593682Y-96406286D01*
X193588635Y-96400900D01*
X193584805Y-96394996D01*
X193581271Y-96388549D01*
X193577108Y-96381537D01*
X193576025Y-96379687D01*
X193573813Y-96374180D01*
X193571786Y-96365868D01*
X193569938Y-96353809D01*
X193568261Y-96337063D01*
X193566745Y-96314687D01*
X193565383Y-96285740D01*
X193564167Y-96249280D01*
X193563089Y-96204367D01*
X193562140Y-96150057D01*
X193561312Y-96085410D01*
X193560597Y-96009484D01*
X193559987Y-95921338D01*
X193559942Y-95912493D01*
X193851378Y-95912493D01*
X193855260Y-95913765D01*
X193878520Y-95915791D01*
X193920874Y-95917626D01*
X193980132Y-95919227D01*
X194054107Y-95920549D01*
X194140610Y-95921548D01*
X194237452Y-95922180D01*
X194342445Y-95922400D01*
X195040651Y-95922400D01*
X196195090Y-95922400D01*
X196194456Y-95846200D01*
X196195574Y-95804160D01*
X196201304Y-95768334D01*
X196213890Y-95730772D01*
X196235568Y-95682577D01*
X196238789Y-95675897D01*
X196264188Y-95626359D01*
X196290996Y-95578369D01*
X196313917Y-95541466D01*
X196318485Y-95534834D01*
X196340516Y-95503593D01*
X196372693Y-95458654D01*
X196413457Y-95402147D01*
X196461245Y-95336204D01*
X196514498Y-95262957D01*
X196571655Y-95184536D01*
X196631155Y-95103072D01*
X196691437Y-95020698D01*
X196750940Y-94939544D01*
X196808105Y-94861742D01*
X196861370Y-94789423D01*
X196909174Y-94724718D01*
X196949957Y-94669759D01*
X196982158Y-94626676D01*
X197004216Y-94597602D01*
X197014571Y-94584667D01*
X197019044Y-94580351D01*
X197023236Y-94578312D01*
X197026643Y-94580926D01*
X197029325Y-94589986D01*
X197031341Y-94607285D01*
X197032748Y-94634614D01*
X197033605Y-94673765D01*
X197033970Y-94726533D01*
X197033903Y-94794707D01*
X197033460Y-94880082D01*
X197032702Y-94984449D01*
X197031685Y-95109600D01*
X197031308Y-95154300D01*
X197030169Y-95275395D01*
X197028972Y-95376688D01*
X197027636Y-95460262D01*
X197026077Y-95528204D01*
X197024215Y-95582599D01*
X197021966Y-95625532D01*
X197019248Y-95659089D01*
X197015979Y-95685355D01*
X197012078Y-95706416D01*
X197007461Y-95724357D01*
X196999192Y-95750770D01*
X196975583Y-95812772D01*
X196949685Y-95865573D01*
X196924535Y-95902645D01*
X196923339Y-95904075D01*
X196921168Y-95908424D01*
X196923328Y-95912026D01*
X196931644Y-95914951D01*
X196947940Y-95917269D01*
X196974041Y-95919051D01*
X197011771Y-95920367D01*
X197062956Y-95921286D01*
X197129420Y-95921878D01*
X197212987Y-95922215D01*
X197315483Y-95922365D01*
X197438732Y-95922400D01*
X197970296Y-95922400D01*
X197931523Y-95864783D01*
X197925432Y-95855893D01*
X197914976Y-95841069D01*
X197905579Y-95827422D01*
X197897183Y-95813765D01*
X197889733Y-95798911D01*
X197883173Y-95781670D01*
X197877446Y-95760855D01*
X197872495Y-95735280D01*
X197868266Y-95703755D01*
X197864701Y-95665093D01*
X197861744Y-95618107D01*
X197859340Y-95561608D01*
X197857431Y-95494409D01*
X197855962Y-95415322D01*
X197854876Y-95323160D01*
X197854118Y-95216734D01*
X197853630Y-95094857D01*
X197853358Y-94956341D01*
X197853243Y-94799999D01*
X197853231Y-94624642D01*
X197853265Y-94429082D01*
X197853289Y-94212133D01*
X197853280Y-94089513D01*
X197853243Y-93884447D01*
X197853227Y-93700116D01*
X197853288Y-93535334D01*
X197853484Y-93388916D01*
X197853870Y-93259674D01*
X197854505Y-93146422D01*
X197855444Y-93047975D01*
X197856745Y-92963144D01*
X197858464Y-92890744D01*
X197860659Y-92829589D01*
X197863385Y-92778492D01*
X197866701Y-92736267D01*
X197870662Y-92701727D01*
X197875325Y-92673686D01*
X197880747Y-92650958D01*
X197886986Y-92632356D01*
X197894097Y-92616693D01*
X197902138Y-92602784D01*
X197911166Y-92589441D01*
X197921236Y-92575479D01*
X197932407Y-92559711D01*
X197972197Y-92501867D01*
X196912314Y-92501867D01*
X196950311Y-92564966D01*
X196964993Y-92590005D01*
X196979531Y-92617586D01*
X196991627Y-92645700D01*
X197001532Y-92676551D01*
X197009494Y-92712344D01*
X197015761Y-92755283D01*
X197020582Y-92807574D01*
X197024206Y-92871419D01*
X197026881Y-92949025D01*
X197028857Y-93042594D01*
X197030382Y-93154333D01*
X197031704Y-93286445D01*
X197032613Y-93406434D01*
X197033020Y-93523063D01*
X197032767Y-93618531D01*
X197031857Y-93692556D01*
X197030293Y-93744855D01*
X197028079Y-93775149D01*
X197025220Y-93783156D01*
X197022161Y-93779858D01*
X197004006Y-93758408D01*
X196974275Y-93721889D01*
X196934639Y-93672442D01*
X196886771Y-93612207D01*
X196832343Y-93543327D01*
X196773027Y-93467943D01*
X196710495Y-93388196D01*
X196646421Y-93306228D01*
X196582475Y-93224180D01*
X196520331Y-93144194D01*
X196461661Y-93068411D01*
X196408137Y-92998973D01*
X196361430Y-92938021D01*
X196323214Y-92887696D01*
X196295161Y-92850140D01*
X196278943Y-92827495D01*
X196233635Y-92755212D01*
X196193661Y-92675463D01*
X196172130Y-92607188D01*
X196168827Y-92549844D01*
X196174116Y-92501867D01*
X195042356Y-92502117D01*
X195081867Y-92532722D01*
X195091248Y-92540089D01*
X195154183Y-92594438D01*
X195222997Y-92662259D01*
X195299596Y-92745516D01*
X195385888Y-92846178D01*
X195403052Y-92866847D01*
X195443833Y-92916409D01*
X195493588Y-92977326D01*
X195550955Y-93047898D01*
X195614569Y-93126424D01*
X195683069Y-93211204D01*
X195755090Y-93300537D01*
X195829270Y-93392722D01*
X195844517Y-93411702D01*
X195904246Y-93486060D01*
X195978653Y-93578848D01*
X196051131Y-93669388D01*
X196120314Y-93755978D01*
X196184841Y-93836918D01*
X196243347Y-93910506D01*
X196294470Y-93975044D01*
X196336847Y-94028829D01*
X196369115Y-94070162D01*
X196389910Y-94097342D01*
X196397869Y-94108668D01*
X196396111Y-94112771D01*
X196383230Y-94133334D01*
X196358885Y-94169561D01*
X196324247Y-94219824D01*
X196280486Y-94282492D01*
X196228775Y-94355936D01*
X196170284Y-94438527D01*
X196106184Y-94528636D01*
X196037646Y-94624631D01*
X195965843Y-94724885D01*
X195891944Y-94827768D01*
X195817121Y-94931650D01*
X195742545Y-95034901D01*
X195669387Y-95135892D01*
X195598819Y-95232994D01*
X195532011Y-95324577D01*
X195470135Y-95409011D01*
X195414361Y-95484667D01*
X195365862Y-95549916D01*
X195325807Y-95603128D01*
X195295369Y-95642673D01*
X195274944Y-95668026D01*
X195228899Y-95722295D01*
X195178612Y-95778775D01*
X195131815Y-95828669D01*
X195040651Y-95922400D01*
X194342445Y-95922400D01*
X194411356Y-95922349D01*
X194509607Y-95922091D01*
X194599030Y-95921637D01*
X194677333Y-95921010D01*
X194742223Y-95920235D01*
X194791411Y-95919335D01*
X194822604Y-95918334D01*
X194833511Y-95917257D01*
X194832322Y-95914037D01*
X194822176Y-95896452D01*
X194805040Y-95870158D01*
X194796540Y-95857691D01*
X194787329Y-95843622D01*
X194779233Y-95829351D01*
X194772185Y-95813479D01*
X194766117Y-95794609D01*
X194760961Y-95771341D01*
X194756651Y-95742278D01*
X194753119Y-95706021D01*
X194750297Y-95661170D01*
X194748118Y-95606328D01*
X194746514Y-95540097D01*
X194745419Y-95461077D01*
X194744765Y-95367871D01*
X194744484Y-95259079D01*
X194744509Y-95133303D01*
X194744772Y-94989145D01*
X194745206Y-94825207D01*
X194745745Y-94640089D01*
X194746279Y-94461232D01*
X194746805Y-94302374D01*
X194747350Y-94163316D01*
X194747945Y-94042665D01*
X194748619Y-93939028D01*
X194749403Y-93851011D01*
X194750326Y-93777223D01*
X194751419Y-93716269D01*
X194752712Y-93666757D01*
X194754235Y-93627293D01*
X194756019Y-93596484D01*
X194758092Y-93572938D01*
X194760486Y-93555260D01*
X194763230Y-93542059D01*
X194766356Y-93531940D01*
X194769892Y-93523511D01*
X194773791Y-93515375D01*
X194793438Y-93478544D01*
X194812225Y-93448391D01*
X194813272Y-93446908D01*
X194827602Y-93424659D01*
X194833511Y-93411702D01*
X194832504Y-93411249D01*
X194815305Y-93409803D01*
X194778656Y-93408480D01*
X194724962Y-93407316D01*
X194656630Y-93406347D01*
X194576064Y-93405611D01*
X194485670Y-93405142D01*
X194387853Y-93404978D01*
X193942195Y-93404978D01*
X193939120Y-94581845D01*
X193936045Y-95758711D01*
X193909407Y-95817622D01*
X193897485Y-95842183D01*
X193880246Y-95872434D01*
X193867074Y-95889560D01*
X193859076Y-95897591D01*
X193851378Y-95912493D01*
X193559942Y-95912493D01*
X193559474Y-95820029D01*
X193559050Y-95704617D01*
X193558706Y-95574160D01*
X193558434Y-95427716D01*
X193558227Y-95264344D01*
X193558076Y-95083101D01*
X193557972Y-94883048D01*
X193557908Y-94663241D01*
X193557876Y-94422739D01*
X193557867Y-94160602D01*
X193557867Y-91969031D01*
X193596249Y-91930649D01*
X193623355Y-91906911D01*
X193650253Y-91895111D01*
X193686560Y-91892267D01*
X193738489Y-91892267D01*
X193738489Y-91980206D01*
X193740427Y-92030102D01*
X193759199Y-92140523D01*
X193796217Y-92241987D01*
X193849369Y-92333152D01*
X193916546Y-92412673D01*
X193995638Y-92479205D01*
X194084534Y-92531406D01*
X194181125Y-92567930D01*
X194283300Y-92587434D01*
X194388950Y-92588573D01*
X194495964Y-92570005D01*
X194602232Y-92530384D01*
X194699219Y-92472516D01*
X194784293Y-92397684D01*
X194853015Y-92309615D01*
X194903918Y-92210616D01*
X194935535Y-92102993D01*
X194946400Y-91989054D01*
X194946400Y-91892267D01*
X196566753Y-91892267D01*
X196777897Y-91892280D01*
X196982020Y-91892330D01*
X197165686Y-91892430D01*
X197329991Y-91892592D01*
X197476029Y-91892829D01*
X197604894Y-91893153D01*
X197717683Y-91893575D01*
X197815488Y-91894109D01*
X197899404Y-91894767D01*
X197970527Y-91895561D01*
X198029950Y-91896504D01*
X198078768Y-91897608D01*
X198118077Y-91898884D01*
X198148969Y-91900347D01*
X198172541Y-91902007D01*
X198189886Y-91903878D01*
X198202099Y-91905972D01*
X198210275Y-91908300D01*
X198215508Y-91910876D01*
X198221504Y-91914445D01*
X198228279Y-91917978D01*
X198234478Y-91921488D01*
X198240126Y-91925918D01*
X198245247Y-91932208D01*
X198249869Y-91941301D01*
X198254015Y-91954139D01*
X198257713Y-91971662D01*
X198260987Y-91994813D01*
X198263863Y-92024534D01*
X198266367Y-92061765D01*
X198268524Y-92107449D01*
X198270360Y-92162527D01*
X198271900Y-92227941D01*
X198273170Y-92304633D01*
X198274195Y-92393544D01*
X198275001Y-92495617D01*
X198275034Y-92501867D01*
X198275614Y-92611792D01*
G37*
%TD*%
M02*
