%TF.GenerationSoftware,KiCad,Pcbnew,9.0.1*%
%TF.CreationDate,2025-09-20T23:55:23+05:30*%
%TF.ProjectId,how_to_kicad,686f775f-746f-45f6-9b69-6361642e6b69,rev?*%
%TF.SameCoordinates,Original*%
%TF.FileFunction,Plated,1,2,PTH,Drill*%
%TF.FilePolarity,Positive*%
%FSLAX46Y46*%
G04 Gerber Fmt 4.6, Leading zero omitted, Abs format (unit mm)*
G04 Created by KiCad (PCBNEW 9.0.1) date 2025-09-20 23:55:23*
%MOMM*%
%LPD*%
G01*
G04 APERTURE LIST*
%TA.AperFunction,ComponentDrill*%
%ADD10C,0.400000*%
%TD*%
%TA.AperFunction,ComponentDrill*%
%ADD11C,1.520000*%
%TD*%
%TA.AperFunction,ComponentDrill*%
%ADD12C,2.200000*%
%TD*%
G04 APERTURE END LIST*
D10*
%TO.C,H1*%
X168350000Y-85500000D03*
%TO.C,H3*%
X168683274Y-105500000D03*
%TO.C,H1*%
X168833274Y-84333274D03*
X168833274Y-86666726D03*
%TO.C,H3*%
X169166548Y-104333274D03*
X169166548Y-106666726D03*
%TO.C,H1*%
X170000000Y-83850000D03*
X170000000Y-87150000D03*
%TO.C,H3*%
X170333274Y-103850000D03*
X170333274Y-107150000D03*
%TO.C,H1*%
X171166726Y-84333274D03*
X171166726Y-86666726D03*
%TO.C,H3*%
X171500000Y-104333274D03*
X171500000Y-106666726D03*
%TO.C,H1*%
X171650000Y-85500000D03*
%TO.C,H3*%
X171983274Y-105500000D03*
%TO.C,H4*%
X212350000Y-105500000D03*
X212833274Y-104333274D03*
X212833274Y-106666726D03*
%TO.C,H2*%
X212850000Y-85500000D03*
X213333274Y-84333274D03*
X213333274Y-86666726D03*
%TO.C,H4*%
X214000000Y-103850000D03*
X214000000Y-107150000D03*
%TO.C,H2*%
X214500000Y-83850000D03*
X214500000Y-87150000D03*
%TO.C,H4*%
X215166726Y-104333274D03*
X215166726Y-106666726D03*
X215650000Y-105500000D03*
%TO.C,H2*%
X215666726Y-84333274D03*
X215666726Y-86666726D03*
X216150000Y-85500000D03*
D11*
%TO.C,J1*%
X168000000Y-92500000D03*
X168000000Y-97580000D03*
%TO.C,J2*%
X216000000Y-92700000D03*
X216000000Y-97780000D03*
D12*
%TO.C,H1*%
X170000000Y-85500000D03*
%TO.C,H3*%
X170333274Y-105500000D03*
%TO.C,H4*%
X214000000Y-105500000D03*
%TO.C,H2*%
X214500000Y-85500000D03*
M02*
