%TF.GenerationSoftware,KiCad,Pcbnew,9.0.1*%
%TF.CreationDate,2025-09-20T23:55:37+05:30*%
%TF.ProjectId,how_to_kicad,686f775f-746f-45f6-9b69-6361642e6b69,rev?*%
%TF.SameCoordinates,Original*%
%TF.FileFunction,Copper,L2,Bot*%
%TF.FilePolarity,Positive*%
%FSLAX46Y46*%
G04 Gerber Fmt 4.6, Leading zero omitted, Abs format (unit mm)*
G04 Created by KiCad (PCBNEW 9.0.1) date 2025-09-20 23:55:37*
%MOMM*%
%LPD*%
G01*
G04 APERTURE LIST*
%TA.AperFunction,ComponentPad*%
%ADD10R,3.000000X3.000000*%
%TD*%
%TA.AperFunction,ComponentPad*%
%ADD11C,3.000000*%
%TD*%
%TA.AperFunction,ComponentPad*%
%ADD12C,0.700000*%
%TD*%
%TA.AperFunction,ComponentPad*%
%ADD13C,4.400000*%
%TD*%
G04 APERTURE END LIST*
D10*
%TO.P,J1,1,Pin_1*%
%TO.N,GND*%
X168000000Y-97580000D03*
D11*
%TO.P,J1,2,Pin_2*%
%TO.N,INPUT*%
X168000000Y-92500000D03*
%TD*%
D12*
%TO.P,H1,1,1*%
%TO.N,unconnected-(H1-Pad1)_8*%
X168350000Y-85500000D03*
%TO.N,unconnected-(H1-Pad1)_6*%
X168833274Y-84333274D03*
%TO.N,unconnected-(H1-Pad1)_4*%
X168833274Y-86666726D03*
%TO.N,unconnected-(H1-Pad1)_5*%
X170000000Y-83850000D03*
D13*
%TO.N,unconnected-(H1-Pad1)_7*%
X170000000Y-85500000D03*
D12*
%TO.N,unconnected-(H1-Pad1)_1*%
X170000000Y-87150000D03*
%TO.N,unconnected-(H1-Pad1)_2*%
X171166726Y-84333274D03*
%TO.N,unconnected-(H1-Pad1)*%
X171166726Y-86666726D03*
%TO.N,unconnected-(H1-Pad1)_3*%
X171650000Y-85500000D03*
%TD*%
D10*
%TO.P,J2,1,Pin_1*%
%TO.N,OUTPUT*%
X216000000Y-92700000D03*
D11*
%TO.P,J2,2,Pin_2*%
%TO.N,GND*%
X216000000Y-97780000D03*
%TD*%
D12*
%TO.P,H2,1,1*%
%TO.N,unconnected-(H2-Pad1)_6*%
X212850000Y-85500000D03*
%TO.N,unconnected-(H2-Pad1)_8*%
X213333274Y-84333274D03*
%TO.N,unconnected-(H2-Pad1)_5*%
X213333274Y-86666726D03*
%TO.N,unconnected-(H2-Pad1)*%
X214500000Y-83850000D03*
D13*
%TO.N,unconnected-(H2-Pad1)_1*%
X214500000Y-85500000D03*
D12*
%TO.N,unconnected-(H2-Pad1)_3*%
X214500000Y-87150000D03*
%TO.N,unconnected-(H2-Pad1)_2*%
X215666726Y-84333274D03*
%TO.N,unconnected-(H2-Pad1)_7*%
X215666726Y-86666726D03*
%TO.N,unconnected-(H2-Pad1)_4*%
X216150000Y-85500000D03*
%TD*%
%TO.P,H3,1,1*%
%TO.N,unconnected-(H3-Pad1)*%
X168683274Y-105500000D03*
%TO.N,unconnected-(H3-Pad1)_1*%
X169166548Y-104333274D03*
%TO.N,unconnected-(H3-Pad1)_7*%
X169166548Y-106666726D03*
%TO.N,unconnected-(H3-Pad1)_5*%
X170333274Y-103850000D03*
D13*
%TO.N,unconnected-(H3-Pad1)_8*%
X170333274Y-105500000D03*
D12*
%TO.N,unconnected-(H3-Pad1)_4*%
X170333274Y-107150000D03*
%TO.N,unconnected-(H3-Pad1)_3*%
X171500000Y-104333274D03*
%TO.N,unconnected-(H3-Pad1)_6*%
X171500000Y-106666726D03*
%TO.N,unconnected-(H3-Pad1)_2*%
X171983274Y-105500000D03*
%TD*%
%TO.P,H4,1,1*%
%TO.N,unconnected-(H4-Pad1)_7*%
X212350000Y-105500000D03*
%TO.N,unconnected-(H4-Pad1)_1*%
X212833274Y-104333274D03*
%TO.N,unconnected-(H4-Pad1)_3*%
X212833274Y-106666726D03*
%TO.N,unconnected-(H4-Pad1)*%
X214000000Y-103850000D03*
D13*
%TO.N,unconnected-(H4-Pad1)_8*%
X214000000Y-105500000D03*
D12*
%TO.N,unconnected-(H4-Pad1)_2*%
X214000000Y-107150000D03*
%TO.N,unconnected-(H4-Pad1)_6*%
X215166726Y-104333274D03*
%TO.N,unconnected-(H4-Pad1)_4*%
X215166726Y-106666726D03*
%TO.N,unconnected-(H4-Pad1)_5*%
X215650000Y-105500000D03*
%TD*%
M02*
